  0
SECTION
  2
HEADER
  9
$ANGBASE
  50
0.0
  9
$ANGDIR
  70
1
  9
$MEASUREMENT
  70
1
  0
ENDSEC
  0
SECTION
  2
TABLES
  0
TABLE
  2
LTYPE
  70
4
  0
LTYPE
  5
40F
  2
CONTINUOUS
  70
0
  3
Solid line
  72
65
  73
0
  40
0.0
  0
LTYPE
  5
410
  2
DASHDOT
 70
0
  3
Dash Dot ____ _ ____ _
 72
65
 73
4
 40
2.0
 49
1.25
 49
-0.25
 49
0.25
 49
-0.25
  0
LTYPE
  5
411
  2
DASHED
 70
0
  3
Dashed __ __ __ __ __
 72
65
 73
2
 40
0.75
 49
0.5
 49
-0.25
  0
LTYPE
  5
43B
  2
DOTTED
 70
0
  3
Dotted .  .  .  .
 72
65
 73
2
 40
0.2
 49
0.0
 49
-0.2
  0
ENDTAB
  0
TABLE
  2
STYLE
  70
4
  0
STYLE
  2
KICAD
  70
0
  40
0
  41
1
  42
1
  50
0
  71
0
  3
isocp.shx
  0
STYLE
  2
KICADB
  70
0
  40
0
  41
1
  42
1
  50
0
  71
0
  3
isocp.shx
  0
STYLE
  2
KICADI
  70
0
  40
0
  41
1
  42
1
  50
15
  71
0
  3
isocp.shx
  0
STYLE
  2
KICADBI
  70
0
  40
0
  41
1
  42
1
  50
15
  71
0
  3
isocp.shx
  0
ENDTAB
  0
TABLE
  2
LAYER
  70
1
  0
LAYER
  2
BLACK
  70
0
  62
7
  6
CONTINUOUS
  0
ENDTAB
  0
ENDSEC
  0
SECTION
  2
ENTITIES
0
LINE
8
BLACK
6
CONTINUOUS
10
126.96
20
-44.587
11
127.098
21
-44.6004
0
LINE
8
BLACK
6
CONTINUOUS
10
127.098
20
-44.6004
11
127.231
21
-44.6409
0
LINE
8
BLACK
6
CONTINUOUS
10
127.231
20
-44.6409
11
127.354
21
-44.7071
0
LINE
8
BLACK
6
CONTINUOUS
10
127.354
20
-44.7071
11
127.46
21
-44.7961
0
LINE
8
BLACK
6
CONTINUOUS
10
127.46
20
-44.7961
11
127.547
21
-44.9046
0
LINE
8
BLACK
6
CONTINUOUS
10
127.547
20
-44.9046
11
127.611
21
-45.0282
0
LINE
8
BLACK
6
CONTINUOUS
10
127.611
20
-45.0282
11
127.649
21
-45.1619
0
LINE
8
BLACK
6
CONTINUOUS
10
127.649
20
-45.1619
11
127.66
21
-45.3
0
LINE
8
BLACK
6
CONTINUOUS
10
127.66
20
-45.3
11
127.66
21
-45.3
0
LINE
8
BLACK
6
CONTINUOUS
10
127.66
20
-45.3
11
127.66
21
-45.3002
0
LINE
8
BLACK
6
CONTINUOUS
10
127.66
20
-45.3002
11
127.66
21
-45.3006
0
LINE
8
BLACK
6
CONTINUOUS
10
127.66
20
-45.3006
11
127.66
21
-45.3006
0
LINE
8
BLACK
6
CONTINUOUS
10
127.66
20
-45.3006
11
127.66
21
-62.484
0
LINE
8
BLACK
6
CONTINUOUS
10
127.66
20
-62.484
11
127.672
21
-69.85
0
LINE
8
BLACK
6
CONTINUOUS
10
127.672
20
-69.85
11
127.672
21
-69.85
0
LINE
8
BLACK
6
CONTINUOUS
10
127.672
20
-69.85
11
127.672
21
-69.85
0
LINE
8
BLACK
6
CONTINUOUS
10
127.672
20
-69.85
11
127.66
21
-75.9879
0
LINE
8
BLACK
6
CONTINUOUS
10
127.66
20
-75.9879
11
127.66
21
-75.988
0
LINE
8
BLACK
6
CONTINUOUS
10
127.66
20
-75.988
11
127.66
21
-75.988
0
LINE
8
BLACK
6
CONTINUOUS
10
127.66
20
-75.988
11
127.637
21
-76.7482
0
LINE
8
BLACK
6
CONTINUOUS
10
127.637
20
-76.7482
11
127.579
21
-77.5065
0
LINE
8
BLACK
6
CONTINUOUS
10
127.579
20
-77.5065
11
127.488
21
-78.2614
0
LINE
8
BLACK
6
CONTINUOUS
10
127.488
20
-78.2614
11
127.362
21
-79.0114
0
LINE
8
BLACK
6
CONTINUOUS
10
127.362
20
-79.0114
11
127.202
21
-79.755
0
LINE
8
BLACK
6
CONTINUOUS
10
127.202
20
-79.755
11
127.009
21
-80.4906
0
LINE
8
BLACK
6
CONTINUOUS
10
127.009
20
-80.4906
11
126.783
21
-81.2166
0
LINE
8
BLACK
6
CONTINUOUS
10
126.783
20
-81.2166
11
126.524
21
-81.9317
0
LINE
8
BLACK
6
CONTINUOUS
10
126.524
20
-81.9317
11
126.233
21
-82.6344
0
LINE
8
BLACK
6
CONTINUOUS
10
126.233
20
-82.6344
11
125.911
21
-83.3231
0
LINE
8
BLACK
6
CONTINUOUS
10
125.911
20
-83.3231
11
125.911
21
-83.3231
0
LINE
8
BLACK
6
CONTINUOUS
10
125.911
20
-83.3231
11
125.91
21
-83.3237
0
LINE
8
BLACK
6
CONTINUOUS
10
125.91
20
-83.3237
11
125.91
21
-83.3246
0
LINE
8
BLACK
6
CONTINUOUS
10
125.91
20
-83.3246
11
113.692
21
-104.162
0
LINE
8
BLACK
6
CONTINUOUS
10
113.692
20
-104.162
11
113.691
21
-104.162
0
LINE
8
BLACK
6
CONTINUOUS
10
113.691
20
-104.162
11
113.691
21
-104.163
0
LINE
8
BLACK
6
CONTINUOUS
10
113.691
20
-104.163
11
113.537
21
-104.375
0
LINE
8
BLACK
6
CONTINUOUS
10
113.537
20
-104.375
11
113.355
21
-104.565
0
LINE
8
BLACK
6
CONTINUOUS
10
113.355
20
-104.565
11
113.151
21
-104.729
0
LINE
8
BLACK
6
CONTINUOUS
10
113.151
20
-104.729
11
112.927
21
-104.865
0
LINE
8
BLACK
6
CONTINUOUS
10
112.927
20
-104.865
11
112.686
21
-104.97
0
LINE
8
BLACK
6
CONTINUOUS
10
112.686
20
-104.97
11
112.434
21
-105.043
0
LINE
8
BLACK
6
CONTINUOUS
10
112.434
20
-105.043
11
112.175
21
-105.083
0
LINE
8
BLACK
6
CONTINUOUS
10
112.175
20
-105.083
11
111.913
21
-105.087
0
LINE
8
BLACK
6
CONTINUOUS
10
111.913
20
-105.087
11
111.652
21
-105.057
0
LINE
8
BLACK
6
CONTINUOUS
10
111.652
20
-105.057
11
111.397
21
-104.994
0
LINE
8
BLACK
6
CONTINUOUS
10
111.397
20
-104.994
11
111.153
21
-104.897
0
LINE
8
BLACK
6
CONTINUOUS
10
111.153
20
-104.897
11
110.925
21
-104.769
0
LINE
8
BLACK
6
CONTINUOUS
10
110.925
20
-104.769
11
110.925
21
-104.769
0
LINE
8
BLACK
6
CONTINUOUS
10
110.925
20
-104.769
11
110.925
21
-104.769
0
LINE
8
BLACK
6
CONTINUOUS
10
110.925
20
-104.769
11
110.924
21
-104.769
0
LINE
8
BLACK
6
CONTINUOUS
10
110.924
20
-104.769
11
110.924
21
-104.769
0
LINE
8
BLACK
6
CONTINUOUS
10
110.924
20
-104.769
11
110.919
21
-104.761
0
LINE
8
BLACK
6
CONTINUOUS
10
110.919
20
-104.761
11
110.919
21
-104.761
0
LINE
8
BLACK
6
CONTINUOUS
10
110.919
20
-104.761
11
109.48
21
-103.919
0
LINE
8
BLACK
6
CONTINUOUS
10
109.48
20
-103.919
11
108.017
21
-103.1
0
LINE
8
BLACK
6
CONTINUOUS
10
108.017
20
-103.1
11
106.538
21
-102.31
0
LINE
8
BLACK
6
CONTINUOUS
10
106.538
20
-102.31
11
105.045
21
-101.549
0
LINE
8
BLACK
6
CONTINUOUS
10
105.045
20
-101.549
11
103.536
21
-100.816
0
LINE
8
BLACK
6
CONTINUOUS
10
103.536
20
-100.816
11
102.014
21
-100.114
0
LINE
8
BLACK
6
CONTINUOUS
10
102.014
20
-100.114
11
100.478
21
-99.4408
0
LINE
8
BLACK
6
CONTINUOUS
10
100.478
20
-99.4408
11
98.9298
21
-98.7978
0
LINE
8
BLACK
6
CONTINUOUS
10
98.9298
20
-98.7978
11
97.3692
21
-98.1851
0
LINE
8
BLACK
6
CONTINUOUS
10
97.3692
20
-98.1851
11
95.7969
21
-97.6027
0
LINE
8
BLACK
6
CONTINUOUS
10
95.7969
20
-97.6027
11
94.2136
21
-97.0511
0
LINE
8
BLACK
6
CONTINUOUS
10
94.2136
20
-97.0511
11
92.6199
21
-96.5303
0
LINE
8
BLACK
6
CONTINUOUS
10
92.6199
20
-96.5303
11
91.0164
21
-96.0406
0
LINE
8
BLACK
6
CONTINUOUS
10
91.0164
20
-96.0406
11
89.4129
21
-95.5848
0
LINE
8
BLACK
6
CONTINUOUS
10
89.4129
20
-95.5848
11
89.4126
21
-95.5848
0
LINE
8
BLACK
6
CONTINUOUS
10
89.4126
20
-95.5848
11
89.4038
21
-95.5864
0
LINE
8
BLACK
6
CONTINUOUS
10
89.4038
20
-95.5864
11
89.4032
21
-95.586
0
LINE
8
BLACK
6
CONTINUOUS
10
89.4032
20
-95.586
11
89.4025
21
-95.5861
0
LINE
8
BLACK
6
CONTINUOUS
10
89.4025
20
-95.5861
11
89.3955
21
-95.5806
0
LINE
8
BLACK
6
CONTINUOUS
10
89.3955
20
-95.5806
11
89.394
21
-95.5796
0
LINE
8
BLACK
6
CONTINUOUS
10
89.394
20
-95.5796
11
86.022
21
-94.8609
0
LINE
8
BLACK
6
CONTINUOUS
10
86.022
20
-94.8609
11
82.6318
21
-94.1761
0
LINE
8
BLACK
6
CONTINUOUS
10
82.6318
20
-94.1761
11
79.2344
21
-93.5275
0
LINE
8
BLACK
6
CONTINUOUS
10
79.2344
20
-93.5275
11
75.8304
21
-92.9152
0
LINE
8
BLACK
6
CONTINUOUS
10
75.8304
20
-92.9152
11
72.4199
21
-92.3394
0
LINE
8
BLACK
6
CONTINUOUS
10
72.4199
20
-92.3394
11
69.0035
21
-91.7999
0
LINE
8
BLACK
6
CONTINUOUS
10
69.0035
20
-91.7999
11
65.5816
21
-91.297
0
LINE
8
BLACK
6
CONTINUOUS
10
65.5816
20
-91.297
11
62.1545
21
-90.8306
0
LINE
8
BLACK
6
CONTINUOUS
10
62.1545
20
-90.8306
11
58.7225
21
-90.4009
0
LINE
8
BLACK
6
CONTINUOUS
10
58.7225
20
-90.4009
11
55.2862
21
-90.0078
0
LINE
8
BLACK
6
CONTINUOUS
10
55.2862
20
-90.0078
11
51.8459
21
-89.6514
0
LINE
8
BLACK
6
CONTINUOUS
10
51.8459
20
-89.6514
11
48.402
21
-89.3318
0
LINE
8
BLACK
6
CONTINUOUS
10
48.402
20
-89.3318
11
44.9549
21
-89.049
0
LINE
8
BLACK
6
CONTINUOUS
10
44.9549
20
-89.049
11
41.5049
21
-88.803
0
LINE
8
BLACK
6
CONTINUOUS
10
41.5049
20
-88.803
11
38.0525
21
-88.5938
0
LINE
8
BLACK
6
CONTINUOUS
10
38.0525
20
-88.5938
11
34.5981
21
-88.4216
0
LINE
8
BLACK
6
CONTINUOUS
10
34.5981
20
-88.4216
11
31.1421
21
-88.2862
0
LINE
8
BLACK
6
CONTINUOUS
10
31.1421
20
-88.2862
11
27.6848
21
-88.1877
0
LINE
8
BLACK
6
CONTINUOUS
10
27.6848
20
-88.1877
11
24.2266
21
-88.1261
0
LINE
8
BLACK
6
CONTINUOUS
10
24.2266
20
-88.1261
11
20.779
21
-88.1016
0
LINE
8
BLACK
6
CONTINUOUS
10
20.779
20
-88.1016
11
20.7771
21
-88.1023
0
LINE
8
BLACK
6
CONTINUOUS
10
20.7771
20
-88.1023
11
20.7688
21
-88.1061
0
LINE
8
BLACK
6
CONTINUOUS
10
20.7688
20
-88.1061
11
20.7688
21
-88.1061
0
LINE
8
BLACK
6
CONTINUOUS
10
20.7688
20
-88.1061
11
20.768
21
-88.1061
0
LINE
8
BLACK
6
CONTINUOUS
10
20.768
20
-88.1061
11
20.768
21
-88.1061
0
LINE
8
BLACK
6
CONTINUOUS
10
20.768
20
-88.1061
11
20.7679
21
-88.1061
0
LINE
8
BLACK
6
CONTINUOUS
10
20.7679
20
-88.1061
11
20.5179
21
-88.098
0
LINE
8
BLACK
6
CONTINUOUS
10
20.5179
20
-88.098
11
20.2699
21
-88.0588
0
LINE
8
BLACK
6
CONTINUOUS
10
20.2699
20
-88.0588
11
20.0288
21
-87.989
0
LINE
8
BLACK
6
CONTINUOUS
10
20.0288
20
-87.989
11
19.7983
21
-87.8898
0
LINE
8
BLACK
6
CONTINUOUS
10
19.7983
20
-87.8898
11
19.5819
21
-87.7626
0
LINE
8
BLACK
6
CONTINUOUS
10
19.5819
20
-87.7626
11
19.3829
21
-87.6095
0
LINE
8
BLACK
6
CONTINUOUS
10
19.3829
20
-87.6095
11
19.2046
21
-87.4329
0
LINE
8
BLACK
6
CONTINUOUS
10
19.2046
20
-87.4329
11
19.0496
21
-87.2354
0
LINE
8
BLACK
6
CONTINUOUS
10
19.0496
20
-87.2354
11
18.9204
21
-87.0202
0
LINE
8
BLACK
6
CONTINUOUS
10
18.9204
20
-87.0202
11
18.819
21
-86.7906
0
LINE
8
BLACK
6
CONTINUOUS
10
18.819
20
-86.7906
11
18.747
21
-86.5501
0
LINE
8
BLACK
6
CONTINUOUS
10
18.747
20
-86.5501
11
18.7054
21
-86.3026
0
LINE
8
BLACK
6
CONTINUOUS
10
18.7054
20
-86.3026
11
18.7054
21
-86.3026
0
LINE
8
BLACK
6
CONTINUOUS
10
18.7054
20
-86.3026
11
18.7054
21
-86.3026
0
LINE
8
BLACK
6
CONTINUOUS
10
18.7054
20
-86.3026
11
18.7058
21
-86.3013
0
LINE
8
BLACK
6
CONTINUOUS
10
18.7058
20
-86.3013
11
18.7053
21
-86.3
0
LINE
8
BLACK
6
CONTINUOUS
10
18.7053
20
-86.3
11
18.6651
21
-39.11
0
LINE
8
BLACK
6
CONTINUOUS
10
18.6651
20
-39.11
11
18.6651
21
-39.11
0
LINE
8
BLACK
6
CONTINUOUS
10
18.6651
20
-39.11
11
18.6801
21
-38.9002
0
LINE
8
BLACK
6
CONTINUOUS
10
18.6801
20
-38.9002
11
18.7279
21
-38.6952
0
LINE
8
BLACK
6
CONTINUOUS
10
18.7279
20
-38.6952
11
18.8073
21
-38.5003
0
LINE
8
BLACK
6
CONTINUOUS
10
18.8073
20
-38.5003
11
18.9164
21
-38.3203
0
LINE
8
BLACK
6
CONTINUOUS
10
18.9164
20
-38.3203
11
19.0524
21
-38.1597
0
LINE
8
BLACK
6
CONTINUOUS
10
19.0524
20
-38.1597
11
19.212
21
-38.0224
0
LINE
8
BLACK
6
CONTINUOUS
10
19.212
20
-38.0224
11
19.3912
21
-37.9119
0
LINE
8
BLACK
6
CONTINUOUS
10
19.3912
20
-37.9119
11
19.5855
21
-37.831
0
LINE
8
BLACK
6
CONTINUOUS
10
19.5855
20
-37.831
11
19.7902
21
-37.7816
0
LINE
8
BLACK
6
CONTINUOUS
10
19.7902
20
-37.7816
11
20
21
-37.765
0
LINE
8
BLACK
6
CONTINUOUS
10
20
20
-37.765
11
20
21
-37.7651
0
LINE
8
BLACK
6
CONTINUOUS
10
20
20
-37.7651
11
20
21
-37.7651
0
LINE
8
BLACK
6
CONTINUOUS
10
20
20
-37.7651
11
20
21
-37.7651
0
LINE
8
BLACK
6
CONTINUOUS
10
20
20
-37.7651
11
34.9
21
-37.775
0
LINE
8
BLACK
6
CONTINUOUS
10
34.9
20
-37.775
11
34.9081
21
-37.7784
0
LINE
8
BLACK
6
CONTINUOUS
10
34.9081
20
-37.7784
11
34.9086
21
-37.7786
0
LINE
8
BLACK
6
CONTINUOUS
10
34.9086
20
-37.7786
11
35.1158
21
-37.7623
0
LINE
8
BLACK
6
CONTINUOUS
10
35.1158
20
-37.7623
11
35.3262
21
-37.7117
0
LINE
8
BLACK
6
CONTINUOUS
10
35.3262
20
-37.7117
11
35.5262
21
-37.6289
0
LINE
8
BLACK
6
CONTINUOUS
10
35.5262
20
-37.6289
11
35.7107
21
-37.5158
0
LINE
8
BLACK
6
CONTINUOUS
10
35.7107
20
-37.5158
11
35.8753
21
-37.3753
0
LINE
8
BLACK
6
CONTINUOUS
10
35.8753
20
-37.3753
11
36.0158
21
-37.2107
0
LINE
8
BLACK
6
CONTINUOUS
10
36.0158
20
-37.2107
11
36.1289
21
-37.0262
0
LINE
8
BLACK
6
CONTINUOUS
10
36.1289
20
-37.0262
11
36.2117
21
-36.8262
0
LINE
8
BLACK
6
CONTINUOUS
10
36.2117
20
-36.8262
11
36.2623
21
-36.6158
0
LINE
8
BLACK
6
CONTINUOUS
10
36.2623
20
-36.6158
11
36.2786
21
-36.4086
0
LINE
8
BLACK
6
CONTINUOUS
10
36.2786
20
-36.4086
11
36.275
21
-36.4
0
LINE
8
BLACK
6
CONTINUOUS
10
36.275
20
-36.4
11
36.275
21
-26.9
0
LINE
8
BLACK
6
CONTINUOUS
10
36.275
20
-26.9
11
36.2921
21
-26.7046
0
LINE
8
BLACK
6
CONTINUOUS
10
36.2921
20
-26.7046
11
36.3428
21
-26.5152
0
LINE
8
BLACK
6
CONTINUOUS
10
36.3428
20
-26.5152
11
36.4257
21
-26.3375
0
LINE
8
BLACK
6
CONTINUOUS
10
36.4257
20
-26.3375
11
36.5382
21
-26.1769
0
LINE
8
BLACK
6
CONTINUOUS
10
36.5382
20
-26.1769
11
36.6769
21
-26.0382
0
LINE
8
BLACK
6
CONTINUOUS
10
36.6769
20
-26.0382
11
36.8375
21
-25.9257
0
LINE
8
BLACK
6
CONTINUOUS
10
36.8375
20
-25.9257
11
37.0152
21
-25.8428
0
LINE
8
BLACK
6
CONTINUOUS
10
37.0152
20
-25.8428
11
37.2046
21
-25.7921
0
LINE
8
BLACK
6
CONTINUOUS
10
37.2046
20
-25.7921
11
37.4
21
-25.775
0
LINE
8
BLACK
6
CONTINUOUS
10
37.4
20
-25.775
11
52.71
21
-25.775
0
LINE
8
BLACK
6
CONTINUOUS
10
52.71
20
-25.775
11
52.7181
21
-25.7784
0
LINE
8
BLACK
6
CONTINUOUS
10
52.7181
20
-25.7784
11
52.9336
21
-25.7616
0
LINE
8
BLACK
6
CONTINUOUS
10
52.9336
20
-25.7616
11
53.1526
21
-25.7128
0
LINE
8
BLACK
6
CONTINUOUS
10
53.1526
20
-25.7128
11
53.3625
21
-25.6333
0
LINE
8
BLACK
6
CONTINUOUS
10
53.3625
20
-25.6333
11
53.559
21
-25.525
0
LINE
8
BLACK
6
CONTINUOUS
10
53.559
20
-25.525
11
53.7381
21
-25.3898
0
LINE
8
BLACK
6
CONTINUOUS
10
53.7381
20
-25.3898
11
53.8963
21
-25.2306
0
LINE
8
BLACK
6
CONTINUOUS
10
53.8963
20
-25.2306
11
54.0303
21
-25.0507
0
LINE
8
BLACK
6
CONTINUOUS
10
54.0303
20
-25.0507
11
54.1374
21
-24.8535
0
LINE
8
BLACK
6
CONTINUOUS
10
54.1374
20
-24.8535
11
54.2156
21
-24.6431
0
LINE
8
BLACK
6
CONTINUOUS
10
54.2156
20
-24.6431
11
54.2631
21
-24.4238
0
LINE
8
BLACK
6
CONTINUOUS
10
54.2631
20
-24.4238
11
54.2784
21
-24.2083
0
LINE
8
BLACK
6
CONTINUOUS
10
54.2784
20
-24.2083
11
54.275
21
-24.2
0
LINE
8
BLACK
6
CONTINUOUS
10
54.275
20
-24.2
11
54.275
21
-19.8
0
LINE
8
BLACK
6
CONTINUOUS
10
54.275
20
-19.8
11
54.2906
21
-19.622
0
LINE
8
BLACK
6
CONTINUOUS
10
54.2906
20
-19.622
11
54.3368
21
-19.4494
0
LINE
8
BLACK
6
CONTINUOUS
10
54.3368
20
-19.4494
11
54.4123
21
-19.2875
0
LINE
8
BLACK
6
CONTINUOUS
10
54.4123
20
-19.2875
11
54.5148
21
-19.1411
0
LINE
8
BLACK
6
CONTINUOUS
10
54.5148
20
-19.1411
11
54.6411
21
-19.0148
0
LINE
8
BLACK
6
CONTINUOUS
10
54.6411
20
-19.0148
11
54.7875
21
-18.9123
0
LINE
8
BLACK
6
CONTINUOUS
10
54.7875
20
-18.9123
11
54.9494
21
-18.8368
0
LINE
8
BLACK
6
CONTINUOUS
10
54.9494
20
-18.8368
11
55.122
21
-18.7906
0
LINE
8
BLACK
6
CONTINUOUS
10
55.122
20
-18.7906
11
55.3
21
-18.775
0
LINE
8
BLACK
6
CONTINUOUS
10
55.3
20
-18.775
11
89.6343
21
-18.775
0
LINE
8
BLACK
6
CONTINUOUS
10
89.6343
20
-18.775
11
89.7953
21
-18.7909
0
LINE
8
BLACK
6
CONTINUOUS
10
89.7953
20
-18.7909
11
89.95
21
-18.8378
0
LINE
8
BLACK
6
CONTINUOUS
10
89.95
20
-18.8378
11
90.0927
21
-18.914
0
LINE
8
BLACK
6
CONTINUOUS
10
90.0927
20
-18.914
11
90.2177
21
-19.0166
0
LINE
8
BLACK
6
CONTINUOUS
10
90.2177
20
-19.0166
11
90.3203
21
-19.1417
0
LINE
8
BLACK
6
CONTINUOUS
10
90.3203
20
-19.1417
11
90.3965
21
-19.2843
0
LINE
8
BLACK
6
CONTINUOUS
10
90.3965
20
-19.2843
11
90.4434
21
-19.4391
0
LINE
8
BLACK
6
CONTINUOUS
10
90.4434
20
-19.4391
11
90.4591
21
-19.5978
0
LINE
8
BLACK
6
CONTINUOUS
10
90.4591
20
-19.5978
11
90.4592
21
-19.5981
0
LINE
8
BLACK
6
CONTINUOUS
10
90.4592
20
-19.5981
11
90.5249
21
-20.4481
0
LINE
8
BLACK
6
CONTINUOUS
10
90.5249
20
-20.4481
11
90.5232
21
-20.4533
0
LINE
8
BLACK
6
CONTINUOUS
10
90.5232
20
-20.4533
11
90.5524
21
-20.5762
0
LINE
8
BLACK
6
CONTINUOUS
10
90.5524
20
-20.5762
11
90.6063
21
-20.6976
0
LINE
8
BLACK
6
CONTINUOUS
10
90.6063
20
-20.6976
11
90.6815
21
-20.8071
0
LINE
8
BLACK
6
CONTINUOUS
10
90.6815
20
-20.8071
11
90.7756
21
-20.9008
0
LINE
8
BLACK
6
CONTINUOUS
10
90.7756
20
-20.9008
11
90.8853
21
-20.9757
0
LINE
8
BLACK
6
CONTINUOUS
10
90.8853
20
-20.9757
11
91.0009
21
-21.0266
0
LINE
8
BLACK
6
CONTINUOUS
10
91.0009
20
-21.0266
11
91.0063
21
-21.0258
0
LINE
8
BLACK
6
CONTINUOUS
10
91.0063
20
-21.0258
11
99.8745
21
-23.3258
0
LINE
8
BLACK
6
CONTINUOUS
10
99.8745
20
-23.3258
11
99.8752
21
-23.3264
0
LINE
8
BLACK
6
CONTINUOUS
10
99.8752
20
-23.3264
11
99.8762
21
-23.3263
0
LINE
8
BLACK
6
CONTINUOUS
10
99.8762
20
-23.3263
11
99.9983
21
-23.3829
0
LINE
8
BLACK
6
CONTINUOUS
10
99.9983
20
-23.3829
11
100.105
21
-23.4647
0
LINE
8
BLACK
6
CONTINUOUS
10
100.105
20
-23.4647
11
100.192
21
-23.5678
0
LINE
8
BLACK
6
CONTINUOUS
10
100.192
20
-23.5678
11
100.254
21
-23.6872
0
LINE
8
BLACK
6
CONTINUOUS
10
100.254
20
-23.6872
11
100.288
21
-23.8173
0
LINE
8
BLACK
6
CONTINUOUS
10
100.288
20
-23.8173
11
100.293
21
-23.9493
0
LINE
8
BLACK
6
CONTINUOUS
10
100.293
20
-23.9493
11
100.293
21
-23.9496
0
LINE
8
BLACK
6
CONTINUOUS
10
100.293
20
-23.9496
11
100.325
21
-25.7996
0
LINE
8
BLACK
6
CONTINUOUS
10
100.325
20
-25.7996
11
100.324
21
-25.8008
0
LINE
8
BLACK
6
CONTINUOUS
10
100.324
20
-25.8008
11
100.325
21
-25.8021
0
LINE
8
BLACK
6
CONTINUOUS
10
100.325
20
-25.8021
11
100.321
21
-25.8096
0
LINE
8
BLACK
6
CONTINUOUS
10
100.321
20
-25.8096
11
100.321
21
-25.8097
0
LINE
8
BLACK
6
CONTINUOUS
10
100.321
20
-25.8097
11
100.326
21
-25.9342
0
LINE
8
BLACK
6
CONTINUOUS
10
100.326
20
-25.9342
11
100.363
21
-26.0612
0
LINE
8
BLACK
6
CONTINUOUS
10
100.363
20
-26.0612
11
100.431
21
-26.1751
0
LINE
8
BLACK
6
CONTINUOUS
10
100.431
20
-26.1751
11
100.525
21
-26.2688
0
LINE
8
BLACK
6
CONTINUOUS
10
100.525
20
-26.2688
11
100.639
21
-26.3365
0
LINE
8
BLACK
6
CONTINUOUS
10
100.639
20
-26.3365
11
100.766
21
-26.3741
0
LINE
8
BLACK
6
CONTINUOUS
10
100.766
20
-26.3741
11
100.89
21
-26.379
0
LINE
8
BLACK
6
CONTINUOUS
10
100.89
20
-26.379
11
100.898
21
-26.3751
0
LINE
8
BLACK
6
CONTINUOUS
10
100.898
20
-26.3751
11
100.899
21
-26.3754
0
LINE
8
BLACK
6
CONTINUOUS
10
100.899
20
-26.3754
11
100.9
21
-26.375
0
LINE
8
BLACK
6
CONTINUOUS
10
100.9
20
-26.375
11
106.5
21
-26.375
0
LINE
8
BLACK
6
CONTINUOUS
10
106.5
20
-26.375
11
106.5
21
-26.3751
0
LINE
8
BLACK
6
CONTINUOUS
10
106.5
20
-26.3751
11
106.501
21
-26.375
0
LINE
8
BLACK
6
CONTINUOUS
10
106.501
20
-26.375
11
106.647
21
-26.3924
0
LINE
8
BLACK
6
CONTINUOUS
10
106.647
20
-26.3924
11
106.787
21
-26.4376
0
LINE
8
BLACK
6
CONTINUOUS
10
106.787
20
-26.4376
11
106.916
21
-26.509
0
LINE
8
BLACK
6
CONTINUOUS
10
106.916
20
-26.509
11
107.029
21
-26.6039
0
LINE
8
BLACK
6
CONTINUOUS
10
107.029
20
-26.6039
11
107.122
21
-26.7188
0
LINE
8
BLACK
6
CONTINUOUS
10
107.122
20
-26.7188
11
107.191
21
-26.8493
0
LINE
8
BLACK
6
CONTINUOUS
10
107.191
20
-26.8493
11
107.233
21
-26.9906
0
LINE
8
BLACK
6
CONTINUOUS
10
107.233
20
-26.9906
11
107.247
21
-27.1374
0
LINE
8
BLACK
6
CONTINUOUS
10
107.247
20
-27.1374
11
107.247
21
-27.1374
0
LINE
8
BLACK
6
CONTINUOUS
10
107.247
20
-27.1374
11
107.247
21
-42.684
0
LINE
8
BLACK
6
CONTINUOUS
10
107.247
20
-42.684
11
107.244
21
-42.6918
0
LINE
8
BLACK
6
CONTINUOUS
10
107.244
20
-42.6918
11
107.268
21
-42.9381
0
LINE
8
BLACK
6
CONTINUOUS
10
107.268
20
-42.9381
11
107.327
21
-43.1876
0
LINE
8
BLACK
6
CONTINUOUS
10
107.327
20
-43.1876
11
107.417
21
-43.4275
0
LINE
8
BLACK
6
CONTINUOUS
10
107.417
20
-43.4275
11
107.537
21
-43.6537
0
LINE
8
BLACK
6
CONTINUOUS
10
107.537
20
-43.6537
11
107.685
21
-43.8626
0
LINE
8
BLACK
6
CONTINUOUS
10
107.685
20
-43.8626
11
107.859
21
-44.0505
0
LINE
8
BLACK
6
CONTINUOUS
10
107.859
20
-44.0505
11
108.056
21
-44.2145
0
LINE
8
BLACK
6
CONTINUOUS
10
108.056
20
-44.2145
11
108.272
21
-44.3516
0
LINE
8
BLACK
6
CONTINUOUS
10
108.272
20
-44.3516
11
108.504
21
-44.4597
0
LINE
8
BLACK
6
CONTINUOUS
10
108.504
20
-44.4597
11
108.749
21
-44.5369
0
LINE
8
BLACK
6
CONTINUOUS
10
108.749
20
-44.5369
11
109.001
21
-44.5819
0
LINE
8
BLACK
6
CONTINUOUS
10
109.001
20
-44.5819
11
109.248
21
-44.5936
0
LINE
8
BLACK
6
CONTINUOUS
10
109.248
20
-44.5936
11
109.257
21
-44.5899
0
LINE
8
BLACK
6
CONTINUOUS
10
109.257
20
-44.5899
11
109.257
21
-44.59
0
LINE
8
BLACK
6
CONTINUOUS
10
109.257
20
-44.59
11
109.257
21
-44.5899
0
LINE
8
BLACK
6
CONTINUOUS
10
109.257
20
-44.5899
11
126.96
21
-44.587
0
LINE
8
BLACK
6
CONTINUOUS
10
126.96
20
-44.587
11
126.96
21
-44.587
0
LINE
8
BLACK
6
CONTINUOUS
10
126.96
20
-44.587
11
126.96
21
-44.587
0
LINE
8
BLACK
6
CONTINUOUS
10
55.2926
20
-18.8219
11
55.13
21
-18.8361
0
LINE
8
BLACK
6
CONTINUOUS
10
55.13
20
-18.8361
11
54.9653
21
-18.8803
0
LINE
8
BLACK
6
CONTINUOUS
10
54.9653
20
-18.8803
11
54.8106
21
-18.9524
0
LINE
8
BLACK
6
CONTINUOUS
10
54.8106
20
-18.9524
11
54.6709
21
-19.0503
0
LINE
8
BLACK
6
CONTINUOUS
10
54.6709
20
-19.0503
11
54.5503
21
-19.1709
0
LINE
8
BLACK
6
CONTINUOUS
10
54.5503
20
-19.1709
11
54.4524
21
-19.3106
0
LINE
8
BLACK
6
CONTINUOUS
10
54.4524
20
-19.3106
11
54.3803
21
-19.4653
0
LINE
8
BLACK
6
CONTINUOUS
10
54.3803
20
-19.4653
11
54.3361
21
-19.63
0
LINE
8
BLACK
6
CONTINUOUS
10
54.3361
20
-19.63
11
54.3219
21
-19.7926
0
LINE
8
BLACK
6
CONTINUOUS
10
54.3219
20
-19.7926
11
54.325
21
-19.8
0
LINE
8
BLACK
6
CONTINUOUS
10
54.325
20
-19.8
11
54.325
21
-24.2
0
LINE
8
BLACK
6
CONTINUOUS
10
54.325
20
-24.2
11
54.3086
21
-24.4303
0
LINE
8
BLACK
6
CONTINUOUS
10
54.3086
20
-24.4303
11
54.2597
21
-24.656
0
LINE
8
BLACK
6
CONTINUOUS
10
54.2597
20
-24.656
11
54.1793
21
-24.8725
0
LINE
8
BLACK
6
CONTINUOUS
10
54.1793
20
-24.8725
11
54.069
21
-25.0754
0
LINE
8
BLACK
6
CONTINUOUS
10
54.069
20
-25.0754
11
53.9311
21
-25.2607
0
LINE
8
BLACK
6
CONTINUOUS
10
53.9311
20
-25.2607
11
53.7683
21
-25.4245
0
LINE
8
BLACK
6
CONTINUOUS
10
53.7683
20
-25.4245
11
53.584
21
-25.5635
0
LINE
8
BLACK
6
CONTINUOUS
10
53.584
20
-25.5635
11
53.3818
21
-25.6751
0
LINE
8
BLACK
6
CONTINUOUS
10
53.3818
20
-25.6751
11
53.1658
21
-25.7568
0
LINE
8
BLACK
6
CONTINUOUS
10
53.1658
20
-25.7568
11
52.9404
21
-25.8071
0
LINE
8
BLACK
6
CONTINUOUS
10
52.9404
20
-25.8071
11
52.7102
21
-25.825
0
LINE
8
BLACK
6
CONTINUOUS
10
52.7102
20
-25.825
11
52.7102
21
-25.825
0
LINE
8
BLACK
6
CONTINUOUS
10
52.7102
20
-25.825
11
52.7101
21
-25.825
0
LINE
8
BLACK
6
CONTINUOUS
10
52.7101
20
-25.825
11
52.71
21
-25.825
0
LINE
8
BLACK
6
CONTINUOUS
10
52.71
20
-25.825
11
37.4
21
-25.825
0
LINE
8
BLACK
6
CONTINUOUS
10
37.4
20
-25.825
11
37.3918
21
-25.8216
0
LINE
8
BLACK
6
CONTINUOUS
10
37.3918
20
-25.8216
11
37.2126
21
-25.8373
0
LINE
8
BLACK
6
CONTINUOUS
10
37.2126
20
-25.8373
11
37.0309
21
-25.886
0
LINE
8
BLACK
6
CONTINUOUS
10
37.0309
20
-25.886
11
36.8604
21
-25.9655
0
LINE
8
BLACK
6
CONTINUOUS
10
36.8604
20
-25.9655
11
36.7064
21
-26.0734
0
LINE
8
BLACK
6
CONTINUOUS
10
36.7064
20
-26.0734
11
36.5734
21
-26.2064
0
LINE
8
BLACK
6
CONTINUOUS
10
36.5734
20
-26.2064
11
36.4655
21
-26.3604
0
LINE
8
BLACK
6
CONTINUOUS
10
36.4655
20
-26.3604
11
36.386
21
-26.5309
0
LINE
8
BLACK
6
CONTINUOUS
10
36.386
20
-26.5309
11
36.3373
21
-26.7126
0
LINE
8
BLACK
6
CONTINUOUS
10
36.3373
20
-26.7126
11
36.3216
21
-26.8918
0
LINE
8
BLACK
6
CONTINUOUS
10
36.3216
20
-26.8918
11
36.325
21
-26.9
0
LINE
8
BLACK
6
CONTINUOUS
10
36.325
20
-26.9
11
36.325
21
-36.4
0
LINE
8
BLACK
6
CONTINUOUS
10
36.325
20
-36.4
11
36.3075
21
-36.6229
0
LINE
8
BLACK
6
CONTINUOUS
10
36.3075
20
-36.6229
11
36.2553
21
-36.8403
0
LINE
8
BLACK
6
CONTINUOUS
10
36.2553
20
-36.8403
11
36.1697
21
-37.0469
0
LINE
8
BLACK
6
CONTINUOUS
10
36.1697
20
-37.0469
11
36.0528
21
-37.2376
0
LINE
8
BLACK
6
CONTINUOUS
10
36.0528
20
-37.2376
11
35.9076
21
-37.4076
0
LINE
8
BLACK
6
CONTINUOUS
10
35.9076
20
-37.4076
11
35.7376
21
-37.5528
0
LINE
8
BLACK
6
CONTINUOUS
10
35.7376
20
-37.5528
11
35.5469
21
-37.6697
0
LINE
8
BLACK
6
CONTINUOUS
10
35.5469
20
-37.6697
11
35.3403
21
-37.7553
0
LINE
8
BLACK
6
CONTINUOUS
10
35.3403
20
-37.7553
11
35.1229
21
-37.8075
0
LINE
8
BLACK
6
CONTINUOUS
10
35.1229
20
-37.8075
11
34.9
21
-37.825
0
LINE
8
BLACK
6
CONTINUOUS
10
34.9
20
-37.825
11
34.9
21
-37.825
0
LINE
8
BLACK
6
CONTINUOUS
10
34.9
20
-37.825
11
34.9
21
-37.825
0
LINE
8
BLACK
6
CONTINUOUS
10
34.9
20
-37.825
11
20
21
-37.8151
0
LINE
8
BLACK
6
CONTINUOUS
10
20
20
-37.8151
11
19.9919
21
-37.8117
0
LINE
8
BLACK
6
CONTINUOUS
10
19.9919
20
-37.8117
11
19.7974
21
-37.8271
0
LINE
8
BLACK
6
CONTINUOUS
10
19.7974
20
-37.8271
11
19.5998
21
-37.8748
0
LINE
8
BLACK
6
CONTINUOUS
10
19.5998
20
-37.8748
11
19.4122
21
-37.9529
0
LINE
8
BLACK
6
CONTINUOUS
10
19.4122
20
-37.9529
11
19.2392
21
-38.0596
0
LINE
8
BLACK
6
CONTINUOUS
10
19.2392
20
-38.0596
11
19.0851
21
-38.1921
0
LINE
8
BLACK
6
CONTINUOUS
10
19.0851
20
-38.1921
11
18.9538
21
-38.3472
0
LINE
8
BLACK
6
CONTINUOUS
10
18.9538
20
-38.3472
11
18.8484
21
-38.521
0
LINE
8
BLACK
6
CONTINUOUS
10
18.8484
20
-38.521
11
18.7717
21
-38.7092
0
LINE
8
BLACK
6
CONTINUOUS
10
18.7717
20
-38.7092
11
18.7256
21
-38.9071
0
LINE
8
BLACK
6
CONTINUOUS
10
18.7256
20
-38.9071
11
18.7117
21
-39.1018
0
LINE
8
BLACK
6
CONTINUOUS
10
18.7117
20
-39.1018
11
18.7151
21
-39.1098
0
LINE
8
BLACK
6
CONTINUOUS
10
18.7151
20
-39.1098
11
18.715
21
-39.1099
0
LINE
8
BLACK
6
CONTINUOUS
10
18.715
20
-39.1099
11
18.7151
21
-39.11
0
LINE
8
BLACK
6
CONTINUOUS
10
18.7151
20
-39.11
11
18.7553
21
-86.3
0
LINE
8
BLACK
6
CONTINUOUS
10
18.7553
20
-86.3
11
18.7522
21
-86.3074
0
LINE
8
BLACK
6
CONTINUOUS
10
18.7522
20
-86.3074
11
18.7964
21
-86.5615
0
LINE
8
BLACK
6
CONTINUOUS
10
18.7964
20
-86.5615
11
18.8776
21
-86.8166
0
LINE
8
BLACK
6
CONTINUOUS
10
18.8776
20
-86.8166
11
18.9926
21
-87.0582
0
LINE
8
BLACK
6
CONTINUOUS
10
18.9926
20
-87.0582
11
19.1393
21
-87.282
0
LINE
8
BLACK
6
CONTINUOUS
10
19.1393
20
-87.282
11
19.3151
21
-87.4838
0
LINE
8
BLACK
6
CONTINUOUS
10
19.3151
20
-87.4838
11
19.5166
21
-87.66
0
LINE
8
BLACK
6
CONTINUOUS
10
19.5166
20
-87.66
11
19.7401
21
-87.8071
0
LINE
8
BLACK
6
CONTINUOUS
10
19.7401
20
-87.8071
11
19.9815
21
-87.9226
0
LINE
8
BLACK
6
CONTINUOUS
10
19.9815
20
-87.9226
11
20.2364
21
-88.0042
0
LINE
8
BLACK
6
CONTINUOUS
10
20.2364
20
-88.0042
11
20.5
21
-88.0506
0
LINE
8
BLACK
6
CONTINUOUS
10
20.5
20
-88.0506
11
20.7578
21
-88.0604
0
LINE
8
BLACK
6
CONTINUOUS
10
20.7578
20
-88.0604
11
20.7589
21
-88.0599
0
LINE
8
BLACK
6
CONTINUOUS
10
20.7589
20
-88.0599
11
20.7672
21
-88.0561
0
LINE
8
BLACK
6
CONTINUOUS
10
20.7672
20
-88.0561
11
20.7676
21
-88.0563
0
LINE
8
BLACK
6
CONTINUOUS
10
20.7676
20
-88.0563
11
20.768
21
-88.0561
0
LINE
8
BLACK
6
CONTINUOUS
10
20.768
20
-88.0561
11
20.768
21
-88.0561
0
LINE
8
BLACK
6
CONTINUOUS
10
20.768
20
-88.0561
11
24.2272
21
-88.0808
0
LINE
8
BLACK
6
CONTINUOUS
10
24.2272
20
-88.0808
11
27.6858
21
-88.1423
0
LINE
8
BLACK
6
CONTINUOUS
10
27.6858
20
-88.1423
11
31.1436
21
-88.2408
0
LINE
8
BLACK
6
CONTINUOUS
10
31.1436
20
-88.2408
11
34.6001
21
-88.3762
0
LINE
8
BLACK
6
CONTINUOUS
10
34.6001
20
-88.3762
11
38.0551
21
-88.5485
0
LINE
8
BLACK
6
CONTINUOUS
10
38.0551
20
-88.5485
11
41.5079
21
-88.7577
0
LINE
8
BLACK
6
CONTINUOUS
10
41.5079
20
-88.7577
11
44.9584
21
-89.0038
0
LINE
8
BLACK
6
CONTINUOUS
10
44.9584
20
-89.0038
11
48.406
21
-89.2866
0
LINE
8
BLACK
6
CONTINUOUS
10
48.406
20
-89.2866
11
51.8504
21
-89.6063
0
LINE
8
BLACK
6
CONTINUOUS
10
51.8504
20
-89.6063
11
55.2912
21
-89.9627
0
LINE
8
BLACK
6
CONTINUOUS
10
55.2912
20
-89.9627
11
58.7279
21
-90.3558
0
LINE
8
BLACK
6
CONTINUOUS
10
58.7279
20
-90.3558
11
62.1603
21
-90.7856
0
LINE
8
BLACK
6
CONTINUOUS
10
62.1603
20
-90.7856
11
65.5879
21
-91.2521
0
LINE
8
BLACK
6
CONTINUOUS
10
65.5879
20
-91.2521
11
69.0104
21
-91.7551
0
LINE
8
BLACK
6
CONTINUOUS
10
69.0104
20
-91.7551
11
72.4272
21
-92.2946
0
LINE
8
BLACK
6
CONTINUOUS
10
72.4272
20
-92.2946
11
75.8381
21
-92.8705
0
LINE
8
BLACK
6
CONTINUOUS
10
75.8381
20
-92.8705
11
79.2427
21
-93.4829
0
LINE
8
BLACK
6
CONTINUOUS
10
79.2427
20
-93.4829
11
82.6405
21
-94.1316
0
LINE
8
BLACK
6
CONTINUOUS
10
82.6405
20
-94.1316
11
86.0313
21
-94.8165
0
LINE
8
BLACK
6
CONTINUOUS
10
86.0313
20
-94.8165
11
89.4145
21
-95.5375
0
LINE
8
BLACK
6
CONTINUOUS
10
89.4145
20
-95.5375
11
89.4145
21
-95.5375
0
LINE
8
BLACK
6
CONTINUOUS
10
89.4145
20
-95.5375
11
89.415
21
-95.5379
0
LINE
8
BLACK
6
CONTINUOUS
10
89.415
20
-95.5379
11
89.4157
21
-95.5378
0
LINE
8
BLACK
6
CONTINUOUS
10
89.4157
20
-95.5378
11
89.4157
21
-95.5378
0
LINE
8
BLACK
6
CONTINUOUS
10
89.4157
20
-95.5378
11
91.0293
21
-95.9965
0
LINE
8
BLACK
6
CONTINUOUS
10
91.0293
20
-95.9965
11
92.6337
21
-96.4865
0
LINE
8
BLACK
6
CONTINUOUS
10
92.6337
20
-96.4865
11
94.2283
21
-97.0076
0
LINE
8
BLACK
6
CONTINUOUS
10
94.2283
20
-97.0076
11
95.8124
21
-97.5595
0
LINE
8
BLACK
6
CONTINUOUS
10
95.8124
20
-97.5595
11
97.3855
21
-98.1422
0
LINE
8
BLACK
6
CONTINUOUS
10
97.3855
20
-98.1422
11
98.947
21
-98.7553
0
LINE
8
BLACK
6
CONTINUOUS
10
98.947
20
-98.7553
11
100.496
21
-99.3986
0
LINE
8
BLACK
6
CONTINUOUS
10
100.496
20
-99.3986
11
102.033
21
-100.072
0
LINE
8
BLACK
6
CONTINUOUS
10
102.033
20
-100.072
11
103.556
21
-100.775
0
LINE
8
BLACK
6
CONTINUOUS
10
103.556
20
-100.775
11
105.065
21
-101.507
0
LINE
8
BLACK
6
CONTINUOUS
10
105.065
20
-101.507
11
106.56
21
-102.269
0
LINE
8
BLACK
6
CONTINUOUS
10
106.56
20
-102.269
11
108.039
21
-103.06
0
LINE
8
BLACK
6
CONTINUOUS
10
108.039
20
-103.06
11
109.503
21
-103.879
0
LINE
8
BLACK
6
CONTINUOUS
10
109.503
20
-103.879
11
110.951
21
-104.727
0
LINE
8
BLACK
6
CONTINUOUS
10
110.951
20
-104.727
11
110.951
21
-104.727
0
LINE
8
BLACK
6
CONTINUOUS
10
110.951
20
-104.727
11
110.952
21
-104.727
0
LINE
8
BLACK
6
CONTINUOUS
10
110.952
20
-104.727
11
110.957
21
-104.735
0
LINE
8
BLACK
6
CONTINUOUS
10
110.957
20
-104.735
11
110.957
21
-104.735
0
LINE
8
BLACK
6
CONTINUOUS
10
110.957
20
-104.735
11
111.173
21
-104.856
0
LINE
8
BLACK
6
CONTINUOUS
10
111.173
20
-104.856
11
111.411
21
-104.95
0
LINE
8
BLACK
6
CONTINUOUS
10
111.411
20
-104.95
11
111.66
21
-105.012
0
LINE
8
BLACK
6
CONTINUOUS
10
111.66
20
-105.012
11
111.915
21
-105.042
0
LINE
8
BLACK
6
CONTINUOUS
10
111.915
20
-105.042
11
112.171
21
-105.037
0
LINE
8
BLACK
6
CONTINUOUS
10
112.171
20
-105.037
11
112.425
21
-104.999
0
LINE
8
BLACK
6
CONTINUOUS
10
112.425
20
-104.999
11
112.671
21
-104.927
0
LINE
8
BLACK
6
CONTINUOUS
10
112.671
20
-104.927
11
112.906
21
-104.824
0
LINE
8
BLACK
6
CONTINUOUS
10
112.906
20
-104.824
11
113.125
21
-104.691
0
LINE
8
BLACK
6
CONTINUOUS
10
113.125
20
-104.691
11
113.324
21
-104.531
0
LINE
8
BLACK
6
CONTINUOUS
10
113.324
20
-104.531
11
113.501
21
-104.345
0
LINE
8
BLACK
6
CONTINUOUS
10
113.501
20
-104.345
11
113.647
21
-104.145
0
LINE
8
BLACK
6
CONTINUOUS
10
113.647
20
-104.145
11
113.648
21
-104.137
0
LINE
8
BLACK
6
CONTINUOUS
10
113.648
20
-104.137
11
125.867
21
-83.2994
0
LINE
8
BLACK
6
CONTINUOUS
10
125.867
20
-83.2994
11
125.874
21
-83.2941
0
LINE
8
BLACK
6
CONTINUOUS
10
125.874
20
-83.2941
11
125.874
21
-83.2939
0
LINE
8
BLACK
6
CONTINUOUS
10
125.874
20
-83.2939
11
126.191
21
-82.6159
0
LINE
8
BLACK
6
CONTINUOUS
10
126.191
20
-82.6159
11
126.481
21
-81.9152
0
LINE
8
BLACK
6
CONTINUOUS
10
126.481
20
-81.9152
11
126.74
21
-81.202
0
LINE
8
BLACK
6
CONTINUOUS
10
126.74
20
-81.202
11
126.965
21
-80.478
0
LINE
8
BLACK
6
CONTINUOUS
10
126.965
20
-80.478
11
127.158
21
-79.7444
0
LINE
8
BLACK
6
CONTINUOUS
10
127.158
20
-79.7444
11
127.317
21
-79.0029
0
LINE
8
BLACK
6
CONTINUOUS
10
127.317
20
-79.0029
11
127.442
21
-78.2549
0
LINE
8
BLACK
6
CONTINUOUS
10
127.442
20
-78.2549
11
127.534
21
-77.502
0
LINE
8
BLACK
6
CONTINUOUS
10
127.534
20
-77.502
11
127.591
21
-76.7458
0
LINE
8
BLACK
6
CONTINUOUS
10
127.591
20
-76.7458
11
127.614
21
-75.9975
0
LINE
8
BLACK
6
CONTINUOUS
10
127.614
20
-75.9975
11
127.614
21
-75.9966
0
LINE
8
BLACK
6
CONTINUOUS
10
127.614
20
-75.9966
11
127.61
21
-75.9878
0
LINE
8
BLACK
6
CONTINUOUS
10
127.61
20
-75.9878
11
127.622
21
-69.85
0
LINE
8
BLACK
6
CONTINUOUS
10
127.622
20
-69.85
11
127.61
21
-62.484
0
LINE
8
BLACK
6
CONTINUOUS
10
127.61
20
-62.484
11
127.61
21
-62.484
0
LINE
8
BLACK
6
CONTINUOUS
10
127.61
20
-62.484
11
127.61
21
-62.484
0
LINE
8
BLACK
6
CONTINUOUS
10
127.61
20
-62.484
11
127.61
21
-45.3
0
LINE
8
BLACK
6
CONTINUOUS
10
127.61
20
-45.3
11
127.61
21
-45.2997
0
LINE
8
BLACK
6
CONTINUOUS
10
127.61
20
-45.2997
11
127.61
21
-45.2994
0
LINE
8
BLACK
6
CONTINUOUS
10
127.61
20
-45.2994
11
127.613
21
-45.2917
0
LINE
8
BLACK
6
CONTINUOUS
10
127.613
20
-45.2917
11
127.601
21
-45.1518
0
LINE
8
BLACK
6
CONTINUOUS
10
127.601
20
-45.1518
11
127.554
21
-45.0109
0
LINE
8
BLACK
6
CONTINUOUS
10
127.554
20
-45.0109
11
127.477
21
-44.8842
0
LINE
8
BLACK
6
CONTINUOUS
10
127.477
20
-44.8842
11
127.373
21
-44.7783
0
LINE
8
BLACK
6
CONTINUOUS
10
127.373
20
-44.7783
11
127.248
21
-44.6986
0
LINE
8
BLACK
6
CONTINUOUS
10
127.248
20
-44.6986
11
127.108
21
-44.6493
0
LINE
8
BLACK
6
CONTINUOUS
10
127.108
20
-44.6493
11
126.968
21
-44.6338
0
LINE
8
BLACK
6
CONTINUOUS
10
126.968
20
-44.6338
11
126.96
21
-44.637
0
LINE
8
BLACK
6
CONTINUOUS
10
126.96
20
-44.637
11
126.96
21
-44.637
0
LINE
8
BLACK
6
CONTINUOUS
10
126.96
20
-44.637
11
126.96
21
-44.637
0
LINE
8
BLACK
6
CONTINUOUS
10
126.96
20
-44.637
11
109.257
21
-44.6399
0
LINE
8
BLACK
6
CONTINUOUS
10
109.257
20
-44.6399
11
109.257
21
-44.6399
0
LINE
8
BLACK
6
CONTINUOUS
10
109.257
20
-44.6399
11
108.996
21
-44.6275
0
LINE
8
BLACK
6
CONTINUOUS
10
108.996
20
-44.6275
11
108.738
21
-44.5815
0
LINE
8
BLACK
6
CONTINUOUS
10
108.738
20
-44.5815
11
108.488
21
-44.5025
0
LINE
8
BLACK
6
CONTINUOUS
10
108.488
20
-44.5025
11
108.25
21
-44.3919
0
LINE
8
BLACK
6
CONTINUOUS
10
108.25
20
-44.3919
11
108.029
21
-44.2516
0
LINE
8
BLACK
6
CONTINUOUS
10
108.029
20
-44.2516
11
107.827
21
-44.0839
0
LINE
8
BLACK
6
CONTINUOUS
10
107.827
20
-44.0839
11
107.649
21
-43.8915
0
LINE
8
BLACK
6
CONTINUOUS
10
107.649
20
-43.8915
11
107.498
21
-43.6778
0
LINE
8
BLACK
6
CONTINUOUS
10
107.498
20
-43.6778
11
107.375
21
-43.4463
0
LINE
8
BLACK
6
CONTINUOUS
10
107.375
20
-43.4463
11
107.283
21
-43.2009
0
LINE
8
BLACK
6
CONTINUOUS
10
107.283
20
-43.2009
11
107.223
21
-42.9457
0
LINE
8
BLACK
6
CONTINUOUS
10
107.223
20
-42.9457
11
107.197
21
-42.6849
0
LINE
8
BLACK
6
CONTINUOUS
10
107.197
20
-42.6849
11
107.197
21
-42.6849
0
LINE
8
BLACK
6
CONTINUOUS
10
107.197
20
-42.6849
11
107.197
21
-42.6844
0
LINE
8
BLACK
6
CONTINUOUS
10
107.197
20
-42.6844
11
107.197
21
-42.684
0
LINE
8
BLACK
6
CONTINUOUS
10
107.197
20
-42.684
11
107.197
21
-27.1374
0
LINE
8
BLACK
6
CONTINUOUS
10
107.197
20
-27.1374
11
107.2
21
-27.1306
0
LINE
8
BLACK
6
CONTINUOUS
10
107.2
20
-27.1306
11
107.187
21
-26.9996
0
LINE
8
BLACK
6
CONTINUOUS
10
107.187
20
-26.9996
11
107.147
21
-26.8669
0
LINE
8
BLACK
6
CONTINUOUS
10
107.147
20
-26.8669
11
107.083
21
-26.7443
0
LINE
8
BLACK
6
CONTINUOUS
10
107.083
20
-26.7443
11
106.996
21
-26.6365
0
LINE
8
BLACK
6
CONTINUOUS
10
106.996
20
-26.6365
11
106.89
21
-26.5473
0
LINE
8
BLACK
6
CONTINUOUS
10
106.89
20
-26.5473
11
106.769
21
-26.4803
0
LINE
8
BLACK
6
CONTINUOUS
10
106.769
20
-26.4803
11
106.637
21
-26.4378
0
LINE
8
BLACK
6
CONTINUOUS
10
106.637
20
-26.4378
11
106.506
21
-26.4224
0
LINE
8
BLACK
6
CONTINUOUS
10
106.506
20
-26.4224
11
106.5
21
-26.425
0
LINE
8
BLACK
6
CONTINUOUS
10
106.5
20
-26.425
11
100.9
21
-26.425
0
LINE
8
BLACK
6
CONTINUOUS
10
100.9
20
-26.425
11
100.9
21
-26.4248
0
LINE
8
BLACK
6
CONTINUOUS
10
100.9
20
-26.4248
11
100.776
21
-26.422
0
LINE
8
BLACK
6
CONTINUOUS
10
100.776
20
-26.422
11
100.654
21
-26.3919
0
LINE
8
BLACK
6
CONTINUOUS
10
100.654
20
-26.3919
11
100.541
21
-26.3361
0
LINE
8
BLACK
6
CONTINUOUS
10
100.541
20
-26.3361
11
100.443
21
-26.2573
0
LINE
8
BLACK
6
CONTINUOUS
10
100.443
20
-26.2573
11
100.364
21
-26.159
0
LINE
8
BLACK
6
CONTINUOUS
10
100.364
20
-26.159
11
100.308
21
-26.0461
0
LINE
8
BLACK
6
CONTINUOUS
10
100.308
20
-26.0461
11
100.278
21
-25.9238
0
LINE
8
BLACK
6
CONTINUOUS
10
100.278
20
-25.9238
11
100.275
21
-25.8008
0
LINE
8
BLACK
6
CONTINUOUS
10
100.275
20
-25.8008
11
100.275
21
-25.8004
0
LINE
8
BLACK
6
CONTINUOUS
10
100.275
20
-25.8004
11
100.243
21
-23.9504
0
LINE
8
BLACK
6
CONTINUOUS
10
100.243
20
-23.9504
11
100.244
21
-23.9493
0
LINE
8
BLACK
6
CONTINUOUS
10
100.244
20
-23.9493
11
100.243
21
-23.9482
0
LINE
8
BLACK
6
CONTINUOUS
10
100.243
20
-23.9482
11
100.246
21
-23.942
0
LINE
8
BLACK
6
CONTINUOUS
10
100.246
20
-23.942
11
100.242
21
-23.8242
0
LINE
8
BLACK
6
CONTINUOUS
10
100.242
20
-23.8242
11
100.21
21
-23.704
0
LINE
8
BLACK
6
CONTINUOUS
10
100.21
20
-23.704
11
100.153
21
-23.5937
0
LINE
8
BLACK
6
CONTINUOUS
10
100.153
20
-23.5937
11
100.073
21
-23.4984
0
LINE
8
BLACK
6
CONTINUOUS
10
100.073
20
-23.4984
11
99.9741
21
-23.4228
0
LINE
8
BLACK
6
CONTINUOUS
10
99.9741
20
-23.4228
11
99.8675
21
-23.3734
0
LINE
8
BLACK
6
CONTINUOUS
10
99.8675
20
-23.3734
11
99.8619
21
-23.3742
0
LINE
8
BLACK
6
CONTINUOUS
10
99.8619
20
-23.3742
11
90.9937
21
-21.0742
0
LINE
8
BLACK
6
CONTINUOUS
10
90.9937
20
-21.0742
11
90.993
21
-21.0737
0
LINE
8
BLACK
6
CONTINUOUS
10
90.993
20
-21.0737
11
90.9921
21
-21.0737
0
LINE
8
BLACK
6
CONTINUOUS
10
90.9921
20
-21.0737
11
90.9921
21
-21.0737
0
LINE
8
BLACK
6
CONTINUOUS
10
90.9921
20
-21.0737
11
90.9921
21
-21.0737
0
LINE
8
BLACK
6
CONTINUOUS
10
90.9921
20
-21.0737
11
90.8626
21
-21.0168
0
LINE
8
BLACK
6
CONTINUOUS
10
90.8626
20
-21.0168
11
90.7457
21
-20.937
0
LINE
8
BLACK
6
CONTINUOUS
10
90.7457
20
-20.937
11
90.6455
21
-20.8371
0
LINE
8
BLACK
6
CONTINUOUS
10
90.6455
20
-20.8371
11
90.5653
21
-20.7205
0
LINE
8
BLACK
6
CONTINUOUS
10
90.5653
20
-20.7205
11
90.5079
21
-20.5912
0
LINE
8
BLACK
6
CONTINUOUS
10
90.5079
20
-20.5912
11
90.4753
21
-20.4535
0
LINE
8
BLACK
6
CONTINUOUS
10
90.4753
20
-20.4535
11
90.4752
21
-20.4535
0
LINE
8
BLACK
6
CONTINUOUS
10
90.4752
20
-20.4535
11
90.4755
21
-20.4527
0
LINE
8
BLACK
6
CONTINUOUS
10
90.4755
20
-20.4527
11
90.4751
21
-20.4519
0
LINE
8
BLACK
6
CONTINUOUS
10
90.4751
20
-20.4519
11
90.4094
21
-19.6019
0
LINE
8
BLACK
6
CONTINUOUS
10
90.4094
20
-19.6019
11
90.4097
21
-19.6009
0
LINE
8
BLACK
6
CONTINUOUS
10
90.4097
20
-19.6009
11
90.4093
21
-19.6
0
LINE
8
BLACK
6
CONTINUOUS
10
90.4093
20
-19.6
11
90.4123
21
-19.5927
0
LINE
8
BLACK
6
CONTINUOUS
10
90.4123
20
-19.5927
11
90.3981
21
-19.4481
0
LINE
8
BLACK
6
CONTINUOUS
10
90.3981
20
-19.4481
11
90.3538
21
-19.302
0
LINE
8
BLACK
6
CONTINUOUS
10
90.3538
20
-19.302
11
90.2818
21
-19.1674
0
LINE
8
BLACK
6
CONTINUOUS
10
90.2818
20
-19.1674
11
90.185
21
-19.0493
0
LINE
8
BLACK
6
CONTINUOUS
10
90.185
20
-19.0493
11
90.067
21
-18.9525
0
LINE
8
BLACK
6
CONTINUOUS
10
90.067
20
-18.9525
11
89.9323
21
-18.8805
0
LINE
8
BLACK
6
CONTINUOUS
10
89.9323
20
-18.8805
11
89.7862
21
-18.8362
0
LINE
8
BLACK
6
CONTINUOUS
10
89.7862
20
-18.8362
11
89.6416
21
-18.822
0
LINE
8
BLACK
6
CONTINUOUS
10
89.6416
20
-18.822
11
89.6343
21
-18.825
0
LINE
8
BLACK
6
CONTINUOUS
10
89.6343
20
-18.825
11
55.3
21
-18.825
0
LINE
8
BLACK
6
CONTINUOUS
10
55.3
20
-18.825
11
55.2926
21
-18.8219
  0
ENDSEC
  0
EOF
