0
SECTION
2
HEADER
9
$INSUNITS
70
4
0
ENDSEC
0
SECTION
2
TABLES
0
TABLE
2
LTYPE
0
LTYPE
72
65
70
64
2
CONTINUOUS
3
______
73
0
40
0
0
ENDTAB
0
TABLE
2
LAYER
0
ENDTAB
0
ENDSEC
0
SECTION
2
ENTITIES
0
LINE
8
0
10
-10.525
20
-11.525
11
11.4607477
21
-11.525
0
LINE
8
0
10
-11.525
20
-10.525
11
-11.525
21
48.625
0
LINE
8
0
10
6.525
20
49.625
11
-10.525
21
49.625
0
LINE
8
0
10
7.525
20
50.625
11
7.525
21
71.485
0
LINE
8
0
10
25.575
20
72.485
11
8.525
21
72.485
0
LINE
8
0
10
44.625
20
85.058
11
27.575
21
85.058
0
LINE
8
0
10
26.575
20
84.058
11
26.575
21
73.485
0
LINE
8
0
10
68.675
20
86.058
11
68.675
21
88.8205
0
LINE
8
0
10
67.675
20
89.8205
11
46.625
21
89.8205
0
LINE
8
0
10
45.625
20
88.8205
11
45.625
21
86.058
0
LINE
8
0
10
87.725
20
83.2005
11
87.725
21
84.058
0
LINE
8
0
10
86.725
20
85.058
11
69.675
21
85.058
0
LINE
8
0
10
106.775
20
47.4055
11
106.775
21
81.2005
0
LINE
8
0
10
105.775
20
82.2005
11
88.725
21
82.2005
0
LINE
8
0
10
63.1887774
20
-18.1916547
11
83.8205947
21
-21.0912675
0
LINE
8
0
10
83.957059
20
-21.1202739
11
101.7643427
21
-26.2264304
0
LINE
8
0
10
101.9581769
20
-26.3047445
11
119.3828709
21
-35.5696187
0
LINE
8
0
10
120.7352901
20
-35.1561427
11
130.9190332
21
-16.0033077
0
LINE
8
0
10
107.775
20
46.4055
11
126.52
21
46.4055
0
LINE
8
0
10
127.52
20
45.4055
11
127.52
21
2.1003318
0
LINE
8
0
10
127.5397362
20
1.9026381
11
131.0163494
21
-15.3361424
0
LINE
8
0
10
63.1775812
20
-18.1901457
11
11.5887246
21
-11.5332229
0
ARC
8
0
10
11.4607477
20
-12.525
40
1
50
82.6472989
51
90
0
ARC
8
0
10
63.0496043
20
-19.1819228
40
1
50
82.0000003
51
82.6472989
0
ARC
8
0
10
83.6814216
20
-22.0815356
40
1
50
73.9999976
51
82.0000003
0
ARC
8
0
10
101.4887053
20
-27.1876921
40
1
50
61.9999983
51
73.9999976
0
ARC
8
0
10
119.8523425
20
-34.6866711
40
1
50
241.9999983
51
331.9999983
0
ARC
8
0
10
130.0360856
20
-15.5338361
40
1
50
331.9999983
51
11.4021257
0
ARC
8
0
10
128.52
20
2.1003318
40
1
50
180
51
191.4021257
0
ARC
8
0
10
126.52
20
45.4055
40
1
50
0
51
90
0
ARC
8
0
10
107.775
20
47.4055
40
1
50
180
51
270
0
ARC
8
0
10
105.775
20
81.2005
40
1
50
0
51
90
0
ARC
8
0
10
88.725
20
83.2005
40
1
50
180
51
270
0
ARC
8
0
10
86.725
20
84.058
40
1
50
0
51
90
0
ARC
8
0
10
69.675
20
86.058
40
1
50
180
51
270
0
ARC
8
0
10
67.675
20
88.8205
40
1
50
0
51
90
0
ARC
8
0
10
46.625
20
88.8205
40
1
50
90
51
180
0
ARC
8
0
10
44.625
20
86.058
40
1
50
270
51
0
0
ARC
8
0
10
27.575
20
84.058
40
1
50
90
51
180
0
ARC
8
0
10
25.575
20
73.485
40
1
50
270
51
0
0
ARC
8
0
10
8.525
20
71.485
40
1
50
90
51
180
0
ARC
8
0
10
6.525
20
50.625
40
1
50
270
51
0
0
ARC
8
0
10
-10.525
20
48.625
40
1
50
90
51
180
0
ARC
8
0
10
-10.525
20
-10.525
40
1
50
180
51
270
0
LINE
8
0
10
-6.95
20
-6.95
11
6.95
21
-6.95
0
LINE
8
0
10
6.95
20
-6.95
11
6.95
21
6.95
0
LINE
8
0
10
6.95
20
6.95
11
-6.95
21
6.95
0
LINE
8
0
10
-6.95
20
6.95
11
-6.95
21
-6.95
0
LINE
8
0
10
-6.95
20
12.1
11
6.95
21
12.1
0
LINE
8
0
10
6.95
20
12.1
11
6.95
21
26
0
LINE
8
0
10
6.95
20
26
11
-6.95
21
26
0
LINE
8
0
10
-6.95
20
26
11
-6.95
21
12.1
0
LINE
8
0
10
-6.95
20
31.15
11
6.95
21
31.15
0
LINE
8
0
10
6.95
20
31.15
11
6.95
21
45.05
0
LINE
8
0
10
6.95
20
45.05
11
-6.95
21
45.05
0
LINE
8
0
10
-6.95
20
45.05
11
-6.95
21
31.15
0
LINE
8
0
10
12.1
20
-3.14
11
26
21
-3.14
0
LINE
8
0
10
26
20
-3.14
11
26
21
10.76
0
LINE
8
0
10
26
20
10.76
11
12.1
21
10.76
0
LINE
8
0
10
12.1
20
10.76
11
12.1
21
-3.14
0
LINE
8
0
10
12.1
20
15.91
11
26
21
15.91
0
LINE
8
0
10
26
20
15.91
11
26
21
29.81
0
LINE
8
0
10
26
20
29.81
11
12.1
21
29.81
0
LINE
8
0
10
12.1
20
29.81
11
12.1
21
15.91
0
LINE
8
0
10
12.1
20
34.96
11
26
21
34.96
0
LINE
8
0
10
26
20
34.96
11
26
21
48.86
0
LINE
8
0
10
26
20
48.86
11
12.1
21
48.86
0
LINE
8
0
10
12.1
20
48.86
11
12.1
21
34.96
0
LINE
8
0
10
12.1
20
54.01
11
26
21
54.01
0
LINE
8
0
10
26
20
54.01
11
26
21
67.91
0
LINE
8
0
10
26
20
67.91
11
12.1
21
67.91
0
LINE
8
0
10
12.1
20
67.91
11
12.1
21
54.01
0
LINE
8
0
10
31.15
20
9.433
11
45.05
21
9.433
0
LINE
8
0
10
45.05
20
9.433
11
45.05
21
23.333
0
LINE
8
0
10
45.05
20
23.333
11
31.15
21
23.333
0
LINE
8
0
10
31.15
20
23.333
11
31.15
21
9.433
0
LINE
8
0
10
31.15
20
28.483
11
45.05
21
28.483
0
LINE
8
0
10
45.05
20
28.483
11
45.05
21
42.383
0
LINE
8
0
10
45.05
20
42.383
11
31.15
21
42.383
0
LINE
8
0
10
31.15
20
42.383
11
31.15
21
28.483
0
LINE
8
0
10
31.15
20
47.533
11
45.05
21
47.533
0
LINE
8
0
10
45.05
20
47.533
11
45.05
21
61.433
0
LINE
8
0
10
45.05
20
61.433
11
31.15
21
61.433
0
LINE
8
0
10
31.15
20
61.433
11
31.15
21
47.533
0
LINE
8
0
10
31.15
20
66.583
11
45.05
21
66.583
0
LINE
8
0
10
45.05
20
66.583
11
45.05
21
80.483
0
LINE
8
0
10
45.05
20
80.483
11
31.15
21
80.483
0
LINE
8
0
10
31.15
20
80.483
11
31.15
21
66.583
0
LINE
8
0
10
50.2
20
14.1955
11
64.1
21
14.1955
0
LINE
8
0
10
64.1
20
14.1955
11
64.1
21
28.0955
0
LINE
8
0
10
64.1
20
28.0955
11
50.2
21
28.0955
0
LINE
8
0
10
50.2
20
28.0955
11
50.2
21
14.1955
0
LINE
8
0
10
50.2
20
33.2455
11
64.1
21
33.2455
0
LINE
8
0
10
64.1
20
33.2455
11
64.1
21
47.1455
0
LINE
8
0
10
64.1
20
47.1455
11
50.2
21
47.1455
0
LINE
8
0
10
50.2
20
47.1455
11
50.2
21
33.2455
0
LINE
8
0
10
50.2
20
52.2955
11
64.1
21
52.2955
0
LINE
8
0
10
64.1
20
52.2955
11
64.1
21
66.1955
0
LINE
8
0
10
64.1
20
66.1955
11
50.2
21
66.1955
0
LINE
8
0
10
50.2
20
66.1955
11
50.2
21
52.2955
0
LINE
8
0
10
50.2
20
71.3455
11
64.1
21
71.3455
0
LINE
8
0
10
64.1
20
71.3455
11
64.1
21
85.2455
0
LINE
8
0
10
64.1
20
85.2455
11
50.2
21
85.2455
0
LINE
8
0
10
50.2
20
85.2455
11
50.2
21
71.3455
0
LINE
8
0
10
69.25
20
9.433
11
83.15
21
9.433
0
LINE
8
0
10
83.15
20
9.433
11
83.15
21
23.333
0
LINE
8
0
10
83.15
20
23.333
11
69.25
21
23.333
0
LINE
8
0
10
69.25
20
23.333
11
69.25
21
9.433
0
LINE
8
0
10
69.25
20
28.483
11
83.15
21
28.483
0
LINE
8
0
10
83.15
20
28.483
11
83.15
21
42.383
0
LINE
8
0
10
83.15
20
42.383
11
69.25
21
42.383
0
LINE
8
0
10
69.25
20
42.383
11
69.25
21
28.483
0
LINE
8
0
10
69.25
20
47.533
11
83.15
21
47.533
0
LINE
8
0
10
83.15
20
47.533
11
83.15
21
61.433
0
LINE
8
0
10
83.15
20
61.433
11
69.25
21
61.433
0
LINE
8
0
10
69.25
20
61.433
11
69.25
21
47.533
0
LINE
8
0
10
69.25
20
66.583
11
83.15
21
66.583
0
LINE
8
0
10
83.15
20
66.583
11
83.15
21
80.483
0
LINE
8
0
10
83.15
20
80.483
11
69.25
21
80.483
0
LINE
8
0
10
69.25
20
80.483
11
69.25
21
66.583
0
LINE
8
0
10
88.3
20
6.5755
11
102.2
21
6.5755
0
LINE
8
0
10
102.2
20
6.5755
11
102.2
21
20.4755
0
LINE
8
0
10
102.2
20
20.4755
11
88.3
21
20.4755
0
LINE
8
0
10
88.3
20
20.4755
11
88.3
21
6.5755
0
LINE
8
0
10
88.3
20
25.6255
11
102.2
21
25.6255
0
LINE
8
0
10
102.2
20
25.6255
11
102.2
21
39.5255
0
LINE
8
0
10
102.2
20
39.5255
11
88.3
21
39.5255
0
LINE
8
0
10
88.3
20
39.5255
11
88.3
21
25.6255
0
LINE
8
0
10
88.3
20
44.6755
11
102.2
21
44.6755
0
LINE
8
0
10
102.2
20
44.6755
11
102.2
21
58.5755
0
LINE
8
0
10
102.2
20
58.5755
11
88.3
21
58.5755
0
LINE
8
0
10
88.3
20
58.5755
11
88.3
21
44.6755
0
LINE
8
0
10
88.3
20
63.7255
11
102.2
21
63.7255
0
LINE
8
0
10
102.2
20
63.7255
11
102.2
21
77.6255
0
LINE
8
0
10
102.2
20
77.6255
11
88.3
21
77.6255
0
LINE
8
0
10
88.3
20
77.6255
11
88.3
21
63.7255
0
LINE
8
0
10
68.3503839
20
-14.29711
11
82.11511
21
-16.2316161
0
LINE
8
0
10
82.11511
20
-16.2316161
11
84.0496161
21
-2.46689
0
LINE
8
0
10
84.0496161
20
-2.46689
11
70.28489
21
-0.5323839
0
LINE
8
0
10
70.28489
20
-0.5323839
11
68.3503839
21
-14.29711
0
LINE
8
0
10
87.4916946
20
-17.3744445
11
100.8532322
21
-21.2058037
0
LINE
8
0
10
100.8532322
20
-21.2058037
11
104.6845914
21
-7.8442661
0
LINE
8
0
10
104.6845914
20
-7.8442661
11
91.3230538
21
-4.0129069
0
LINE
8
0
10
91.3230538
20
-4.0129069
11
87.4916946
21
-17.3744445
0
LINE
8
0
10
106.1011942
20
-23.3261179
11
118.3741657
21
-29.8517726
0
LINE
8
0
10
118.3741657
20
-29.8517726
11
124.8998204
21
-17.5788011
0
LINE
8
0
10
124.8998204
20
-17.5788011
11
112.6268489
21
-11.0531464
0
LINE
8
0
10
112.6268489
20
-11.0531464
11
106.1011942
21
-23.3261179
0
ENDSEC
0
EOF