%TF.GenerationSoftware,KiCad,Pcbnew,8.0.0*%
%TF.CreationDate,2024-03-07T20:20:43+01:00*%
%TF.ProjectId,splitty_boy_routed,73706c69-7474-4795-9f62-6f795f726f75,v1.0.0*%
%TF.SameCoordinates,Original*%
%TF.FileFunction,Legend,Top*%
%TF.FilePolarity,Positive*%
%FSLAX46Y46*%
G04 Gerber Fmt 4.6, Leading zero omitted, Abs format (unit mm)*
G04 Created by KiCad (PCBNEW 8.0.0) date 2024-03-07 20:20:43*
%MOMM*%
%LPD*%
G01*
G04 APERTURE LIST*
%ADD10C,0.150000*%
%ADD11C,0.100000*%
%ADD12R,1.752600X1.752600*%
%ADD13C,1.752600*%
G04 APERTURE END LIST*
D10*
X271716851Y-155827445D02*
X271831137Y-155865540D01*
X271831137Y-155865540D02*
X271869232Y-155903636D01*
X271869232Y-155903636D02*
X271907328Y-155979826D01*
X271907328Y-155979826D02*
X271907328Y-156094112D01*
X271907328Y-156094112D02*
X271869232Y-156170302D01*
X271869232Y-156170302D02*
X271831137Y-156208398D01*
X271831137Y-156208398D02*
X271754947Y-156246493D01*
X271754947Y-156246493D02*
X271450185Y-156246493D01*
X271450185Y-156246493D02*
X271450185Y-155446493D01*
X271450185Y-155446493D02*
X271716851Y-155446493D01*
X271716851Y-155446493D02*
X271793042Y-155484588D01*
X271793042Y-155484588D02*
X271831137Y-155522683D01*
X271831137Y-155522683D02*
X271869232Y-155598874D01*
X271869232Y-155598874D02*
X271869232Y-155675064D01*
X271869232Y-155675064D02*
X271831137Y-155751255D01*
X271831137Y-155751255D02*
X271793042Y-155789350D01*
X271793042Y-155789350D02*
X271716851Y-155827445D01*
X271716851Y-155827445D02*
X271450185Y-155827445D01*
X272250185Y-155941731D02*
X272859709Y-155941731D01*
X272554947Y-156246493D02*
X272554947Y-155636969D01*
X271045419Y-161484586D02*
X270969229Y-161446491D01*
X270969229Y-161446491D02*
X270854943Y-161446491D01*
X270854943Y-161446491D02*
X270740657Y-161484586D01*
X270740657Y-161484586D02*
X270664467Y-161560776D01*
X270664467Y-161560776D02*
X270626372Y-161636967D01*
X270626372Y-161636967D02*
X270588276Y-161789348D01*
X270588276Y-161789348D02*
X270588276Y-161903634D01*
X270588276Y-161903634D02*
X270626372Y-162056015D01*
X270626372Y-162056015D02*
X270664467Y-162132205D01*
X270664467Y-162132205D02*
X270740657Y-162208396D01*
X270740657Y-162208396D02*
X270854943Y-162246491D01*
X270854943Y-162246491D02*
X270931134Y-162246491D01*
X270931134Y-162246491D02*
X271045419Y-162208396D01*
X271045419Y-162208396D02*
X271083515Y-162170300D01*
X271083515Y-162170300D02*
X271083515Y-161903634D01*
X271083515Y-161903634D02*
X270931134Y-161903634D01*
X271426372Y-162246491D02*
X271426372Y-161446491D01*
X271426372Y-161446491D02*
X271883515Y-162246491D01*
X271883515Y-162246491D02*
X271883515Y-161446491D01*
X272264467Y-162246491D02*
X272264467Y-161446491D01*
X272264467Y-161446491D02*
X272454943Y-161446491D01*
X272454943Y-161446491D02*
X272569229Y-161484586D01*
X272569229Y-161484586D02*
X272645419Y-161560776D01*
X272645419Y-161560776D02*
X272683514Y-161636967D01*
X272683514Y-161636967D02*
X272721610Y-161789348D01*
X272721610Y-161789348D02*
X272721610Y-161903634D01*
X272721610Y-161903634D02*
X272683514Y-162056015D01*
X272683514Y-162056015D02*
X272645419Y-162132205D01*
X272645419Y-162132205D02*
X272569229Y-162208396D01*
X272569229Y-162208396D02*
X272454943Y-162246491D01*
X272454943Y-162246491D02*
X272264467Y-162246491D01*
X259757565Y-123416495D02*
X259490898Y-123035542D01*
X259300422Y-123416495D02*
X259300422Y-122616495D01*
X259300422Y-122616495D02*
X259605184Y-122616495D01*
X259605184Y-122616495D02*
X259681374Y-122654590D01*
X259681374Y-122654590D02*
X259719469Y-122692685D01*
X259719469Y-122692685D02*
X259757565Y-122768876D01*
X259757565Y-122768876D02*
X259757565Y-122883161D01*
X259757565Y-122883161D02*
X259719469Y-122959352D01*
X259719469Y-122959352D02*
X259681374Y-122997447D01*
X259681374Y-122997447D02*
X259605184Y-123035542D01*
X259605184Y-123035542D02*
X259300422Y-123035542D01*
X260062326Y-123187923D02*
X260443279Y-123187923D01*
X259986136Y-123416495D02*
X260252803Y-122616495D01*
X260252803Y-122616495D02*
X260519469Y-123416495D01*
X260709945Y-122616495D02*
X260900421Y-123416495D01*
X260900421Y-123416495D02*
X261052802Y-122845066D01*
X261052802Y-122845066D02*
X261205183Y-123416495D01*
X261205183Y-123416495D02*
X261395660Y-122616495D01*
X259700424Y-125194591D02*
X259624234Y-125156496D01*
X259624234Y-125156496D02*
X259509948Y-125156496D01*
X259509948Y-125156496D02*
X259395662Y-125194591D01*
X259395662Y-125194591D02*
X259319472Y-125270781D01*
X259319472Y-125270781D02*
X259281377Y-125346972D01*
X259281377Y-125346972D02*
X259243281Y-125499353D01*
X259243281Y-125499353D02*
X259243281Y-125613639D01*
X259243281Y-125613639D02*
X259281377Y-125766020D01*
X259281377Y-125766020D02*
X259319472Y-125842210D01*
X259319472Y-125842210D02*
X259395662Y-125918401D01*
X259395662Y-125918401D02*
X259509948Y-125956496D01*
X259509948Y-125956496D02*
X259586139Y-125956496D01*
X259586139Y-125956496D02*
X259700424Y-125918401D01*
X259700424Y-125918401D02*
X259738520Y-125880305D01*
X259738520Y-125880305D02*
X259738520Y-125613639D01*
X259738520Y-125613639D02*
X259586139Y-125613639D01*
X260081377Y-125956496D02*
X260081377Y-125156496D01*
X260081377Y-125156496D02*
X260538520Y-125956496D01*
X260538520Y-125956496D02*
X260538520Y-125156496D01*
X260919472Y-125956496D02*
X260919472Y-125156496D01*
X260919472Y-125156496D02*
X261109948Y-125156496D01*
X261109948Y-125156496D02*
X261224234Y-125194591D01*
X261224234Y-125194591D02*
X261300424Y-125270781D01*
X261300424Y-125270781D02*
X261338519Y-125346972D01*
X261338519Y-125346972D02*
X261376615Y-125499353D01*
X261376615Y-125499353D02*
X261376615Y-125613639D01*
X261376615Y-125613639D02*
X261338519Y-125766020D01*
X261338519Y-125766020D02*
X261300424Y-125842210D01*
X261300424Y-125842210D02*
X261224234Y-125918401D01*
X261224234Y-125918401D02*
X261109948Y-125956496D01*
X261109948Y-125956496D02*
X260919472Y-125956496D01*
X259871851Y-128496495D02*
X259605184Y-128115542D01*
X259414708Y-128496495D02*
X259414708Y-127696495D01*
X259414708Y-127696495D02*
X259719470Y-127696495D01*
X259719470Y-127696495D02*
X259795660Y-127734590D01*
X259795660Y-127734590D02*
X259833755Y-127772685D01*
X259833755Y-127772685D02*
X259871851Y-127848876D01*
X259871851Y-127848876D02*
X259871851Y-127963161D01*
X259871851Y-127963161D02*
X259833755Y-128039352D01*
X259833755Y-128039352D02*
X259795660Y-128077447D01*
X259795660Y-128077447D02*
X259719470Y-128115542D01*
X259719470Y-128115542D02*
X259414708Y-128115542D01*
X260176612Y-128458400D02*
X260290898Y-128496495D01*
X260290898Y-128496495D02*
X260481374Y-128496495D01*
X260481374Y-128496495D02*
X260557565Y-128458400D01*
X260557565Y-128458400D02*
X260595660Y-128420304D01*
X260595660Y-128420304D02*
X260633755Y-128344114D01*
X260633755Y-128344114D02*
X260633755Y-128267923D01*
X260633755Y-128267923D02*
X260595660Y-128191733D01*
X260595660Y-128191733D02*
X260557565Y-128153638D01*
X260557565Y-128153638D02*
X260481374Y-128115542D01*
X260481374Y-128115542D02*
X260328993Y-128077447D01*
X260328993Y-128077447D02*
X260252803Y-128039352D01*
X260252803Y-128039352D02*
X260214708Y-128001257D01*
X260214708Y-128001257D02*
X260176612Y-127925066D01*
X260176612Y-127925066D02*
X260176612Y-127848876D01*
X260176612Y-127848876D02*
X260214708Y-127772685D01*
X260214708Y-127772685D02*
X260252803Y-127734590D01*
X260252803Y-127734590D02*
X260328993Y-127696495D01*
X260328993Y-127696495D02*
X260519470Y-127696495D01*
X260519470Y-127696495D02*
X260633755Y-127734590D01*
X260862327Y-127696495D02*
X261319470Y-127696495D01*
X261090898Y-128496495D02*
X261090898Y-127696495D01*
X259243279Y-130236495D02*
X259509946Y-131036495D01*
X259509946Y-131036495D02*
X259776612Y-130236495D01*
X260500422Y-130960304D02*
X260462326Y-130998400D01*
X260462326Y-130998400D02*
X260348041Y-131036495D01*
X260348041Y-131036495D02*
X260271850Y-131036495D01*
X260271850Y-131036495D02*
X260157564Y-130998400D01*
X260157564Y-130998400D02*
X260081374Y-130922209D01*
X260081374Y-130922209D02*
X260043279Y-130846019D01*
X260043279Y-130846019D02*
X260005183Y-130693638D01*
X260005183Y-130693638D02*
X260005183Y-130579352D01*
X260005183Y-130579352D02*
X260043279Y-130426971D01*
X260043279Y-130426971D02*
X260081374Y-130350780D01*
X260081374Y-130350780D02*
X260157564Y-130274590D01*
X260157564Y-130274590D02*
X260271850Y-130236495D01*
X260271850Y-130236495D02*
X260348041Y-130236495D01*
X260348041Y-130236495D02*
X260462326Y-130274590D01*
X260462326Y-130274590D02*
X260500422Y-130312685D01*
X261300422Y-130960304D02*
X261262326Y-130998400D01*
X261262326Y-130998400D02*
X261148041Y-131036495D01*
X261148041Y-131036495D02*
X261071850Y-131036495D01*
X261071850Y-131036495D02*
X260957564Y-130998400D01*
X260957564Y-130998400D02*
X260881374Y-130922209D01*
X260881374Y-130922209D02*
X260843279Y-130846019D01*
X260843279Y-130846019D02*
X260805183Y-130693638D01*
X260805183Y-130693638D02*
X260805183Y-130579352D01*
X260805183Y-130579352D02*
X260843279Y-130426971D01*
X260843279Y-130426971D02*
X260881374Y-130350780D01*
X260881374Y-130350780D02*
X260957564Y-130274590D01*
X260957564Y-130274590D02*
X261071850Y-130236495D01*
X261071850Y-130236495D02*
X261148041Y-130236495D01*
X261148041Y-130236495D02*
X261262326Y-130274590D01*
X261262326Y-130274590D02*
X261300422Y-130312685D01*
X259338517Y-133576495D02*
X259338517Y-132776495D01*
X259338517Y-132776495D02*
X259643279Y-132776495D01*
X259643279Y-132776495D02*
X259719469Y-132814590D01*
X259719469Y-132814590D02*
X259757564Y-132852685D01*
X259757564Y-132852685D02*
X259795660Y-132928876D01*
X259795660Y-132928876D02*
X259795660Y-133043161D01*
X259795660Y-133043161D02*
X259757564Y-133119352D01*
X259757564Y-133119352D02*
X259719469Y-133157447D01*
X259719469Y-133157447D02*
X259643279Y-133195542D01*
X259643279Y-133195542D02*
X259338517Y-133195542D01*
X260100421Y-132852685D02*
X260138517Y-132814590D01*
X260138517Y-132814590D02*
X260214707Y-132776495D01*
X260214707Y-132776495D02*
X260405183Y-132776495D01*
X260405183Y-132776495D02*
X260481374Y-132814590D01*
X260481374Y-132814590D02*
X260519469Y-132852685D01*
X260519469Y-132852685D02*
X260557564Y-132928876D01*
X260557564Y-132928876D02*
X260557564Y-133005066D01*
X260557564Y-133005066D02*
X260519469Y-133119352D01*
X260519469Y-133119352D02*
X260062326Y-133576495D01*
X260062326Y-133576495D02*
X260557564Y-133576495D01*
X261319469Y-133576495D02*
X260862326Y-133576495D01*
X261090898Y-133576495D02*
X261090898Y-132776495D01*
X261090898Y-132776495D02*
X261014707Y-132890780D01*
X261014707Y-132890780D02*
X260938517Y-132966971D01*
X260938517Y-132966971D02*
X260862326Y-133005066D01*
X259338517Y-136116495D02*
X259338517Y-135316495D01*
X259338517Y-135316495D02*
X259643279Y-135316495D01*
X259643279Y-135316495D02*
X259719469Y-135354590D01*
X259719469Y-135354590D02*
X259757564Y-135392685D01*
X259757564Y-135392685D02*
X259795660Y-135468876D01*
X259795660Y-135468876D02*
X259795660Y-135583161D01*
X259795660Y-135583161D02*
X259757564Y-135659352D01*
X259757564Y-135659352D02*
X259719469Y-135697447D01*
X259719469Y-135697447D02*
X259643279Y-135735542D01*
X259643279Y-135735542D02*
X259338517Y-135735542D01*
X260100421Y-135392685D02*
X260138517Y-135354590D01*
X260138517Y-135354590D02*
X260214707Y-135316495D01*
X260214707Y-135316495D02*
X260405183Y-135316495D01*
X260405183Y-135316495D02*
X260481374Y-135354590D01*
X260481374Y-135354590D02*
X260519469Y-135392685D01*
X260519469Y-135392685D02*
X260557564Y-135468876D01*
X260557564Y-135468876D02*
X260557564Y-135545066D01*
X260557564Y-135545066D02*
X260519469Y-135659352D01*
X260519469Y-135659352D02*
X260062326Y-136116495D01*
X260062326Y-136116495D02*
X260557564Y-136116495D01*
X261052803Y-135316495D02*
X261128993Y-135316495D01*
X261128993Y-135316495D02*
X261205184Y-135354590D01*
X261205184Y-135354590D02*
X261243279Y-135392685D01*
X261243279Y-135392685D02*
X261281374Y-135468876D01*
X261281374Y-135468876D02*
X261319469Y-135621257D01*
X261319469Y-135621257D02*
X261319469Y-135811733D01*
X261319469Y-135811733D02*
X261281374Y-135964114D01*
X261281374Y-135964114D02*
X261243279Y-136040304D01*
X261243279Y-136040304D02*
X261205184Y-136078400D01*
X261205184Y-136078400D02*
X261128993Y-136116495D01*
X261128993Y-136116495D02*
X261052803Y-136116495D01*
X261052803Y-136116495D02*
X260976612Y-136078400D01*
X260976612Y-136078400D02*
X260938517Y-136040304D01*
X260938517Y-136040304D02*
X260900422Y-135964114D01*
X260900422Y-135964114D02*
X260862326Y-135811733D01*
X260862326Y-135811733D02*
X260862326Y-135621257D01*
X260862326Y-135621257D02*
X260900422Y-135468876D01*
X260900422Y-135468876D02*
X260938517Y-135392685D01*
X260938517Y-135392685D02*
X260976612Y-135354590D01*
X260976612Y-135354590D02*
X261052803Y-135316495D01*
X259338517Y-138656495D02*
X259338517Y-137856495D01*
X259338517Y-137856495D02*
X259643279Y-137856495D01*
X259643279Y-137856495D02*
X259719469Y-137894590D01*
X259719469Y-137894590D02*
X259757564Y-137932685D01*
X259757564Y-137932685D02*
X259795660Y-138008876D01*
X259795660Y-138008876D02*
X259795660Y-138123161D01*
X259795660Y-138123161D02*
X259757564Y-138199352D01*
X259757564Y-138199352D02*
X259719469Y-138237447D01*
X259719469Y-138237447D02*
X259643279Y-138275542D01*
X259643279Y-138275542D02*
X259338517Y-138275542D01*
X260557564Y-138656495D02*
X260100421Y-138656495D01*
X260328993Y-138656495D02*
X260328993Y-137856495D01*
X260328993Y-137856495D02*
X260252802Y-137970780D01*
X260252802Y-137970780D02*
X260176612Y-138046971D01*
X260176612Y-138046971D02*
X260100421Y-138085066D01*
X260938517Y-138656495D02*
X261090898Y-138656495D01*
X261090898Y-138656495D02*
X261167088Y-138618400D01*
X261167088Y-138618400D02*
X261205184Y-138580304D01*
X261205184Y-138580304D02*
X261281374Y-138466019D01*
X261281374Y-138466019D02*
X261319469Y-138313638D01*
X261319469Y-138313638D02*
X261319469Y-138008876D01*
X261319469Y-138008876D02*
X261281374Y-137932685D01*
X261281374Y-137932685D02*
X261243279Y-137894590D01*
X261243279Y-137894590D02*
X261167088Y-137856495D01*
X261167088Y-137856495D02*
X261014707Y-137856495D01*
X261014707Y-137856495D02*
X260938517Y-137894590D01*
X260938517Y-137894590D02*
X260900422Y-137932685D01*
X260900422Y-137932685D02*
X260862326Y-138008876D01*
X260862326Y-138008876D02*
X260862326Y-138199352D01*
X260862326Y-138199352D02*
X260900422Y-138275542D01*
X260900422Y-138275542D02*
X260938517Y-138313638D01*
X260938517Y-138313638D02*
X261014707Y-138351733D01*
X261014707Y-138351733D02*
X261167088Y-138351733D01*
X261167088Y-138351733D02*
X261243279Y-138313638D01*
X261243279Y-138313638D02*
X261281374Y-138275542D01*
X261281374Y-138275542D02*
X261319469Y-138199352D01*
X259338517Y-141196495D02*
X259338517Y-140396495D01*
X259338517Y-140396495D02*
X259643279Y-140396495D01*
X259643279Y-140396495D02*
X259719469Y-140434590D01*
X259719469Y-140434590D02*
X259757564Y-140472685D01*
X259757564Y-140472685D02*
X259795660Y-140548876D01*
X259795660Y-140548876D02*
X259795660Y-140663161D01*
X259795660Y-140663161D02*
X259757564Y-140739352D01*
X259757564Y-140739352D02*
X259719469Y-140777447D01*
X259719469Y-140777447D02*
X259643279Y-140815542D01*
X259643279Y-140815542D02*
X259338517Y-140815542D01*
X260557564Y-141196495D02*
X260100421Y-141196495D01*
X260328993Y-141196495D02*
X260328993Y-140396495D01*
X260328993Y-140396495D02*
X260252802Y-140510780D01*
X260252802Y-140510780D02*
X260176612Y-140586971D01*
X260176612Y-140586971D02*
X260100421Y-140625066D01*
X261014707Y-140739352D02*
X260938517Y-140701257D01*
X260938517Y-140701257D02*
X260900422Y-140663161D01*
X260900422Y-140663161D02*
X260862326Y-140586971D01*
X260862326Y-140586971D02*
X260862326Y-140548876D01*
X260862326Y-140548876D02*
X260900422Y-140472685D01*
X260900422Y-140472685D02*
X260938517Y-140434590D01*
X260938517Y-140434590D02*
X261014707Y-140396495D01*
X261014707Y-140396495D02*
X261167088Y-140396495D01*
X261167088Y-140396495D02*
X261243279Y-140434590D01*
X261243279Y-140434590D02*
X261281374Y-140472685D01*
X261281374Y-140472685D02*
X261319469Y-140548876D01*
X261319469Y-140548876D02*
X261319469Y-140586971D01*
X261319469Y-140586971D02*
X261281374Y-140663161D01*
X261281374Y-140663161D02*
X261243279Y-140701257D01*
X261243279Y-140701257D02*
X261167088Y-140739352D01*
X261167088Y-140739352D02*
X261014707Y-140739352D01*
X261014707Y-140739352D02*
X260938517Y-140777447D01*
X260938517Y-140777447D02*
X260900422Y-140815542D01*
X260900422Y-140815542D02*
X260862326Y-140891733D01*
X260862326Y-140891733D02*
X260862326Y-141044114D01*
X260862326Y-141044114D02*
X260900422Y-141120304D01*
X260900422Y-141120304D02*
X260938517Y-141158400D01*
X260938517Y-141158400D02*
X261014707Y-141196495D01*
X261014707Y-141196495D02*
X261167088Y-141196495D01*
X261167088Y-141196495D02*
X261243279Y-141158400D01*
X261243279Y-141158400D02*
X261281374Y-141120304D01*
X261281374Y-141120304D02*
X261319469Y-141044114D01*
X261319469Y-141044114D02*
X261319469Y-140891733D01*
X261319469Y-140891733D02*
X261281374Y-140815542D01*
X261281374Y-140815542D02*
X261243279Y-140777447D01*
X261243279Y-140777447D02*
X261167088Y-140739352D01*
X259338517Y-143736495D02*
X259338517Y-142936495D01*
X259338517Y-142936495D02*
X259643279Y-142936495D01*
X259643279Y-142936495D02*
X259719469Y-142974590D01*
X259719469Y-142974590D02*
X259757564Y-143012685D01*
X259757564Y-143012685D02*
X259795660Y-143088876D01*
X259795660Y-143088876D02*
X259795660Y-143203161D01*
X259795660Y-143203161D02*
X259757564Y-143279352D01*
X259757564Y-143279352D02*
X259719469Y-143317447D01*
X259719469Y-143317447D02*
X259643279Y-143355542D01*
X259643279Y-143355542D02*
X259338517Y-143355542D01*
X260557564Y-143736495D02*
X260100421Y-143736495D01*
X260328993Y-143736495D02*
X260328993Y-142936495D01*
X260328993Y-142936495D02*
X260252802Y-143050780D01*
X260252802Y-143050780D02*
X260176612Y-143126971D01*
X260176612Y-143126971D02*
X260100421Y-143165066D01*
X261281374Y-142936495D02*
X260900422Y-142936495D01*
X260900422Y-142936495D02*
X260862326Y-143317447D01*
X260862326Y-143317447D02*
X260900422Y-143279352D01*
X260900422Y-143279352D02*
X260976612Y-143241257D01*
X260976612Y-143241257D02*
X261167088Y-143241257D01*
X261167088Y-143241257D02*
X261243279Y-143279352D01*
X261243279Y-143279352D02*
X261281374Y-143317447D01*
X261281374Y-143317447D02*
X261319469Y-143393638D01*
X261319469Y-143393638D02*
X261319469Y-143584114D01*
X261319469Y-143584114D02*
X261281374Y-143660304D01*
X261281374Y-143660304D02*
X261243279Y-143698400D01*
X261243279Y-143698400D02*
X261167088Y-143736495D01*
X261167088Y-143736495D02*
X260976612Y-143736495D01*
X260976612Y-143736495D02*
X260900422Y-143698400D01*
X260900422Y-143698400D02*
X260862326Y-143660304D01*
X259338517Y-146276495D02*
X259338517Y-145476495D01*
X259338517Y-145476495D02*
X259643279Y-145476495D01*
X259643279Y-145476495D02*
X259719469Y-145514590D01*
X259719469Y-145514590D02*
X259757564Y-145552685D01*
X259757564Y-145552685D02*
X259795660Y-145628876D01*
X259795660Y-145628876D02*
X259795660Y-145743161D01*
X259795660Y-145743161D02*
X259757564Y-145819352D01*
X259757564Y-145819352D02*
X259719469Y-145857447D01*
X259719469Y-145857447D02*
X259643279Y-145895542D01*
X259643279Y-145895542D02*
X259338517Y-145895542D01*
X260557564Y-146276495D02*
X260100421Y-146276495D01*
X260328993Y-146276495D02*
X260328993Y-145476495D01*
X260328993Y-145476495D02*
X260252802Y-145590780D01*
X260252802Y-145590780D02*
X260176612Y-145666971D01*
X260176612Y-145666971D02*
X260100421Y-145705066D01*
X261243279Y-145743161D02*
X261243279Y-146276495D01*
X261052803Y-145438400D02*
X260862326Y-146009828D01*
X260862326Y-146009828D02*
X261357565Y-146009828D01*
X259338518Y-148816495D02*
X259338518Y-148016495D01*
X259338518Y-148016495D02*
X259643280Y-148016495D01*
X259643280Y-148016495D02*
X259719470Y-148054590D01*
X259719470Y-148054590D02*
X259757565Y-148092685D01*
X259757565Y-148092685D02*
X259795661Y-148168876D01*
X259795661Y-148168876D02*
X259795661Y-148283161D01*
X259795661Y-148283161D02*
X259757565Y-148359352D01*
X259757565Y-148359352D02*
X259719470Y-148397447D01*
X259719470Y-148397447D02*
X259643280Y-148435542D01*
X259643280Y-148435542D02*
X259338518Y-148435542D01*
X260557565Y-148816495D02*
X260100422Y-148816495D01*
X260328994Y-148816495D02*
X260328994Y-148016495D01*
X260328994Y-148016495D02*
X260252803Y-148130780D01*
X260252803Y-148130780D02*
X260176613Y-148206971D01*
X260176613Y-148206971D02*
X260100422Y-148245066D01*
X261243280Y-148016495D02*
X261090899Y-148016495D01*
X261090899Y-148016495D02*
X261014708Y-148054590D01*
X261014708Y-148054590D02*
X260976613Y-148092685D01*
X260976613Y-148092685D02*
X260900423Y-148206971D01*
X260900423Y-148206971D02*
X260862327Y-148359352D01*
X260862327Y-148359352D02*
X260862327Y-148664114D01*
X260862327Y-148664114D02*
X260900423Y-148740304D01*
X260900423Y-148740304D02*
X260938518Y-148778400D01*
X260938518Y-148778400D02*
X261014708Y-148816495D01*
X261014708Y-148816495D02*
X261167089Y-148816495D01*
X261167089Y-148816495D02*
X261243280Y-148778400D01*
X261243280Y-148778400D02*
X261281375Y-148740304D01*
X261281375Y-148740304D02*
X261319470Y-148664114D01*
X261319470Y-148664114D02*
X261319470Y-148473638D01*
X261319470Y-148473638D02*
X261281375Y-148397447D01*
X261281375Y-148397447D02*
X261243280Y-148359352D01*
X261243280Y-148359352D02*
X261167089Y-148321257D01*
X261167089Y-148321257D02*
X261014708Y-148321257D01*
X261014708Y-148321257D02*
X260938518Y-148359352D01*
X260938518Y-148359352D02*
X260900423Y-148397447D01*
X260900423Y-148397447D02*
X260862327Y-148473638D01*
X259338517Y-151356495D02*
X259338517Y-150556495D01*
X259338517Y-150556495D02*
X259643279Y-150556495D01*
X259643279Y-150556495D02*
X259719469Y-150594590D01*
X259719469Y-150594590D02*
X259757564Y-150632685D01*
X259757564Y-150632685D02*
X259795660Y-150708876D01*
X259795660Y-150708876D02*
X259795660Y-150823161D01*
X259795660Y-150823161D02*
X259757564Y-150899352D01*
X259757564Y-150899352D02*
X259719469Y-150937447D01*
X259719469Y-150937447D02*
X259643279Y-150975542D01*
X259643279Y-150975542D02*
X259338517Y-150975542D01*
X260557564Y-151356495D02*
X260100421Y-151356495D01*
X260328993Y-151356495D02*
X260328993Y-150556495D01*
X260328993Y-150556495D02*
X260252802Y-150670780D01*
X260252802Y-150670780D02*
X260176612Y-150746971D01*
X260176612Y-150746971D02*
X260100421Y-150785066D01*
X261052803Y-150556495D02*
X261128993Y-150556495D01*
X261128993Y-150556495D02*
X261205184Y-150594590D01*
X261205184Y-150594590D02*
X261243279Y-150632685D01*
X261243279Y-150632685D02*
X261281374Y-150708876D01*
X261281374Y-150708876D02*
X261319469Y-150861257D01*
X261319469Y-150861257D02*
X261319469Y-151051733D01*
X261319469Y-151051733D02*
X261281374Y-151204114D01*
X261281374Y-151204114D02*
X261243279Y-151280304D01*
X261243279Y-151280304D02*
X261205184Y-151318400D01*
X261205184Y-151318400D02*
X261128993Y-151356495D01*
X261128993Y-151356495D02*
X261052803Y-151356495D01*
X261052803Y-151356495D02*
X260976612Y-151318400D01*
X260976612Y-151318400D02*
X260938517Y-151280304D01*
X260938517Y-151280304D02*
X260900422Y-151204114D01*
X260900422Y-151204114D02*
X260862326Y-151051733D01*
X260862326Y-151051733D02*
X260862326Y-150861257D01*
X260862326Y-150861257D02*
X260900422Y-150708876D01*
X260900422Y-150708876D02*
X260938517Y-150632685D01*
X260938517Y-150632685D02*
X260976612Y-150594590D01*
X260976612Y-150594590D02*
X261052803Y-150556495D01*
X268938517Y-123416495D02*
X268938517Y-122616495D01*
X268938517Y-122616495D02*
X269243279Y-122616495D01*
X269243279Y-122616495D02*
X269319469Y-122654590D01*
X269319469Y-122654590D02*
X269357564Y-122692685D01*
X269357564Y-122692685D02*
X269395660Y-122768876D01*
X269395660Y-122768876D02*
X269395660Y-122883161D01*
X269395660Y-122883161D02*
X269357564Y-122959352D01*
X269357564Y-122959352D02*
X269319469Y-122997447D01*
X269319469Y-122997447D02*
X269243279Y-123035542D01*
X269243279Y-123035542D02*
X268938517Y-123035542D01*
X269890898Y-122616495D02*
X269967088Y-122616495D01*
X269967088Y-122616495D02*
X270043279Y-122654590D01*
X270043279Y-122654590D02*
X270081374Y-122692685D01*
X270081374Y-122692685D02*
X270119469Y-122768876D01*
X270119469Y-122768876D02*
X270157564Y-122921257D01*
X270157564Y-122921257D02*
X270157564Y-123111733D01*
X270157564Y-123111733D02*
X270119469Y-123264114D01*
X270119469Y-123264114D02*
X270081374Y-123340304D01*
X270081374Y-123340304D02*
X270043279Y-123378400D01*
X270043279Y-123378400D02*
X269967088Y-123416495D01*
X269967088Y-123416495D02*
X269890898Y-123416495D01*
X269890898Y-123416495D02*
X269814707Y-123378400D01*
X269814707Y-123378400D02*
X269776612Y-123340304D01*
X269776612Y-123340304D02*
X269738517Y-123264114D01*
X269738517Y-123264114D02*
X269700421Y-123111733D01*
X269700421Y-123111733D02*
X269700421Y-122921257D01*
X269700421Y-122921257D02*
X269738517Y-122768876D01*
X269738517Y-122768876D02*
X269776612Y-122692685D01*
X269776612Y-122692685D02*
X269814707Y-122654590D01*
X269814707Y-122654590D02*
X269890898Y-122616495D01*
X270919469Y-123416495D02*
X270462326Y-123416495D01*
X270690898Y-123416495D02*
X270690898Y-122616495D01*
X270690898Y-122616495D02*
X270614707Y-122730780D01*
X270614707Y-122730780D02*
X270538517Y-122806971D01*
X270538517Y-122806971D02*
X270462326Y-122845066D01*
X268938516Y-125956495D02*
X268938516Y-125156495D01*
X268938516Y-125156495D02*
X269243278Y-125156495D01*
X269243278Y-125156495D02*
X269319468Y-125194590D01*
X269319468Y-125194590D02*
X269357563Y-125232685D01*
X269357563Y-125232685D02*
X269395659Y-125308876D01*
X269395659Y-125308876D02*
X269395659Y-125423161D01*
X269395659Y-125423161D02*
X269357563Y-125499352D01*
X269357563Y-125499352D02*
X269319468Y-125537447D01*
X269319468Y-125537447D02*
X269243278Y-125575542D01*
X269243278Y-125575542D02*
X268938516Y-125575542D01*
X269890897Y-125156495D02*
X269967087Y-125156495D01*
X269967087Y-125156495D02*
X270043278Y-125194590D01*
X270043278Y-125194590D02*
X270081373Y-125232685D01*
X270081373Y-125232685D02*
X270119468Y-125308876D01*
X270119468Y-125308876D02*
X270157563Y-125461257D01*
X270157563Y-125461257D02*
X270157563Y-125651733D01*
X270157563Y-125651733D02*
X270119468Y-125804114D01*
X270119468Y-125804114D02*
X270081373Y-125880304D01*
X270081373Y-125880304D02*
X270043278Y-125918400D01*
X270043278Y-125918400D02*
X269967087Y-125956495D01*
X269967087Y-125956495D02*
X269890897Y-125956495D01*
X269890897Y-125956495D02*
X269814706Y-125918400D01*
X269814706Y-125918400D02*
X269776611Y-125880304D01*
X269776611Y-125880304D02*
X269738516Y-125804114D01*
X269738516Y-125804114D02*
X269700420Y-125651733D01*
X269700420Y-125651733D02*
X269700420Y-125461257D01*
X269700420Y-125461257D02*
X269738516Y-125308876D01*
X269738516Y-125308876D02*
X269776611Y-125232685D01*
X269776611Y-125232685D02*
X269814706Y-125194590D01*
X269814706Y-125194590D02*
X269890897Y-125156495D01*
X270652802Y-125156495D02*
X270728992Y-125156495D01*
X270728992Y-125156495D02*
X270805183Y-125194590D01*
X270805183Y-125194590D02*
X270843278Y-125232685D01*
X270843278Y-125232685D02*
X270881373Y-125308876D01*
X270881373Y-125308876D02*
X270919468Y-125461257D01*
X270919468Y-125461257D02*
X270919468Y-125651733D01*
X270919468Y-125651733D02*
X270881373Y-125804114D01*
X270881373Y-125804114D02*
X270843278Y-125880304D01*
X270843278Y-125880304D02*
X270805183Y-125918400D01*
X270805183Y-125918400D02*
X270728992Y-125956495D01*
X270728992Y-125956495D02*
X270652802Y-125956495D01*
X270652802Y-125956495D02*
X270576611Y-125918400D01*
X270576611Y-125918400D02*
X270538516Y-125880304D01*
X270538516Y-125880304D02*
X270500421Y-125804114D01*
X270500421Y-125804114D02*
X270462325Y-125651733D01*
X270462325Y-125651733D02*
X270462325Y-125461257D01*
X270462325Y-125461257D02*
X270500421Y-125308876D01*
X270500421Y-125308876D02*
X270538516Y-125232685D01*
X270538516Y-125232685D02*
X270576611Y-125194590D01*
X270576611Y-125194590D02*
X270652802Y-125156495D01*
X269300422Y-127734590D02*
X269224232Y-127696495D01*
X269224232Y-127696495D02*
X269109946Y-127696495D01*
X269109946Y-127696495D02*
X268995660Y-127734590D01*
X268995660Y-127734590D02*
X268919470Y-127810780D01*
X268919470Y-127810780D02*
X268881375Y-127886971D01*
X268881375Y-127886971D02*
X268843279Y-128039352D01*
X268843279Y-128039352D02*
X268843279Y-128153638D01*
X268843279Y-128153638D02*
X268881375Y-128306019D01*
X268881375Y-128306019D02*
X268919470Y-128382209D01*
X268919470Y-128382209D02*
X268995660Y-128458400D01*
X268995660Y-128458400D02*
X269109946Y-128496495D01*
X269109946Y-128496495D02*
X269186137Y-128496495D01*
X269186137Y-128496495D02*
X269300422Y-128458400D01*
X269300422Y-128458400D02*
X269338518Y-128420304D01*
X269338518Y-128420304D02*
X269338518Y-128153638D01*
X269338518Y-128153638D02*
X269186137Y-128153638D01*
X269681375Y-128496495D02*
X269681375Y-127696495D01*
X269681375Y-127696495D02*
X270138518Y-128496495D01*
X270138518Y-128496495D02*
X270138518Y-127696495D01*
X270519470Y-128496495D02*
X270519470Y-127696495D01*
X270519470Y-127696495D02*
X270709946Y-127696495D01*
X270709946Y-127696495D02*
X270824232Y-127734590D01*
X270824232Y-127734590D02*
X270900422Y-127810780D01*
X270900422Y-127810780D02*
X270938517Y-127886971D01*
X270938517Y-127886971D02*
X270976613Y-128039352D01*
X270976613Y-128039352D02*
X270976613Y-128153638D01*
X270976613Y-128153638D02*
X270938517Y-128306019D01*
X270938517Y-128306019D02*
X270900422Y-128382209D01*
X270900422Y-128382209D02*
X270824232Y-128458400D01*
X270824232Y-128458400D02*
X270709946Y-128496495D01*
X270709946Y-128496495D02*
X270519470Y-128496495D01*
X269300422Y-130274590D02*
X269224232Y-130236495D01*
X269224232Y-130236495D02*
X269109946Y-130236495D01*
X269109946Y-130236495D02*
X268995660Y-130274590D01*
X268995660Y-130274590D02*
X268919470Y-130350780D01*
X268919470Y-130350780D02*
X268881375Y-130426971D01*
X268881375Y-130426971D02*
X268843279Y-130579352D01*
X268843279Y-130579352D02*
X268843279Y-130693638D01*
X268843279Y-130693638D02*
X268881375Y-130846019D01*
X268881375Y-130846019D02*
X268919470Y-130922209D01*
X268919470Y-130922209D02*
X268995660Y-130998400D01*
X268995660Y-130998400D02*
X269109946Y-131036495D01*
X269109946Y-131036495D02*
X269186137Y-131036495D01*
X269186137Y-131036495D02*
X269300422Y-130998400D01*
X269300422Y-130998400D02*
X269338518Y-130960304D01*
X269338518Y-130960304D02*
X269338518Y-130693638D01*
X269338518Y-130693638D02*
X269186137Y-130693638D01*
X269681375Y-131036495D02*
X269681375Y-130236495D01*
X269681375Y-130236495D02*
X270138518Y-131036495D01*
X270138518Y-131036495D02*
X270138518Y-130236495D01*
X270519470Y-131036495D02*
X270519470Y-130236495D01*
X270519470Y-130236495D02*
X270709946Y-130236495D01*
X270709946Y-130236495D02*
X270824232Y-130274590D01*
X270824232Y-130274590D02*
X270900422Y-130350780D01*
X270900422Y-130350780D02*
X270938517Y-130426971D01*
X270938517Y-130426971D02*
X270976613Y-130579352D01*
X270976613Y-130579352D02*
X270976613Y-130693638D01*
X270976613Y-130693638D02*
X270938517Y-130846019D01*
X270938517Y-130846019D02*
X270900422Y-130922209D01*
X270900422Y-130922209D02*
X270824232Y-130998400D01*
X270824232Y-130998400D02*
X270709946Y-131036495D01*
X270709946Y-131036495D02*
X270519470Y-131036495D01*
X268938517Y-133576495D02*
X268938517Y-132776495D01*
X268938517Y-132776495D02*
X269243279Y-132776495D01*
X269243279Y-132776495D02*
X269319469Y-132814590D01*
X269319469Y-132814590D02*
X269357564Y-132852685D01*
X269357564Y-132852685D02*
X269395660Y-132928876D01*
X269395660Y-132928876D02*
X269395660Y-133043161D01*
X269395660Y-133043161D02*
X269357564Y-133119352D01*
X269357564Y-133119352D02*
X269319469Y-133157447D01*
X269319469Y-133157447D02*
X269243279Y-133195542D01*
X269243279Y-133195542D02*
X268938517Y-133195542D01*
X269890898Y-132776495D02*
X269967088Y-132776495D01*
X269967088Y-132776495D02*
X270043279Y-132814590D01*
X270043279Y-132814590D02*
X270081374Y-132852685D01*
X270081374Y-132852685D02*
X270119469Y-132928876D01*
X270119469Y-132928876D02*
X270157564Y-133081257D01*
X270157564Y-133081257D02*
X270157564Y-133271733D01*
X270157564Y-133271733D02*
X270119469Y-133424114D01*
X270119469Y-133424114D02*
X270081374Y-133500304D01*
X270081374Y-133500304D02*
X270043279Y-133538400D01*
X270043279Y-133538400D02*
X269967088Y-133576495D01*
X269967088Y-133576495D02*
X269890898Y-133576495D01*
X269890898Y-133576495D02*
X269814707Y-133538400D01*
X269814707Y-133538400D02*
X269776612Y-133500304D01*
X269776612Y-133500304D02*
X269738517Y-133424114D01*
X269738517Y-133424114D02*
X269700421Y-133271733D01*
X269700421Y-133271733D02*
X269700421Y-133081257D01*
X269700421Y-133081257D02*
X269738517Y-132928876D01*
X269738517Y-132928876D02*
X269776612Y-132852685D01*
X269776612Y-132852685D02*
X269814707Y-132814590D01*
X269814707Y-132814590D02*
X269890898Y-132776495D01*
X270462326Y-132852685D02*
X270500422Y-132814590D01*
X270500422Y-132814590D02*
X270576612Y-132776495D01*
X270576612Y-132776495D02*
X270767088Y-132776495D01*
X270767088Y-132776495D02*
X270843279Y-132814590D01*
X270843279Y-132814590D02*
X270881374Y-132852685D01*
X270881374Y-132852685D02*
X270919469Y-132928876D01*
X270919469Y-132928876D02*
X270919469Y-133005066D01*
X270919469Y-133005066D02*
X270881374Y-133119352D01*
X270881374Y-133119352D02*
X270424231Y-133576495D01*
X270424231Y-133576495D02*
X270919469Y-133576495D01*
X268938517Y-136116495D02*
X268938517Y-135316495D01*
X268938517Y-135316495D02*
X269243279Y-135316495D01*
X269243279Y-135316495D02*
X269319469Y-135354590D01*
X269319469Y-135354590D02*
X269357564Y-135392685D01*
X269357564Y-135392685D02*
X269395660Y-135468876D01*
X269395660Y-135468876D02*
X269395660Y-135583161D01*
X269395660Y-135583161D02*
X269357564Y-135659352D01*
X269357564Y-135659352D02*
X269319469Y-135697447D01*
X269319469Y-135697447D02*
X269243279Y-135735542D01*
X269243279Y-135735542D02*
X268938517Y-135735542D01*
X269890898Y-135316495D02*
X269967088Y-135316495D01*
X269967088Y-135316495D02*
X270043279Y-135354590D01*
X270043279Y-135354590D02*
X270081374Y-135392685D01*
X270081374Y-135392685D02*
X270119469Y-135468876D01*
X270119469Y-135468876D02*
X270157564Y-135621257D01*
X270157564Y-135621257D02*
X270157564Y-135811733D01*
X270157564Y-135811733D02*
X270119469Y-135964114D01*
X270119469Y-135964114D02*
X270081374Y-136040304D01*
X270081374Y-136040304D02*
X270043279Y-136078400D01*
X270043279Y-136078400D02*
X269967088Y-136116495D01*
X269967088Y-136116495D02*
X269890898Y-136116495D01*
X269890898Y-136116495D02*
X269814707Y-136078400D01*
X269814707Y-136078400D02*
X269776612Y-136040304D01*
X269776612Y-136040304D02*
X269738517Y-135964114D01*
X269738517Y-135964114D02*
X269700421Y-135811733D01*
X269700421Y-135811733D02*
X269700421Y-135621257D01*
X269700421Y-135621257D02*
X269738517Y-135468876D01*
X269738517Y-135468876D02*
X269776612Y-135392685D01*
X269776612Y-135392685D02*
X269814707Y-135354590D01*
X269814707Y-135354590D02*
X269890898Y-135316495D01*
X270424231Y-135316495D02*
X270919469Y-135316495D01*
X270919469Y-135316495D02*
X270652803Y-135621257D01*
X270652803Y-135621257D02*
X270767088Y-135621257D01*
X270767088Y-135621257D02*
X270843279Y-135659352D01*
X270843279Y-135659352D02*
X270881374Y-135697447D01*
X270881374Y-135697447D02*
X270919469Y-135773638D01*
X270919469Y-135773638D02*
X270919469Y-135964114D01*
X270919469Y-135964114D02*
X270881374Y-136040304D01*
X270881374Y-136040304D02*
X270843279Y-136078400D01*
X270843279Y-136078400D02*
X270767088Y-136116495D01*
X270767088Y-136116495D02*
X270538517Y-136116495D01*
X270538517Y-136116495D02*
X270462326Y-136078400D01*
X270462326Y-136078400D02*
X270424231Y-136040304D01*
X268938517Y-138656495D02*
X268938517Y-137856495D01*
X268938517Y-137856495D02*
X269243279Y-137856495D01*
X269243279Y-137856495D02*
X269319469Y-137894590D01*
X269319469Y-137894590D02*
X269357564Y-137932685D01*
X269357564Y-137932685D02*
X269395660Y-138008876D01*
X269395660Y-138008876D02*
X269395660Y-138123161D01*
X269395660Y-138123161D02*
X269357564Y-138199352D01*
X269357564Y-138199352D02*
X269319469Y-138237447D01*
X269319469Y-138237447D02*
X269243279Y-138275542D01*
X269243279Y-138275542D02*
X268938517Y-138275542D01*
X269890898Y-137856495D02*
X269967088Y-137856495D01*
X269967088Y-137856495D02*
X270043279Y-137894590D01*
X270043279Y-137894590D02*
X270081374Y-137932685D01*
X270081374Y-137932685D02*
X270119469Y-138008876D01*
X270119469Y-138008876D02*
X270157564Y-138161257D01*
X270157564Y-138161257D02*
X270157564Y-138351733D01*
X270157564Y-138351733D02*
X270119469Y-138504114D01*
X270119469Y-138504114D02*
X270081374Y-138580304D01*
X270081374Y-138580304D02*
X270043279Y-138618400D01*
X270043279Y-138618400D02*
X269967088Y-138656495D01*
X269967088Y-138656495D02*
X269890898Y-138656495D01*
X269890898Y-138656495D02*
X269814707Y-138618400D01*
X269814707Y-138618400D02*
X269776612Y-138580304D01*
X269776612Y-138580304D02*
X269738517Y-138504114D01*
X269738517Y-138504114D02*
X269700421Y-138351733D01*
X269700421Y-138351733D02*
X269700421Y-138161257D01*
X269700421Y-138161257D02*
X269738517Y-138008876D01*
X269738517Y-138008876D02*
X269776612Y-137932685D01*
X269776612Y-137932685D02*
X269814707Y-137894590D01*
X269814707Y-137894590D02*
X269890898Y-137856495D01*
X270843279Y-138123161D02*
X270843279Y-138656495D01*
X270652803Y-137818400D02*
X270462326Y-138389828D01*
X270462326Y-138389828D02*
X270957565Y-138389828D01*
X268938517Y-141196495D02*
X268938517Y-140396495D01*
X268938517Y-140396495D02*
X269243279Y-140396495D01*
X269243279Y-140396495D02*
X269319469Y-140434590D01*
X269319469Y-140434590D02*
X269357564Y-140472685D01*
X269357564Y-140472685D02*
X269395660Y-140548876D01*
X269395660Y-140548876D02*
X269395660Y-140663161D01*
X269395660Y-140663161D02*
X269357564Y-140739352D01*
X269357564Y-140739352D02*
X269319469Y-140777447D01*
X269319469Y-140777447D02*
X269243279Y-140815542D01*
X269243279Y-140815542D02*
X268938517Y-140815542D01*
X269890898Y-140396495D02*
X269967088Y-140396495D01*
X269967088Y-140396495D02*
X270043279Y-140434590D01*
X270043279Y-140434590D02*
X270081374Y-140472685D01*
X270081374Y-140472685D02*
X270119469Y-140548876D01*
X270119469Y-140548876D02*
X270157564Y-140701257D01*
X270157564Y-140701257D02*
X270157564Y-140891733D01*
X270157564Y-140891733D02*
X270119469Y-141044114D01*
X270119469Y-141044114D02*
X270081374Y-141120304D01*
X270081374Y-141120304D02*
X270043279Y-141158400D01*
X270043279Y-141158400D02*
X269967088Y-141196495D01*
X269967088Y-141196495D02*
X269890898Y-141196495D01*
X269890898Y-141196495D02*
X269814707Y-141158400D01*
X269814707Y-141158400D02*
X269776612Y-141120304D01*
X269776612Y-141120304D02*
X269738517Y-141044114D01*
X269738517Y-141044114D02*
X269700421Y-140891733D01*
X269700421Y-140891733D02*
X269700421Y-140701257D01*
X269700421Y-140701257D02*
X269738517Y-140548876D01*
X269738517Y-140548876D02*
X269776612Y-140472685D01*
X269776612Y-140472685D02*
X269814707Y-140434590D01*
X269814707Y-140434590D02*
X269890898Y-140396495D01*
X270881374Y-140396495D02*
X270500422Y-140396495D01*
X270500422Y-140396495D02*
X270462326Y-140777447D01*
X270462326Y-140777447D02*
X270500422Y-140739352D01*
X270500422Y-140739352D02*
X270576612Y-140701257D01*
X270576612Y-140701257D02*
X270767088Y-140701257D01*
X270767088Y-140701257D02*
X270843279Y-140739352D01*
X270843279Y-140739352D02*
X270881374Y-140777447D01*
X270881374Y-140777447D02*
X270919469Y-140853638D01*
X270919469Y-140853638D02*
X270919469Y-141044114D01*
X270919469Y-141044114D02*
X270881374Y-141120304D01*
X270881374Y-141120304D02*
X270843279Y-141158400D01*
X270843279Y-141158400D02*
X270767088Y-141196495D01*
X270767088Y-141196495D02*
X270576612Y-141196495D01*
X270576612Y-141196495D02*
X270500422Y-141158400D01*
X270500422Y-141158400D02*
X270462326Y-141120304D01*
X268938517Y-143736495D02*
X268938517Y-142936495D01*
X268938517Y-142936495D02*
X269243279Y-142936495D01*
X269243279Y-142936495D02*
X269319469Y-142974590D01*
X269319469Y-142974590D02*
X269357564Y-143012685D01*
X269357564Y-143012685D02*
X269395660Y-143088876D01*
X269395660Y-143088876D02*
X269395660Y-143203161D01*
X269395660Y-143203161D02*
X269357564Y-143279352D01*
X269357564Y-143279352D02*
X269319469Y-143317447D01*
X269319469Y-143317447D02*
X269243279Y-143355542D01*
X269243279Y-143355542D02*
X268938517Y-143355542D01*
X269890898Y-142936495D02*
X269967088Y-142936495D01*
X269967088Y-142936495D02*
X270043279Y-142974590D01*
X270043279Y-142974590D02*
X270081374Y-143012685D01*
X270081374Y-143012685D02*
X270119469Y-143088876D01*
X270119469Y-143088876D02*
X270157564Y-143241257D01*
X270157564Y-143241257D02*
X270157564Y-143431733D01*
X270157564Y-143431733D02*
X270119469Y-143584114D01*
X270119469Y-143584114D02*
X270081374Y-143660304D01*
X270081374Y-143660304D02*
X270043279Y-143698400D01*
X270043279Y-143698400D02*
X269967088Y-143736495D01*
X269967088Y-143736495D02*
X269890898Y-143736495D01*
X269890898Y-143736495D02*
X269814707Y-143698400D01*
X269814707Y-143698400D02*
X269776612Y-143660304D01*
X269776612Y-143660304D02*
X269738517Y-143584114D01*
X269738517Y-143584114D02*
X269700421Y-143431733D01*
X269700421Y-143431733D02*
X269700421Y-143241257D01*
X269700421Y-143241257D02*
X269738517Y-143088876D01*
X269738517Y-143088876D02*
X269776612Y-143012685D01*
X269776612Y-143012685D02*
X269814707Y-142974590D01*
X269814707Y-142974590D02*
X269890898Y-142936495D01*
X270843279Y-142936495D02*
X270690898Y-142936495D01*
X270690898Y-142936495D02*
X270614707Y-142974590D01*
X270614707Y-142974590D02*
X270576612Y-143012685D01*
X270576612Y-143012685D02*
X270500422Y-143126971D01*
X270500422Y-143126971D02*
X270462326Y-143279352D01*
X270462326Y-143279352D02*
X270462326Y-143584114D01*
X270462326Y-143584114D02*
X270500422Y-143660304D01*
X270500422Y-143660304D02*
X270538517Y-143698400D01*
X270538517Y-143698400D02*
X270614707Y-143736495D01*
X270614707Y-143736495D02*
X270767088Y-143736495D01*
X270767088Y-143736495D02*
X270843279Y-143698400D01*
X270843279Y-143698400D02*
X270881374Y-143660304D01*
X270881374Y-143660304D02*
X270919469Y-143584114D01*
X270919469Y-143584114D02*
X270919469Y-143393638D01*
X270919469Y-143393638D02*
X270881374Y-143317447D01*
X270881374Y-143317447D02*
X270843279Y-143279352D01*
X270843279Y-143279352D02*
X270767088Y-143241257D01*
X270767088Y-143241257D02*
X270614707Y-143241257D01*
X270614707Y-143241257D02*
X270538517Y-143279352D01*
X270538517Y-143279352D02*
X270500422Y-143317447D01*
X270500422Y-143317447D02*
X270462326Y-143393638D01*
X268938517Y-146276495D02*
X268938517Y-145476495D01*
X268938517Y-145476495D02*
X269243279Y-145476495D01*
X269243279Y-145476495D02*
X269319469Y-145514590D01*
X269319469Y-145514590D02*
X269357564Y-145552685D01*
X269357564Y-145552685D02*
X269395660Y-145628876D01*
X269395660Y-145628876D02*
X269395660Y-145743161D01*
X269395660Y-145743161D02*
X269357564Y-145819352D01*
X269357564Y-145819352D02*
X269319469Y-145857447D01*
X269319469Y-145857447D02*
X269243279Y-145895542D01*
X269243279Y-145895542D02*
X268938517Y-145895542D01*
X269890898Y-145476495D02*
X269967088Y-145476495D01*
X269967088Y-145476495D02*
X270043279Y-145514590D01*
X270043279Y-145514590D02*
X270081374Y-145552685D01*
X270081374Y-145552685D02*
X270119469Y-145628876D01*
X270119469Y-145628876D02*
X270157564Y-145781257D01*
X270157564Y-145781257D02*
X270157564Y-145971733D01*
X270157564Y-145971733D02*
X270119469Y-146124114D01*
X270119469Y-146124114D02*
X270081374Y-146200304D01*
X270081374Y-146200304D02*
X270043279Y-146238400D01*
X270043279Y-146238400D02*
X269967088Y-146276495D01*
X269967088Y-146276495D02*
X269890898Y-146276495D01*
X269890898Y-146276495D02*
X269814707Y-146238400D01*
X269814707Y-146238400D02*
X269776612Y-146200304D01*
X269776612Y-146200304D02*
X269738517Y-146124114D01*
X269738517Y-146124114D02*
X269700421Y-145971733D01*
X269700421Y-145971733D02*
X269700421Y-145781257D01*
X269700421Y-145781257D02*
X269738517Y-145628876D01*
X269738517Y-145628876D02*
X269776612Y-145552685D01*
X269776612Y-145552685D02*
X269814707Y-145514590D01*
X269814707Y-145514590D02*
X269890898Y-145476495D01*
X270424231Y-145476495D02*
X270957565Y-145476495D01*
X270957565Y-145476495D02*
X270614707Y-146276495D01*
X268938515Y-148816494D02*
X268938515Y-148016494D01*
X268938515Y-148016494D02*
X269243277Y-148016494D01*
X269243277Y-148016494D02*
X269319467Y-148054589D01*
X269319467Y-148054589D02*
X269357562Y-148092684D01*
X269357562Y-148092684D02*
X269395658Y-148168875D01*
X269395658Y-148168875D02*
X269395658Y-148283160D01*
X269395658Y-148283160D02*
X269357562Y-148359351D01*
X269357562Y-148359351D02*
X269319467Y-148397446D01*
X269319467Y-148397446D02*
X269243277Y-148435541D01*
X269243277Y-148435541D02*
X268938515Y-148435541D01*
X269890896Y-148016494D02*
X269967086Y-148016494D01*
X269967086Y-148016494D02*
X270043277Y-148054589D01*
X270043277Y-148054589D02*
X270081372Y-148092684D01*
X270081372Y-148092684D02*
X270119467Y-148168875D01*
X270119467Y-148168875D02*
X270157562Y-148321256D01*
X270157562Y-148321256D02*
X270157562Y-148511732D01*
X270157562Y-148511732D02*
X270119467Y-148664113D01*
X270119467Y-148664113D02*
X270081372Y-148740303D01*
X270081372Y-148740303D02*
X270043277Y-148778399D01*
X270043277Y-148778399D02*
X269967086Y-148816494D01*
X269967086Y-148816494D02*
X269890896Y-148816494D01*
X269890896Y-148816494D02*
X269814705Y-148778399D01*
X269814705Y-148778399D02*
X269776610Y-148740303D01*
X269776610Y-148740303D02*
X269738515Y-148664113D01*
X269738515Y-148664113D02*
X269700419Y-148511732D01*
X269700419Y-148511732D02*
X269700419Y-148321256D01*
X269700419Y-148321256D02*
X269738515Y-148168875D01*
X269738515Y-148168875D02*
X269776610Y-148092684D01*
X269776610Y-148092684D02*
X269814705Y-148054589D01*
X269814705Y-148054589D02*
X269890896Y-148016494D01*
X270614705Y-148359351D02*
X270538515Y-148321256D01*
X270538515Y-148321256D02*
X270500420Y-148283160D01*
X270500420Y-148283160D02*
X270462324Y-148206970D01*
X270462324Y-148206970D02*
X270462324Y-148168875D01*
X270462324Y-148168875D02*
X270500420Y-148092684D01*
X270500420Y-148092684D02*
X270538515Y-148054589D01*
X270538515Y-148054589D02*
X270614705Y-148016494D01*
X270614705Y-148016494D02*
X270767086Y-148016494D01*
X270767086Y-148016494D02*
X270843277Y-148054589D01*
X270843277Y-148054589D02*
X270881372Y-148092684D01*
X270881372Y-148092684D02*
X270919467Y-148168875D01*
X270919467Y-148168875D02*
X270919467Y-148206970D01*
X270919467Y-148206970D02*
X270881372Y-148283160D01*
X270881372Y-148283160D02*
X270843277Y-148321256D01*
X270843277Y-148321256D02*
X270767086Y-148359351D01*
X270767086Y-148359351D02*
X270614705Y-148359351D01*
X270614705Y-148359351D02*
X270538515Y-148397446D01*
X270538515Y-148397446D02*
X270500420Y-148435541D01*
X270500420Y-148435541D02*
X270462324Y-148511732D01*
X270462324Y-148511732D02*
X270462324Y-148664113D01*
X270462324Y-148664113D02*
X270500420Y-148740303D01*
X270500420Y-148740303D02*
X270538515Y-148778399D01*
X270538515Y-148778399D02*
X270614705Y-148816494D01*
X270614705Y-148816494D02*
X270767086Y-148816494D01*
X270767086Y-148816494D02*
X270843277Y-148778399D01*
X270843277Y-148778399D02*
X270881372Y-148740303D01*
X270881372Y-148740303D02*
X270919467Y-148664113D01*
X270919467Y-148664113D02*
X270919467Y-148511732D01*
X270919467Y-148511732D02*
X270881372Y-148435541D01*
X270881372Y-148435541D02*
X270843277Y-148397446D01*
X270843277Y-148397446D02*
X270767086Y-148359351D01*
X268938517Y-151356495D02*
X268938517Y-150556495D01*
X268938517Y-150556495D02*
X269243279Y-150556495D01*
X269243279Y-150556495D02*
X269319469Y-150594590D01*
X269319469Y-150594590D02*
X269357564Y-150632685D01*
X269357564Y-150632685D02*
X269395660Y-150708876D01*
X269395660Y-150708876D02*
X269395660Y-150823161D01*
X269395660Y-150823161D02*
X269357564Y-150899352D01*
X269357564Y-150899352D02*
X269319469Y-150937447D01*
X269319469Y-150937447D02*
X269243279Y-150975542D01*
X269243279Y-150975542D02*
X268938517Y-150975542D01*
X269890898Y-150556495D02*
X269967088Y-150556495D01*
X269967088Y-150556495D02*
X270043279Y-150594590D01*
X270043279Y-150594590D02*
X270081374Y-150632685D01*
X270081374Y-150632685D02*
X270119469Y-150708876D01*
X270119469Y-150708876D02*
X270157564Y-150861257D01*
X270157564Y-150861257D02*
X270157564Y-151051733D01*
X270157564Y-151051733D02*
X270119469Y-151204114D01*
X270119469Y-151204114D02*
X270081374Y-151280304D01*
X270081374Y-151280304D02*
X270043279Y-151318400D01*
X270043279Y-151318400D02*
X269967088Y-151356495D01*
X269967088Y-151356495D02*
X269890898Y-151356495D01*
X269890898Y-151356495D02*
X269814707Y-151318400D01*
X269814707Y-151318400D02*
X269776612Y-151280304D01*
X269776612Y-151280304D02*
X269738517Y-151204114D01*
X269738517Y-151204114D02*
X269700421Y-151051733D01*
X269700421Y-151051733D02*
X269700421Y-150861257D01*
X269700421Y-150861257D02*
X269738517Y-150708876D01*
X269738517Y-150708876D02*
X269776612Y-150632685D01*
X269776612Y-150632685D02*
X269814707Y-150594590D01*
X269814707Y-150594590D02*
X269890898Y-150556495D01*
X270538517Y-151356495D02*
X270690898Y-151356495D01*
X270690898Y-151356495D02*
X270767088Y-151318400D01*
X270767088Y-151318400D02*
X270805184Y-151280304D01*
X270805184Y-151280304D02*
X270881374Y-151166019D01*
X270881374Y-151166019D02*
X270919469Y-151013638D01*
X270919469Y-151013638D02*
X270919469Y-150708876D01*
X270919469Y-150708876D02*
X270881374Y-150632685D01*
X270881374Y-150632685D02*
X270843279Y-150594590D01*
X270843279Y-150594590D02*
X270767088Y-150556495D01*
X270767088Y-150556495D02*
X270614707Y-150556495D01*
X270614707Y-150556495D02*
X270538517Y-150594590D01*
X270538517Y-150594590D02*
X270500422Y-150632685D01*
X270500422Y-150632685D02*
X270462326Y-150708876D01*
X270462326Y-150708876D02*
X270462326Y-150899352D01*
X270462326Y-150899352D02*
X270500422Y-150975542D01*
X270500422Y-150975542D02*
X270538517Y-151013638D01*
X270538517Y-151013638D02*
X270614707Y-151051733D01*
X270614707Y-151051733D02*
X270767088Y-151051733D01*
X270767088Y-151051733D02*
X270843279Y-151013638D01*
X270843279Y-151013638D02*
X270881374Y-150975542D01*
X270881374Y-150975542D02*
X270919469Y-150899352D01*
D11*
%TO.C,D1*%
X149154945Y-168884698D02*
X149654945Y-168884698D01*
X149154948Y-169284698D02*
X148554945Y-168884698D01*
X149154946Y-168484698D02*
X149154948Y-169284698D01*
X148554945Y-168884698D02*
X149154946Y-168484698D01*
X148554945Y-168884698D02*
X148554945Y-169434698D01*
X148554945Y-168884698D02*
X148554945Y-168334698D01*
X148154945Y-168884698D02*
X148554945Y-168884698D01*
%TO.C,D2*%
X149154950Y-149834703D02*
X149654950Y-149834703D01*
X149154953Y-150234703D02*
X148554950Y-149834703D01*
X149154951Y-149434703D02*
X149154953Y-150234703D01*
X148554950Y-149834703D02*
X149154951Y-149434703D01*
X148554950Y-149834703D02*
X148554950Y-150384703D01*
X148554950Y-149834703D02*
X148554950Y-149284703D01*
X148154950Y-149834703D02*
X148554950Y-149834703D01*
%TO.C,D3*%
X149154949Y-130784698D02*
X149654949Y-130784698D01*
X149154952Y-131184698D02*
X148554949Y-130784698D01*
X149154950Y-130384698D02*
X149154952Y-131184698D01*
X148554949Y-130784698D02*
X149154950Y-130384698D01*
X148554949Y-130784698D02*
X148554949Y-131334698D01*
X148554949Y-130784698D02*
X148554949Y-130234698D01*
X148154949Y-130784698D02*
X148554949Y-130784698D01*
%TO.C,D4*%
X168204943Y-165074700D02*
X168704943Y-165074700D01*
X168204946Y-165474700D02*
X167604943Y-165074700D01*
X168204944Y-164674700D02*
X168204946Y-165474700D01*
X167604943Y-165074700D02*
X168204944Y-164674700D01*
X167604943Y-165074700D02*
X167604943Y-165624700D01*
X167604943Y-165074700D02*
X167604943Y-164524700D01*
X167204943Y-165074700D02*
X167604943Y-165074700D01*
%TO.C,D5*%
X168204952Y-146024700D02*
X168704952Y-146024700D01*
X168204955Y-146424700D02*
X167604952Y-146024700D01*
X168204953Y-145624700D02*
X168204955Y-146424700D01*
X167604952Y-146024700D02*
X168204953Y-145624700D01*
X167604952Y-146024700D02*
X167604952Y-146574700D01*
X167604952Y-146024700D02*
X167604952Y-145474700D01*
X167204952Y-146024700D02*
X167604952Y-146024700D01*
%TO.C,D6*%
X168204943Y-126974700D02*
X168704943Y-126974700D01*
X168204946Y-127374700D02*
X167604943Y-126974700D01*
X168204944Y-126574700D02*
X168204946Y-127374700D01*
X167604943Y-126974700D02*
X168204944Y-126574700D01*
X167604943Y-126974700D02*
X167604943Y-127524700D01*
X167604943Y-126974700D02*
X167604943Y-126424700D01*
X167204943Y-126974700D02*
X167604943Y-126974700D01*
%TO.C,D7*%
X168204945Y-107924702D02*
X168704945Y-107924702D01*
X168204948Y-108324702D02*
X167604945Y-107924702D01*
X168204946Y-107524702D02*
X168204948Y-108324702D01*
X167604945Y-107924702D02*
X168204946Y-107524702D01*
X167604945Y-107924702D02*
X167604945Y-108474702D01*
X167604945Y-107924702D02*
X167604945Y-107374702D01*
X167204945Y-107924702D02*
X167604945Y-107924702D01*
%TO.C,D8*%
X187254946Y-152501699D02*
X187754946Y-152501699D01*
X187254949Y-152901699D02*
X186654946Y-152501699D01*
X187254947Y-152101699D02*
X187254949Y-152901699D01*
X186654946Y-152501699D02*
X187254947Y-152101699D01*
X186654946Y-152501699D02*
X186654946Y-153051699D01*
X186654946Y-152501699D02*
X186654946Y-151951699D01*
X186254946Y-152501699D02*
X186654946Y-152501699D01*
%TO.C,D9*%
X187254944Y-133451702D02*
X187754944Y-133451702D01*
X187254947Y-133851702D02*
X186654944Y-133451702D01*
X187254945Y-133051702D02*
X187254947Y-133851702D01*
X186654944Y-133451702D02*
X187254945Y-133051702D01*
X186654944Y-133451702D02*
X186654944Y-134001702D01*
X186654944Y-133451702D02*
X186654944Y-132901702D01*
X186254944Y-133451702D02*
X186654944Y-133451702D01*
%TO.C,D10*%
X187254950Y-114401706D02*
X187754950Y-114401706D01*
X187254953Y-114801706D02*
X186654950Y-114401706D01*
X187254951Y-114001706D02*
X187254953Y-114801706D01*
X186654950Y-114401706D02*
X187254951Y-114001706D01*
X186654950Y-114401706D02*
X186654950Y-114951706D01*
X186654950Y-114401706D02*
X186654950Y-113851706D01*
X186254950Y-114401706D02*
X186654950Y-114401706D01*
%TO.C,D11*%
X187254947Y-95351700D02*
X187754947Y-95351700D01*
X187254950Y-95751700D02*
X186654947Y-95351700D01*
X187254948Y-94951700D02*
X187254950Y-95751700D01*
X186654947Y-95351700D02*
X187254948Y-94951700D01*
X186654947Y-95351700D02*
X186654947Y-95901700D01*
X186654947Y-95351700D02*
X186654947Y-94801700D01*
X186254947Y-95351700D02*
X186654947Y-95351700D01*
%TO.C,D12*%
X206304951Y-147739198D02*
X206804951Y-147739198D01*
X206304954Y-148139198D02*
X205704951Y-147739198D01*
X206304952Y-147339198D02*
X206304954Y-148139198D01*
X205704951Y-147739198D02*
X206304952Y-147339198D01*
X205704951Y-147739198D02*
X205704951Y-148289198D01*
X205704951Y-147739198D02*
X205704951Y-147189198D01*
X205304951Y-147739198D02*
X205704951Y-147739198D01*
%TO.C,D13*%
X206304947Y-128689213D02*
X206804947Y-128689213D01*
X206304950Y-129089213D02*
X205704947Y-128689213D01*
X206304948Y-128289213D02*
X206304950Y-129089213D01*
X205704947Y-128689213D02*
X206304948Y-128289213D01*
X205704947Y-128689213D02*
X205704947Y-129239213D01*
X205704947Y-128689213D02*
X205704947Y-128139213D01*
X205304947Y-128689213D02*
X205704947Y-128689213D01*
%TO.C,D14*%
X206304948Y-109639201D02*
X206804948Y-109639201D01*
X206304951Y-110039201D02*
X205704948Y-109639201D01*
X206304949Y-109239201D02*
X206304951Y-110039201D01*
X205704948Y-109639201D02*
X206304949Y-109239201D01*
X205704948Y-109639201D02*
X205704948Y-110189201D01*
X205704948Y-109639201D02*
X205704948Y-109089201D01*
X205304948Y-109639201D02*
X205704948Y-109639201D01*
%TO.C,D15*%
X206304948Y-90589200D02*
X206804948Y-90589200D01*
X206304951Y-90989200D02*
X205704948Y-90589200D01*
X206304949Y-90189200D02*
X206304951Y-90989200D01*
X205704948Y-90589200D02*
X206304949Y-90189200D01*
X205704948Y-90589200D02*
X205704948Y-91139200D01*
X205704948Y-90589200D02*
X205704948Y-90039200D01*
X205304948Y-90589200D02*
X205704948Y-90589200D01*
%TO.C,D16*%
X225354950Y-152501696D02*
X225854950Y-152501696D01*
X225354953Y-152901696D02*
X224754950Y-152501696D01*
X225354951Y-152101696D02*
X225354953Y-152901696D01*
X224754950Y-152501696D02*
X225354951Y-152101696D01*
X224754950Y-152501696D02*
X224754950Y-153051696D01*
X224754950Y-152501696D02*
X224754950Y-151951696D01*
X224354950Y-152501696D02*
X224754950Y-152501696D01*
%TO.C,D17*%
X225354948Y-133451695D02*
X225854948Y-133451695D01*
X225354951Y-133851695D02*
X224754948Y-133451695D01*
X225354949Y-133051695D02*
X225354951Y-133851695D01*
X224754948Y-133451695D02*
X225354949Y-133051695D01*
X224754948Y-133451695D02*
X224754948Y-134001695D01*
X224754948Y-133451695D02*
X224754948Y-132901695D01*
X224354948Y-133451695D02*
X224754948Y-133451695D01*
%TO.C,D18*%
X225354942Y-114401696D02*
X225854942Y-114401696D01*
X225354945Y-114801696D02*
X224754942Y-114401696D01*
X225354943Y-114001696D02*
X225354945Y-114801696D01*
X224754942Y-114401696D02*
X225354943Y-114001696D01*
X224754942Y-114401696D02*
X224754942Y-114951696D01*
X224754942Y-114401696D02*
X224754942Y-113851696D01*
X224354942Y-114401696D02*
X224754942Y-114401696D01*
%TO.C,D19*%
X225354953Y-95351695D02*
X225854953Y-95351695D01*
X225354956Y-95751695D02*
X224754953Y-95351695D01*
X225354954Y-94951695D02*
X225354956Y-95751695D01*
X224754953Y-95351695D02*
X225354954Y-94951695D01*
X224754953Y-95351695D02*
X224754953Y-95901695D01*
X224754953Y-95351695D02*
X224754953Y-94801695D01*
X224354953Y-95351695D02*
X224754953Y-95351695D01*
%TO.C,D20*%
X244404944Y-155359199D02*
X244904944Y-155359199D01*
X244404947Y-155759199D02*
X243804944Y-155359199D01*
X244404945Y-154959199D02*
X244404947Y-155759199D01*
X243804944Y-155359199D02*
X244404945Y-154959199D01*
X243804944Y-155359199D02*
X243804944Y-155909199D01*
X243804944Y-155359199D02*
X243804944Y-154809199D01*
X243404944Y-155359199D02*
X243804944Y-155359199D01*
%TO.C,D21*%
X244404950Y-136309196D02*
X244904950Y-136309196D01*
X244404953Y-136709196D02*
X243804950Y-136309196D01*
X244404951Y-135909196D02*
X244404953Y-136709196D01*
X243804950Y-136309196D02*
X244404951Y-135909196D01*
X243804950Y-136309196D02*
X243804950Y-136859196D01*
X243804950Y-136309196D02*
X243804950Y-135759196D01*
X243404950Y-136309196D02*
X243804950Y-136309196D01*
%TO.C,D22*%
X244404947Y-117259201D02*
X244904947Y-117259201D01*
X244404950Y-117659201D02*
X243804947Y-117259201D01*
X244404948Y-116859201D02*
X244404950Y-117659201D01*
X243804947Y-117259201D02*
X244404948Y-116859201D01*
X243804947Y-117259201D02*
X243804947Y-117809201D01*
X243804947Y-117259201D02*
X243804947Y-116709201D01*
X243404947Y-117259201D02*
X243804947Y-117259201D01*
%TO.C,D23*%
X244404949Y-98209200D02*
X244904949Y-98209200D01*
X244404952Y-98609200D02*
X243804949Y-98209200D01*
X244404950Y-97809200D02*
X244404952Y-98609200D01*
X243804949Y-98209200D02*
X244404950Y-97809200D01*
X243804949Y-98209200D02*
X243804949Y-98759200D01*
X243804949Y-98209200D02*
X243804949Y-97659200D01*
X243404949Y-98209200D02*
X243804949Y-98209200D01*
%TO.C,D24*%
X224656651Y-177252835D02*
X225151785Y-177322422D01*
X224600985Y-177648943D02*
X224062490Y-177169331D01*
X224712320Y-176856728D02*
X224600985Y-177648943D01*
X224062490Y-177169331D02*
X224712320Y-176856728D01*
X224062490Y-177169331D02*
X223985945Y-177713979D01*
X224062490Y-177169331D02*
X224139035Y-176624684D01*
X223666383Y-177113662D02*
X224062490Y-177169331D01*
%TO.C,D25*%
X243855221Y-181369271D02*
X244335850Y-181507091D01*
X243744964Y-181753776D02*
X243278462Y-181203889D01*
X243965478Y-180984768D02*
X243744964Y-181753776D01*
X243278462Y-181203889D02*
X243965478Y-180984768D01*
X243278462Y-181203889D02*
X243126862Y-181732583D01*
X243278462Y-181203889D02*
X243430063Y-180675195D01*
X242893958Y-181093633D02*
X243278462Y-181203889D01*
%TO.C,D26*%
X262278834Y-188869272D02*
X262720308Y-189104007D01*
X262091045Y-189222449D02*
X261749065Y-188587588D01*
X262466626Y-188516093D02*
X262091045Y-189222449D01*
X261749065Y-188587588D02*
X262466626Y-188516093D01*
X261749065Y-188587588D02*
X261490856Y-189073209D01*
X261749065Y-188587588D02*
X262007275Y-188101967D01*
X261395886Y-188399799D02*
X261749065Y-188587588D01*
D10*
%TO.C,T2*%
X277216460Y-171494228D02*
X276438925Y-167672523D01*
X276827692Y-169583375D02*
X276169778Y-166349624D01*
X276169778Y-166349624D02*
X273376993Y-166917822D01*
X273376993Y-166917822D02*
X274692821Y-173385325D01*
X274692821Y-173385325D02*
X277485607Y-172817127D01*
X276827692Y-169583375D02*
X277485607Y-172817127D01*
%TO.C,MCU1*%
X256219943Y-119244200D02*
X256219946Y-152264200D01*
X256219946Y-152264200D02*
X273999946Y-152264200D01*
X273999946Y-152264200D02*
X273999947Y-119244200D01*
X273999947Y-119244200D02*
X256219943Y-119244200D01*
X258759946Y-121784203D02*
X258759945Y-124324200D01*
X258759946Y-121784203D02*
X256219946Y-121784200D01*
X258759945Y-124324200D02*
X256219948Y-124324200D01*
%TD*%
D12*
%TO.C,MCU1*%
X257489948Y-123054200D03*
D13*
X257489946Y-125594198D03*
X257489946Y-128134200D03*
X257489946Y-130674200D03*
X257489946Y-133214200D03*
X257489946Y-135754200D03*
X257489946Y-138294200D03*
X257489946Y-140834200D03*
X257489946Y-143374200D03*
X257489946Y-145914200D03*
X257489946Y-148454201D03*
X257489947Y-150994200D03*
X272729945Y-123054200D03*
X272729946Y-125594199D03*
X272729946Y-128134200D03*
X272729946Y-130674200D03*
X272729946Y-133214200D03*
X272729946Y-135754200D03*
X272729946Y-138294200D03*
X272729946Y-140834200D03*
X272729946Y-143374200D03*
X272729946Y-145914200D03*
X272729946Y-148454202D03*
X272729944Y-150994200D03*
%TD*%
M02*
