M48
; DRILL file {KiCad 8.0.0} date 2024-03-07T20:20:40+0100
; FORMAT={-:-/ absolute / inch / decimal}
; #@! TF.CreationDate,2024-03-07T20:20:40+01:00
; #@! TF.GenerationSoftware,Kicad,Pcbnew,8.0.0
; #@! TF.FileFunction,Plated,1,2,PTH
FMAT,2
INCH
; #@! TA.AperFunction,Plated,PTH,ComponentDrill
T1C0.0118
; #@! TA.AperFunction,Plated,PTH,ComponentDrill
T2C0.0390
; #@! TA.AperFunction,Plated,PTH,ComponentDrill
T3C0.0394
; #@! TA.AperFunction,Plated,PTH,ComponentDrill
T4C0.0430
; #@! TA.AperFunction,Plated,PTH,ComponentDrill
T5C0.0866
%
G90
G05
T1
X5.8624Y-5.4266
X5.8624Y-5.5053
X5.8624Y-4.7553
X5.8624Y-6.2553
X5.8624Y-6.1766
X5.8624Y-4.6766
X6.6124Y-5.3553
X6.6124Y-5.2766
X6.6124Y-6.1053
X6.6124Y-3.7766
X6.6124Y-4.6053
X6.6124Y-6.0266
X6.6124Y-4.5266
X6.6124Y-3.8553
X7.3624Y-5.6103
X7.3624Y-4.0316
X7.3624Y-4.1103
X7.3624Y-4.7816
X7.3624Y-5.5316
X7.3624Y-4.8603
X7.3624Y-3.2816
X7.3624Y-3.3603
X8.1124Y-3.8441
X8.1124Y-5.3441
X8.1124Y-5.4228
X8.1124Y-4.5941
X8.1124Y-4.6728
X8.1124Y-3.9228
X8.1124Y-3.0941
X8.1124Y-3.1728
X8.8624Y-5.5316
X8.8624Y-5.6103
X8.8624Y-3.2816
X8.8624Y-4.0316
X8.8624Y-4.8603
X8.8624Y-3.3603
X8.8624Y-4.7816
X8.8624Y-4.1103
X8.8898Y-6.5872
X8.9008Y-6.5092
X9.6124Y-3.3941
X9.6124Y-5.6441
X9.6124Y-5.7228
X9.6124Y-3.4728
X9.6124Y-4.1441
X9.6124Y-4.2228
X9.6124Y-4.8941
X9.6124Y-4.9728
X9.6997Y-6.7594
X9.7214Y-6.6837
X10.5021Y-7.0836
X10.539Y-7.014
X10.6521Y-6.7175
X10.8132Y-6.0584
X10.8466Y-6.6871
T2
X5.7124Y-6.649
X5.7124Y-5.149
X5.7124Y-5.899
X6.0124Y-6.649
X6.0124Y-5.149
X6.0124Y-5.899
X6.4624Y-4.999
X6.4624Y-6.499
X6.4624Y-4.249
X6.4624Y-5.749
X6.7624Y-4.999
X6.7624Y-6.499
X6.7624Y-4.249
X6.7624Y-5.749
X7.2124Y-5.254
X7.2124Y-6.004
X7.2124Y-3.754
X7.2124Y-4.504
X7.5124Y-5.254
X7.5124Y-6.004
X7.5124Y-3.754
X7.5124Y-4.504
X7.9624Y-5.0665
X7.9624Y-3.5665
X7.9624Y-4.3165
X7.9624Y-5.8165
X8.2624Y-5.0665
X8.2624Y-3.5665
X8.2624Y-4.3165
X8.2624Y-5.8165
X8.6865Y-6.9562
X8.7124Y-4.504
X8.7124Y-5.254
X8.7124Y-6.004
X8.7124Y-3.754
X8.9835Y-6.998
X9.0124Y-4.504
X9.0124Y-5.254
X9.0124Y-6.004
X9.0124Y-3.754
X9.4469Y-7.0965
X9.4624Y-6.1165
X9.4624Y-4.6165
X9.4624Y-3.8665
X9.4624Y-5.3665
X9.7353Y-7.1792
X9.7624Y-6.1165
X9.7624Y-4.6165
X9.7624Y-3.8665
X9.7624Y-5.3665
X10.1848Y-7.3608
X10.4497Y-7.5016
T3
X10.2888Y-6.0939
X10.2896Y-6.2002
X10.3888Y-6.0939
X10.3896Y-6.2002
X10.4888Y-6.0939
X10.4896Y-6.2002
X10.5888Y-6.0939
X10.5896Y-6.2002
T4
X10.1374Y-4.9447
X10.1374Y-5.0447
X10.1374Y-5.1447
X10.1374Y-5.2447
X10.1374Y-5.3447
X10.1374Y-5.4447
X10.1374Y-5.5447
X10.1374Y-5.6447
X10.1374Y-5.7447
X10.1374Y-5.8447
X10.1374Y-5.9447
X10.1374Y-4.8447
X10.7374Y-5.9447
X10.7374Y-4.8447
X10.7374Y-4.9447
X10.7374Y-5.0447
X10.7374Y-5.1447
X10.7374Y-5.2447
X10.7374Y-5.3447
X10.7374Y-5.4447
X10.7374Y-5.5447
X10.7374Y-5.6447
X10.7374Y-5.7447
X10.7374Y-5.8447
T5
X6.3228Y-6.752
X7.6772Y-3.9252
X9.2047Y-3.9331
X9.9173Y-6.4134
M30
