%TF.GenerationSoftware,KiCad,Pcbnew,8.0.0*%
%TF.CreationDate,2024-03-07T20:20:43+01:00*%
%TF.ProjectId,splitty_boy_routed,73706c69-7474-4795-9f62-6f795f726f75,v1.0.0*%
%TF.SameCoordinates,Original*%
%TF.FileFunction,Legend,Bot*%
%TF.FilePolarity,Positive*%
%FSLAX46Y46*%
G04 Gerber Fmt 4.6, Leading zero omitted, Abs format (unit mm)*
G04 Created by KiCad (PCBNEW 8.0.0) date 2024-03-07 20:20:43*
%MOMM*%
%LPD*%
G01*
G04 APERTURE LIST*
%ADD10C,0.150000*%
%ADD11C,0.100000*%
%ADD12R,1.752600X1.752600*%
%ADD13C,1.752600*%
G04 APERTURE END LIST*
D10*
X272593042Y-155827445D02*
X272478756Y-155865540D01*
X272478756Y-155865540D02*
X272440661Y-155903636D01*
X272440661Y-155903636D02*
X272402565Y-155979826D01*
X272402565Y-155979826D02*
X272402565Y-156094112D01*
X272402565Y-156094112D02*
X272440661Y-156170302D01*
X272440661Y-156170302D02*
X272478756Y-156208398D01*
X272478756Y-156208398D02*
X272554946Y-156246493D01*
X272554946Y-156246493D02*
X272859708Y-156246493D01*
X272859708Y-156246493D02*
X272859708Y-155446493D01*
X272859708Y-155446493D02*
X272593042Y-155446493D01*
X272593042Y-155446493D02*
X272516851Y-155484588D01*
X272516851Y-155484588D02*
X272478756Y-155522683D01*
X272478756Y-155522683D02*
X272440661Y-155598874D01*
X272440661Y-155598874D02*
X272440661Y-155675064D01*
X272440661Y-155675064D02*
X272478756Y-155751255D01*
X272478756Y-155751255D02*
X272516851Y-155789350D01*
X272516851Y-155789350D02*
X272593042Y-155827445D01*
X272593042Y-155827445D02*
X272859708Y-155827445D01*
X272059708Y-155941731D02*
X271450185Y-155941731D01*
X271754946Y-156246493D02*
X271754946Y-155636969D01*
X272264466Y-161484586D02*
X272340656Y-161446491D01*
X272340656Y-161446491D02*
X272454942Y-161446491D01*
X272454942Y-161446491D02*
X272569228Y-161484586D01*
X272569228Y-161484586D02*
X272645418Y-161560776D01*
X272645418Y-161560776D02*
X272683513Y-161636967D01*
X272683513Y-161636967D02*
X272721609Y-161789348D01*
X272721609Y-161789348D02*
X272721609Y-161903634D01*
X272721609Y-161903634D02*
X272683513Y-162056015D01*
X272683513Y-162056015D02*
X272645418Y-162132205D01*
X272645418Y-162132205D02*
X272569228Y-162208396D01*
X272569228Y-162208396D02*
X272454942Y-162246491D01*
X272454942Y-162246491D02*
X272378751Y-162246491D01*
X272378751Y-162246491D02*
X272264466Y-162208396D01*
X272264466Y-162208396D02*
X272226370Y-162170300D01*
X272226370Y-162170300D02*
X272226370Y-161903634D01*
X272226370Y-161903634D02*
X272378751Y-161903634D01*
X271883513Y-162246491D02*
X271883513Y-161446491D01*
X271883513Y-161446491D02*
X271426370Y-162246491D01*
X271426370Y-162246491D02*
X271426370Y-161446491D01*
X271045418Y-162246491D02*
X271045418Y-161446491D01*
X271045418Y-161446491D02*
X270854942Y-161446491D01*
X270854942Y-161446491D02*
X270740656Y-161484586D01*
X270740656Y-161484586D02*
X270664466Y-161560776D01*
X270664466Y-161560776D02*
X270626371Y-161636967D01*
X270626371Y-161636967D02*
X270588275Y-161789348D01*
X270588275Y-161789348D02*
X270588275Y-161903634D01*
X270588275Y-161903634D02*
X270626371Y-162056015D01*
X270626371Y-162056015D02*
X270664466Y-162132205D01*
X270664466Y-162132205D02*
X270740656Y-162208396D01*
X270740656Y-162208396D02*
X270854942Y-162246491D01*
X270854942Y-162246491D02*
X271045418Y-162246491D01*
D11*
%TO.C,D1*%
X149154945Y-168884698D02*
X149654945Y-168884698D01*
X149154948Y-169284698D02*
X148554945Y-168884698D01*
X149154946Y-168484698D02*
X149154948Y-169284698D01*
X148554945Y-168884698D02*
X149154946Y-168484698D01*
X148554945Y-168884698D02*
X148554945Y-169434698D01*
X148554945Y-168884698D02*
X148554945Y-168334698D01*
X148154945Y-168884698D02*
X148554945Y-168884698D01*
%TO.C,D2*%
X149154950Y-149834703D02*
X149654950Y-149834703D01*
X149154953Y-150234703D02*
X148554950Y-149834703D01*
X149154951Y-149434703D02*
X149154953Y-150234703D01*
X148554950Y-149834703D02*
X149154951Y-149434703D01*
X148554950Y-149834703D02*
X148554950Y-150384703D01*
X148554950Y-149834703D02*
X148554950Y-149284703D01*
X148154950Y-149834703D02*
X148554950Y-149834703D01*
%TO.C,D3*%
X149154949Y-130784698D02*
X149654949Y-130784698D01*
X149154952Y-131184698D02*
X148554949Y-130784698D01*
X149154950Y-130384698D02*
X149154952Y-131184698D01*
X148554949Y-130784698D02*
X149154950Y-130384698D01*
X148554949Y-130784698D02*
X148554949Y-131334698D01*
X148554949Y-130784698D02*
X148554949Y-130234698D01*
X148154949Y-130784698D02*
X148554949Y-130784698D01*
%TO.C,D4*%
X168204943Y-165074700D02*
X168704943Y-165074700D01*
X168204946Y-165474700D02*
X167604943Y-165074700D01*
X168204944Y-164674700D02*
X168204946Y-165474700D01*
X167604943Y-165074700D02*
X168204944Y-164674700D01*
X167604943Y-165074700D02*
X167604943Y-165624700D01*
X167604943Y-165074700D02*
X167604943Y-164524700D01*
X167204943Y-165074700D02*
X167604943Y-165074700D01*
%TO.C,D5*%
X168204952Y-146024700D02*
X168704952Y-146024700D01*
X168204955Y-146424700D02*
X167604952Y-146024700D01*
X168204953Y-145624700D02*
X168204955Y-146424700D01*
X167604952Y-146024700D02*
X168204953Y-145624700D01*
X167604952Y-146024700D02*
X167604952Y-146574700D01*
X167604952Y-146024700D02*
X167604952Y-145474700D01*
X167204952Y-146024700D02*
X167604952Y-146024700D01*
%TO.C,D6*%
X168204943Y-126974700D02*
X168704943Y-126974700D01*
X168204946Y-127374700D02*
X167604943Y-126974700D01*
X168204944Y-126574700D02*
X168204946Y-127374700D01*
X167604943Y-126974700D02*
X168204944Y-126574700D01*
X167604943Y-126974700D02*
X167604943Y-127524700D01*
X167604943Y-126974700D02*
X167604943Y-126424700D01*
X167204943Y-126974700D02*
X167604943Y-126974700D01*
%TO.C,D7*%
X168204945Y-107924702D02*
X168704945Y-107924702D01*
X168204948Y-108324702D02*
X167604945Y-107924702D01*
X168204946Y-107524702D02*
X168204948Y-108324702D01*
X167604945Y-107924702D02*
X168204946Y-107524702D01*
X167604945Y-107924702D02*
X167604945Y-108474702D01*
X167604945Y-107924702D02*
X167604945Y-107374702D01*
X167204945Y-107924702D02*
X167604945Y-107924702D01*
%TO.C,D8*%
X187254946Y-152501699D02*
X187754946Y-152501699D01*
X187254949Y-152901699D02*
X186654946Y-152501699D01*
X187254947Y-152101699D02*
X187254949Y-152901699D01*
X186654946Y-152501699D02*
X187254947Y-152101699D01*
X186654946Y-152501699D02*
X186654946Y-153051699D01*
X186654946Y-152501699D02*
X186654946Y-151951699D01*
X186254946Y-152501699D02*
X186654946Y-152501699D01*
%TO.C,D9*%
X187254944Y-133451702D02*
X187754944Y-133451702D01*
X187254947Y-133851702D02*
X186654944Y-133451702D01*
X187254945Y-133051702D02*
X187254947Y-133851702D01*
X186654944Y-133451702D02*
X187254945Y-133051702D01*
X186654944Y-133451702D02*
X186654944Y-134001702D01*
X186654944Y-133451702D02*
X186654944Y-132901702D01*
X186254944Y-133451702D02*
X186654944Y-133451702D01*
%TO.C,D10*%
X187254950Y-114401706D02*
X187754950Y-114401706D01*
X187254953Y-114801706D02*
X186654950Y-114401706D01*
X187254951Y-114001706D02*
X187254953Y-114801706D01*
X186654950Y-114401706D02*
X187254951Y-114001706D01*
X186654950Y-114401706D02*
X186654950Y-114951706D01*
X186654950Y-114401706D02*
X186654950Y-113851706D01*
X186254950Y-114401706D02*
X186654950Y-114401706D01*
%TO.C,D11*%
X187254947Y-95351700D02*
X187754947Y-95351700D01*
X187254950Y-95751700D02*
X186654947Y-95351700D01*
X187254948Y-94951700D02*
X187254950Y-95751700D01*
X186654947Y-95351700D02*
X187254948Y-94951700D01*
X186654947Y-95351700D02*
X186654947Y-95901700D01*
X186654947Y-95351700D02*
X186654947Y-94801700D01*
X186254947Y-95351700D02*
X186654947Y-95351700D01*
%TO.C,D12*%
X206304951Y-147739198D02*
X206804951Y-147739198D01*
X206304954Y-148139198D02*
X205704951Y-147739198D01*
X206304952Y-147339198D02*
X206304954Y-148139198D01*
X205704951Y-147739198D02*
X206304952Y-147339198D01*
X205704951Y-147739198D02*
X205704951Y-148289198D01*
X205704951Y-147739198D02*
X205704951Y-147189198D01*
X205304951Y-147739198D02*
X205704951Y-147739198D01*
%TO.C,D13*%
X206304947Y-128689213D02*
X206804947Y-128689213D01*
X206304950Y-129089213D02*
X205704947Y-128689213D01*
X206304948Y-128289213D02*
X206304950Y-129089213D01*
X205704947Y-128689213D02*
X206304948Y-128289213D01*
X205704947Y-128689213D02*
X205704947Y-129239213D01*
X205704947Y-128689213D02*
X205704947Y-128139213D01*
X205304947Y-128689213D02*
X205704947Y-128689213D01*
%TO.C,D14*%
X206304948Y-109639201D02*
X206804948Y-109639201D01*
X206304951Y-110039201D02*
X205704948Y-109639201D01*
X206304949Y-109239201D02*
X206304951Y-110039201D01*
X205704948Y-109639201D02*
X206304949Y-109239201D01*
X205704948Y-109639201D02*
X205704948Y-110189201D01*
X205704948Y-109639201D02*
X205704948Y-109089201D01*
X205304948Y-109639201D02*
X205704948Y-109639201D01*
%TO.C,D15*%
X206304948Y-90589200D02*
X206804948Y-90589200D01*
X206304951Y-90989200D02*
X205704948Y-90589200D01*
X206304949Y-90189200D02*
X206304951Y-90989200D01*
X205704948Y-90589200D02*
X206304949Y-90189200D01*
X205704948Y-90589200D02*
X205704948Y-91139200D01*
X205704948Y-90589200D02*
X205704948Y-90039200D01*
X205304948Y-90589200D02*
X205704948Y-90589200D01*
%TO.C,D16*%
X225354950Y-152501696D02*
X225854950Y-152501696D01*
X225354953Y-152901696D02*
X224754950Y-152501696D01*
X225354951Y-152101696D02*
X225354953Y-152901696D01*
X224754950Y-152501696D02*
X225354951Y-152101696D01*
X224754950Y-152501696D02*
X224754950Y-153051696D01*
X224754950Y-152501696D02*
X224754950Y-151951696D01*
X224354950Y-152501696D02*
X224754950Y-152501696D01*
%TO.C,D17*%
X225354948Y-133451695D02*
X225854948Y-133451695D01*
X225354951Y-133851695D02*
X224754948Y-133451695D01*
X225354949Y-133051695D02*
X225354951Y-133851695D01*
X224754948Y-133451695D02*
X225354949Y-133051695D01*
X224754948Y-133451695D02*
X224754948Y-134001695D01*
X224754948Y-133451695D02*
X224754948Y-132901695D01*
X224354948Y-133451695D02*
X224754948Y-133451695D01*
%TO.C,D18*%
X225354942Y-114401696D02*
X225854942Y-114401696D01*
X225354945Y-114801696D02*
X224754942Y-114401696D01*
X225354943Y-114001696D02*
X225354945Y-114801696D01*
X224754942Y-114401696D02*
X225354943Y-114001696D01*
X224754942Y-114401696D02*
X224754942Y-114951696D01*
X224754942Y-114401696D02*
X224754942Y-113851696D01*
X224354942Y-114401696D02*
X224754942Y-114401696D01*
%TO.C,D19*%
X225354953Y-95351695D02*
X225854953Y-95351695D01*
X225354956Y-95751695D02*
X224754953Y-95351695D01*
X225354954Y-94951695D02*
X225354956Y-95751695D01*
X224754953Y-95351695D02*
X225354954Y-94951695D01*
X224754953Y-95351695D02*
X224754953Y-95901695D01*
X224754953Y-95351695D02*
X224754953Y-94801695D01*
X224354953Y-95351695D02*
X224754953Y-95351695D01*
%TO.C,D20*%
X244404944Y-155359199D02*
X244904944Y-155359199D01*
X244404947Y-155759199D02*
X243804944Y-155359199D01*
X244404945Y-154959199D02*
X244404947Y-155759199D01*
X243804944Y-155359199D02*
X244404945Y-154959199D01*
X243804944Y-155359199D02*
X243804944Y-155909199D01*
X243804944Y-155359199D02*
X243804944Y-154809199D01*
X243404944Y-155359199D02*
X243804944Y-155359199D01*
%TO.C,D21*%
X244404950Y-136309196D02*
X244904950Y-136309196D01*
X244404953Y-136709196D02*
X243804950Y-136309196D01*
X244404951Y-135909196D02*
X244404953Y-136709196D01*
X243804950Y-136309196D02*
X244404951Y-135909196D01*
X243804950Y-136309196D02*
X243804950Y-136859196D01*
X243804950Y-136309196D02*
X243804950Y-135759196D01*
X243404950Y-136309196D02*
X243804950Y-136309196D01*
%TO.C,D22*%
X244404947Y-117259201D02*
X244904947Y-117259201D01*
X244404950Y-117659201D02*
X243804947Y-117259201D01*
X244404948Y-116859201D02*
X244404950Y-117659201D01*
X243804947Y-117259201D02*
X244404948Y-116859201D01*
X243804947Y-117259201D02*
X243804947Y-117809201D01*
X243804947Y-117259201D02*
X243804947Y-116709201D01*
X243404947Y-117259201D02*
X243804947Y-117259201D01*
%TO.C,D23*%
X244404949Y-98209200D02*
X244904949Y-98209200D01*
X244404952Y-98609200D02*
X243804949Y-98209200D01*
X244404950Y-97809200D02*
X244404952Y-98609200D01*
X243804949Y-98209200D02*
X244404950Y-97809200D01*
X243804949Y-98209200D02*
X243804949Y-98759200D01*
X243804949Y-98209200D02*
X243804949Y-97659200D01*
X243404949Y-98209200D02*
X243804949Y-98209200D01*
%TO.C,D24*%
X224656651Y-177252835D02*
X225151785Y-177322422D01*
X224600985Y-177648943D02*
X224062490Y-177169331D01*
X224712320Y-176856728D02*
X224600985Y-177648943D01*
X224062490Y-177169331D02*
X224712320Y-176856728D01*
X224062490Y-177169331D02*
X223985945Y-177713979D01*
X224062490Y-177169331D02*
X224139035Y-176624684D01*
X223666383Y-177113662D02*
X224062490Y-177169331D01*
%TO.C,D25*%
X243855221Y-181369271D02*
X244335850Y-181507091D01*
X243744964Y-181753776D02*
X243278462Y-181203889D01*
X243965478Y-180984768D02*
X243744964Y-181753776D01*
X243278462Y-181203889D02*
X243965478Y-180984768D01*
X243278462Y-181203889D02*
X243126862Y-181732583D01*
X243278462Y-181203889D02*
X243430063Y-180675195D01*
X242893958Y-181093633D02*
X243278462Y-181203889D01*
%TO.C,D26*%
X262278834Y-188869272D02*
X262720308Y-189104007D01*
X262091045Y-189222449D02*
X261749065Y-188587588D01*
X262466626Y-188516093D02*
X262091045Y-189222449D01*
X261749065Y-188587588D02*
X262466626Y-188516093D01*
X261749065Y-188587588D02*
X261490856Y-189073209D01*
X261749065Y-188587588D02*
X262007275Y-188101967D01*
X261395886Y-188399799D02*
X261749065Y-188587588D01*
D10*
%TO.C,T1*%
X277216460Y-171494228D02*
X276438925Y-167672523D01*
X276827692Y-169583375D02*
X276169778Y-166349624D01*
X276169778Y-166349624D02*
X273376993Y-166917822D01*
X273376993Y-166917822D02*
X274692821Y-173385325D01*
X274692821Y-173385325D02*
X277485607Y-172817127D01*
X276827692Y-169583375D02*
X277485607Y-172817127D01*
%TD*%
D12*
%TO.C,MCU1*%
X257489948Y-123054200D03*
D13*
X257489946Y-125594198D03*
X257489946Y-128134200D03*
X257489946Y-130674200D03*
X257489946Y-133214200D03*
X257489946Y-135754200D03*
X257489946Y-138294200D03*
X257489946Y-140834200D03*
X257489946Y-143374200D03*
X257489946Y-145914200D03*
X257489946Y-148454201D03*
X257489947Y-150994200D03*
X272729945Y-123054200D03*
X272729946Y-125594199D03*
X272729946Y-128134200D03*
X272729946Y-130674200D03*
X272729946Y-133214200D03*
X272729946Y-135754200D03*
X272729946Y-138294200D03*
X272729946Y-140834200D03*
X272729946Y-143374200D03*
X272729946Y-145914200D03*
X272729946Y-148454202D03*
X272729944Y-150994200D03*
%TD*%
M02*
