%TF.GenerationSoftware,KiCad,Pcbnew,8.0.0*%
%TF.CreationDate,2024-03-07T20:20:43+01:00*%
%TF.ProjectId,splitty_boy_routed,73706c69-7474-4795-9f62-6f795f726f75,v1.0.0*%
%TF.SameCoordinates,Original*%
%TF.FileFunction,Soldermask,Bot*%
%TF.FilePolarity,Negative*%
%FSLAX46Y46*%
G04 Gerber Fmt 4.6, Leading zero omitted, Abs format (unit mm)*
G04 Created by KiCad (PCBNEW 8.0.0) date 2024-03-07 20:20:43*
%MOMM*%
%LPD*%
G01*
G04 APERTURE LIST*
G04 Aperture macros list*
%AMRoundRect*
0 Rectangle with rounded corners*
0 $1 Rounding radius*
0 $2 $3 $4 $5 $6 $7 $8 $9 X,Y pos of 4 corners*
0 Add a 4 corners polygon primitive as box body*
4,1,4,$2,$3,$4,$5,$6,$7,$8,$9,$2,$3,0*
0 Add four circle primitives for the rounded corners*
1,1,$1+$1,$2,$3*
1,1,$1+$1,$4,$5*
1,1,$1+$1,$6,$7*
1,1,$1+$1,$8,$9*
0 Add four rect primitives between the rounded corners*
20,1,$1+$1,$2,$3,$4,$5,0*
20,1,$1+$1,$4,$5,$6,$7,0*
20,1,$1+$1,$6,$7,$8,$9,0*
20,1,$1+$1,$8,$9,$2,$3,0*%
G04 Aperture macros list end*
%ADD10C,4.500000*%
%ADD11C,4.087800*%
%ADD12C,1.801800*%
%ADD13C,3.100000*%
%ADD14RoundRect,0.050000X-1.275000X-1.250000X1.275000X-1.250000X1.275000X1.250000X-1.275000X1.250000X0*%
%ADD15RoundRect,0.050000X-1.436558X-1.060389X1.088625X-1.415281X1.436558X1.060389X-1.088625X1.415281X0*%
%ADD16RoundRect,0.050000X-1.570155X-0.850139X0.881062X-1.553015X1.570155X0.850139X-0.881062X1.553015X0*%
%ADD17RoundRect,0.050000X-1.712598X-0.505108X0.538919X-1.702261X1.712598X0.505108X-0.538919X1.702261X0*%
%ADD18RoundRect,0.050000X-0.450000X-0.600000X0.450000X-0.600000X0.450000X0.600000X-0.450000X0.600000X0*%
%ADD19RoundRect,0.050000X-0.889000X-0.889000X0.889000X-0.889000X0.889000X0.889000X-0.889000X0.889000X0*%
%ADD20C,2.005000*%
%ADD21RoundRect,0.050000X-0.529124X-0.531533X0.362117X-0.656789X0.529124X0.531533X-0.362117X0.656789X0*%
%ADD22RoundRect,0.050000X-1.004073X-0.756623X0.756623X-1.004073X1.004073X0.756623X-0.756623X1.004073X0*%
%ADD23RoundRect,0.050000X-0.597950X-0.452720X0.267185X-0.700794X0.597950X0.452720X-0.267185X0.700794X0*%
%ADD24RoundRect,0.050000X-1.099603X-0.609520X0.609520X-1.099603X1.099603X0.609520X-0.609520X1.099603X0*%
%ADD25RoundRect,0.050000X-0.679009X-0.318506X0.115643X-0.741031X0.679009X0.318506X-0.115643X0.741031X0*%
%ADD26RoundRect,0.050000X-1.202301X-0.367580X0.367580X-1.202301X1.202301X0.367580X-0.367580X1.202301X0*%
%ADD27C,1.100000*%
%ADD28RoundRect,0.050000X-0.702169X0.316361X-0.522737X-0.565571X0.702169X-0.316361X0.522737X0.565571X0*%
%ADD29RoundRect,0.050000X-0.530682X0.351251X-0.351251X-0.530682X0.530682X-0.351251X0.351251X0.530682X0*%
%ADD30RoundRect,0.050000X-1.000000X-1.000000X1.000000X-1.000000X1.000000X1.000000X-1.000000X1.000000X0*%
%ADD31O,1.800000X1.800000*%
%ADD32RoundRect,0.050000X-0.850000X-0.850000X0.850000X-0.850000X0.850000X0.850000X-0.850000X0.850000X0*%
%ADD33RoundRect,0.050000X0.850000X0.850000X-0.850000X0.850000X-0.850000X-0.850000X0.850000X-0.850000X0*%
%ADD34RoundRect,0.050000X-0.876300X0.876300X-0.876300X-0.876300X0.876300X-0.876300X0.876300X0.876300X0*%
%ADD35C,1.852600*%
G04 APERTURE END LIST*
D10*
%TO.C,*%
X233800000Y-99900000D03*
%TD*%
%TO.C,*%
X160600000Y-171500000D03*
%TD*%
%TO.C,*%
X251900000Y-162900000D03*
%TD*%
%TO.C,*%
X195000000Y-99700000D03*
%TD*%
D11*
%TO.C,S1*%
X148904943Y-163884700D03*
D12*
X153984943Y-163884700D03*
X143824943Y-163884700D03*
D13*
X151444943Y-158804700D03*
X145094943Y-161344700D03*
D14*
X141819943Y-161344700D03*
X154746943Y-158804700D03*
D13*
X146364943Y-158804700D03*
X152714943Y-161344700D03*
%TD*%
D11*
%TO.C,S2*%
X148904950Y-144834701D03*
D12*
X153984950Y-144834701D03*
X143824950Y-144834701D03*
D13*
X151444950Y-139754701D03*
X145094950Y-142294701D03*
D14*
X141819950Y-142294701D03*
X154746950Y-139754701D03*
D13*
X146364950Y-139754701D03*
X152714950Y-142294701D03*
%TD*%
D11*
%TO.C,S3*%
X148904948Y-125784701D03*
D12*
X153984948Y-125784701D03*
X143824948Y-125784701D03*
D13*
X151444948Y-120704701D03*
X145094948Y-123244701D03*
D14*
X141819948Y-123244701D03*
X154746948Y-120704701D03*
D13*
X146364948Y-120704701D03*
X152714948Y-123244701D03*
%TD*%
D11*
%TO.C,S4*%
X167954947Y-160074696D03*
D12*
X173034947Y-160074696D03*
X162874947Y-160074696D03*
D13*
X170494947Y-154994696D03*
X164144947Y-157534696D03*
D14*
X160869947Y-157534696D03*
X173796947Y-154994696D03*
D13*
X165414947Y-154994696D03*
X171764947Y-157534696D03*
%TD*%
D11*
%TO.C,S5*%
X167954949Y-141024702D03*
D12*
X173034949Y-141024702D03*
X162874949Y-141024702D03*
D13*
X170494949Y-135944702D03*
X164144949Y-138484702D03*
D14*
X160869949Y-138484702D03*
X173796949Y-135944702D03*
D13*
X165414949Y-135944702D03*
X171764949Y-138484702D03*
%TD*%
D11*
%TO.C,S6*%
X167954937Y-121974699D03*
D12*
X173034937Y-121974699D03*
X162874937Y-121974699D03*
D13*
X170494937Y-116894699D03*
X164144937Y-119434699D03*
D14*
X160869937Y-119434699D03*
X173796937Y-116894699D03*
D13*
X165414937Y-116894699D03*
X171764937Y-119434699D03*
%TD*%
D11*
%TO.C,S7*%
X167954950Y-102924700D03*
D12*
X173034950Y-102924700D03*
X162874950Y-102924700D03*
D13*
X170494950Y-97844700D03*
X164144950Y-100384700D03*
D14*
X160869950Y-100384700D03*
X173796950Y-97844700D03*
D13*
X165414950Y-97844700D03*
X171764950Y-100384700D03*
%TD*%
D11*
%TO.C,S8*%
X187004944Y-147501702D03*
D12*
X192084944Y-147501702D03*
X181924944Y-147501702D03*
D13*
X189544944Y-142421702D03*
X183194944Y-144961702D03*
D14*
X179919944Y-144961702D03*
X192846944Y-142421702D03*
D13*
X184464944Y-142421702D03*
X190814944Y-144961702D03*
%TD*%
D11*
%TO.C,S9*%
X187004949Y-128451704D03*
D12*
X192084949Y-128451704D03*
X181924949Y-128451704D03*
D13*
X189544949Y-123371704D03*
X183194949Y-125911704D03*
D14*
X179919949Y-125911704D03*
X192846949Y-123371704D03*
D13*
X184464949Y-123371704D03*
X190814949Y-125911704D03*
%TD*%
D11*
%TO.C,S10*%
X187004953Y-109401705D03*
D12*
X192084953Y-109401705D03*
X181924953Y-109401705D03*
D13*
X189544953Y-104321705D03*
X183194953Y-106861705D03*
D14*
X179919953Y-106861705D03*
X192846953Y-104321705D03*
D13*
X184464953Y-104321705D03*
X190814953Y-106861705D03*
%TD*%
D11*
%TO.C,S11*%
X187004952Y-90351697D03*
D12*
X192084952Y-90351697D03*
X181924952Y-90351697D03*
D13*
X189544952Y-85271697D03*
X183194952Y-87811697D03*
D14*
X179919952Y-87811697D03*
X192846952Y-85271697D03*
D13*
X184464952Y-85271697D03*
X190814952Y-87811697D03*
%TD*%
D11*
%TO.C,S12*%
X206054950Y-142739199D03*
D12*
X211134950Y-142739199D03*
X200974950Y-142739199D03*
D13*
X208594950Y-137659199D03*
X202244950Y-140199199D03*
D14*
X198969950Y-140199199D03*
X211896950Y-137659199D03*
D13*
X203514950Y-137659199D03*
X209864950Y-140199199D03*
%TD*%
D11*
%TO.C,S13*%
X206054943Y-123689203D03*
D12*
X211134943Y-123689203D03*
X200974943Y-123689203D03*
D13*
X208594943Y-118609203D03*
X202244943Y-121149203D03*
D14*
X198969943Y-121149203D03*
X211896943Y-118609203D03*
D13*
X203514943Y-118609203D03*
X209864943Y-121149203D03*
%TD*%
D11*
%TO.C,S14*%
X206054950Y-104639202D03*
D12*
X211134950Y-104639202D03*
X200974950Y-104639202D03*
D13*
X208594950Y-99559202D03*
X202244950Y-102099202D03*
D14*
X198969950Y-102099202D03*
X211896950Y-99559202D03*
D13*
X203514950Y-99559202D03*
X209864950Y-102099202D03*
%TD*%
D11*
%TO.C,S15*%
X206054945Y-85589203D03*
D12*
X211134945Y-85589203D03*
X200974945Y-85589203D03*
D13*
X208594945Y-80509203D03*
X202244945Y-83049203D03*
D14*
X198969945Y-83049203D03*
X211896945Y-80509203D03*
D13*
X203514945Y-80509203D03*
X209864945Y-83049203D03*
%TD*%
D11*
%TO.C,S16*%
X225104950Y-147501702D03*
D12*
X230184950Y-147501702D03*
X220024950Y-147501702D03*
D13*
X227644950Y-142421702D03*
X221294950Y-144961702D03*
D14*
X218019950Y-144961702D03*
X230946950Y-142421702D03*
D13*
X222564950Y-142421702D03*
X228914950Y-144961702D03*
%TD*%
D11*
%TO.C,S17*%
X225104947Y-128451701D03*
D12*
X230184947Y-128451701D03*
X220024947Y-128451701D03*
D13*
X227644947Y-123371701D03*
X221294947Y-125911701D03*
D14*
X218019947Y-125911701D03*
X230946947Y-123371701D03*
D13*
X222564947Y-123371701D03*
X228914947Y-125911701D03*
%TD*%
D11*
%TO.C,S18*%
X225104950Y-109401704D03*
D12*
X230184950Y-109401704D03*
X220024950Y-109401704D03*
D13*
X227644950Y-104321704D03*
X221294950Y-106861704D03*
D14*
X218019950Y-106861704D03*
X230946950Y-104321704D03*
D13*
X222564950Y-104321704D03*
X228914950Y-106861704D03*
%TD*%
D11*
%TO.C,S19*%
X225104946Y-90351705D03*
D12*
X230184946Y-90351705D03*
X220024946Y-90351705D03*
D13*
X227644946Y-85271705D03*
X221294946Y-87811705D03*
D14*
X218019946Y-87811705D03*
X230946946Y-85271705D03*
D13*
X222564946Y-85271705D03*
X228914946Y-87811705D03*
%TD*%
D11*
%TO.C,S20*%
X244154957Y-150359194D03*
D12*
X249234957Y-150359194D03*
X239074957Y-150359194D03*
D13*
X246694957Y-145279194D03*
X240344957Y-147819194D03*
D14*
X237069957Y-147819194D03*
X249996957Y-145279194D03*
D13*
X241614957Y-145279194D03*
X247964957Y-147819194D03*
%TD*%
D11*
%TO.C,S21*%
X244154943Y-131309195D03*
D12*
X249234943Y-131309195D03*
X239074943Y-131309195D03*
D13*
X246694943Y-126229195D03*
X240344943Y-128769195D03*
D14*
X237069943Y-128769195D03*
X249996943Y-126229195D03*
D13*
X241614943Y-126229195D03*
X247964943Y-128769195D03*
%TD*%
D11*
%TO.C,S22*%
X244154948Y-112259201D03*
D12*
X249234948Y-112259201D03*
X239074948Y-112259201D03*
D13*
X246694948Y-107179201D03*
X240344948Y-109719201D03*
D14*
X237069948Y-109719201D03*
X249996948Y-107179201D03*
D13*
X241614948Y-107179201D03*
X247964948Y-109719201D03*
%TD*%
D11*
%TO.C,S23*%
X244154947Y-93209194D03*
D12*
X249234947Y-93209194D03*
X239074947Y-93209194D03*
D13*
X246694947Y-88129194D03*
X240344947Y-90669194D03*
D14*
X237069947Y-90669194D03*
X249996947Y-88129194D03*
D13*
X241614947Y-88129194D03*
X247964947Y-90669194D03*
%TD*%
D11*
%TO.C,S24*%
X225104951Y-172266696D03*
D12*
X230135513Y-172973695D03*
X220074389Y-171559697D03*
D13*
X228327231Y-167589634D03*
X221685529Y-169221166D03*
D15*
X218442403Y-168765375D03*
X231597096Y-168049183D03*
D13*
X223296669Y-166882635D03*
X229231372Y-170281665D03*
%TD*%
D11*
%TO.C,S25*%
X244993094Y-176494056D03*
D12*
X249876303Y-177894294D03*
X240109885Y-175093818D03*
D13*
X248834936Y-172310965D03*
X242030809Y-173002273D03*
D16*
X238882677Y-172099563D03*
X252009025Y-173221117D03*
D13*
X243951727Y-170910728D03*
X249355620Y-175102630D03*
%TD*%
D11*
%TO.C,S26*%
X264405457Y-184337159D03*
D12*
X268890831Y-186722075D03*
X259920083Y-181952243D03*
D13*
X269033059Y-181044243D03*
X262233888Y-180305786D03*
D17*
X259342231Y-178768266D03*
X271948552Y-182594438D03*
D13*
X264547686Y-178659327D03*
X268961945Y-183883159D03*
%TD*%
D18*
%TO.C,D1*%
X150554945Y-168884698D03*
X147254945Y-168884698D03*
D19*
X145094945Y-168884698D03*
D20*
X152714945Y-168884698D03*
%TD*%
D18*
%TO.C,D2*%
X150554950Y-149834703D03*
X147254950Y-149834703D03*
D19*
X145094950Y-149834703D03*
D20*
X152714950Y-149834703D03*
%TD*%
D18*
%TO.C,D3*%
X150554949Y-130784698D03*
X147254949Y-130784698D03*
D19*
X145094949Y-130784698D03*
D20*
X152714949Y-130784698D03*
%TD*%
D18*
%TO.C,D4*%
X169604943Y-165074700D03*
X166304943Y-165074700D03*
D19*
X164144943Y-165074700D03*
D20*
X171764943Y-165074700D03*
%TD*%
D18*
%TO.C,D5*%
X169604952Y-146024700D03*
X166304952Y-146024700D03*
D19*
X164144952Y-146024700D03*
D20*
X171764952Y-146024700D03*
%TD*%
D18*
%TO.C,D6*%
X169604943Y-126974700D03*
X166304943Y-126974700D03*
D19*
X164144943Y-126974700D03*
D20*
X171764943Y-126974700D03*
%TD*%
D18*
%TO.C,D7*%
X169604945Y-107924702D03*
X166304945Y-107924702D03*
D19*
X164144945Y-107924702D03*
D20*
X171764945Y-107924702D03*
%TD*%
D18*
%TO.C,D8*%
X188654946Y-152501699D03*
X185354946Y-152501699D03*
D19*
X183194946Y-152501699D03*
D20*
X190814946Y-152501699D03*
%TD*%
D18*
%TO.C,D9*%
X188654944Y-133451702D03*
X185354944Y-133451702D03*
D19*
X183194944Y-133451702D03*
D20*
X190814944Y-133451702D03*
%TD*%
D18*
%TO.C,D10*%
X188654950Y-114401706D03*
X185354950Y-114401706D03*
D19*
X183194950Y-114401706D03*
D20*
X190814950Y-114401706D03*
%TD*%
D18*
%TO.C,D11*%
X188654947Y-95351700D03*
X185354947Y-95351700D03*
D19*
X183194947Y-95351700D03*
D20*
X190814947Y-95351700D03*
%TD*%
D18*
%TO.C,D12*%
X207704951Y-147739198D03*
X204404951Y-147739198D03*
D19*
X202244951Y-147739198D03*
D20*
X209864951Y-147739198D03*
%TD*%
D18*
%TO.C,D13*%
X207704947Y-128689213D03*
X204404947Y-128689213D03*
D19*
X202244947Y-128689213D03*
D20*
X209864947Y-128689213D03*
%TD*%
D18*
%TO.C,D14*%
X207704948Y-109639201D03*
X204404948Y-109639201D03*
D19*
X202244948Y-109639201D03*
D20*
X209864948Y-109639201D03*
%TD*%
D18*
%TO.C,D15*%
X207704948Y-90589200D03*
X204404948Y-90589200D03*
D19*
X202244948Y-90589200D03*
D20*
X209864948Y-90589200D03*
%TD*%
D18*
%TO.C,D16*%
X226754950Y-152501696D03*
X223454950Y-152501696D03*
D19*
X221294950Y-152501696D03*
D20*
X228914950Y-152501696D03*
%TD*%
D18*
%TO.C,D17*%
X226754948Y-133451695D03*
X223454948Y-133451695D03*
D19*
X221294948Y-133451695D03*
D20*
X228914948Y-133451695D03*
%TD*%
D18*
%TO.C,D18*%
X226754942Y-114401696D03*
X223454942Y-114401696D03*
D19*
X221294942Y-114401696D03*
D20*
X228914942Y-114401696D03*
%TD*%
D18*
%TO.C,D19*%
X226754953Y-95351695D03*
X223454953Y-95351695D03*
D19*
X221294953Y-95351695D03*
D20*
X228914953Y-95351695D03*
%TD*%
D18*
%TO.C,D20*%
X245804944Y-155359199D03*
X242504944Y-155359199D03*
D19*
X240344944Y-155359199D03*
D20*
X247964944Y-155359199D03*
%TD*%
D18*
%TO.C,D21*%
X245804950Y-136309196D03*
X242504950Y-136309196D03*
D19*
X240344950Y-136309196D03*
D20*
X247964950Y-136309196D03*
%TD*%
D18*
%TO.C,D22*%
X245804947Y-117259201D03*
X242504947Y-117259201D03*
D19*
X240344947Y-117259201D03*
D20*
X247964947Y-117259201D03*
%TD*%
D18*
%TO.C,D23*%
X245804949Y-98209200D03*
X242504949Y-98209200D03*
D19*
X240344949Y-98209200D03*
D20*
X247964949Y-98209200D03*
%TD*%
D21*
%TO.C,D24*%
X226043026Y-177447678D03*
X222775142Y-176988406D03*
D22*
X220636163Y-176687792D03*
D20*
X228182005Y-177748292D03*
%TD*%
D23*
%TO.C,D25*%
X245200987Y-181755164D03*
X242028821Y-180845560D03*
D24*
X239952497Y-180250184D03*
D20*
X247277311Y-182350540D03*
%TD*%
D25*
%TO.C,D26*%
X263514961Y-189526530D03*
X260601233Y-187977276D03*
D26*
X258694067Y-186963216D03*
D20*
X265422127Y-190540590D03*
%TD*%
D27*
%TO.C,T1*%
X275803846Y-171322409D03*
X275205742Y-168382635D03*
D28*
X273022872Y-168061380D03*
X273620976Y-171001155D03*
X273920025Y-172471042D03*
D29*
X277320373Y-173258943D03*
X275164538Y-173697548D03*
X273689215Y-166446101D03*
X275845050Y-166007496D03*
%TD*%
D27*
%TO.C,T2*%
X275803846Y-171322409D03*
X275205742Y-168382635D03*
%TD*%
D30*
%TO.C,PAD1*%
X274654947Y-155884198D03*
%TD*%
%TO.C,PAD2*%
X274654943Y-161884196D03*
%TD*%
D31*
%TO.C,OLED1*%
X261334950Y-154784195D03*
X263874950Y-154784195D03*
X266414950Y-154784195D03*
D32*
X268954950Y-154784195D03*
%TD*%
D31*
%TO.C,OLED2*%
X268974948Y-157484197D03*
X266434948Y-157484197D03*
X263894948Y-157484197D03*
D33*
X261354948Y-157484197D03*
%TD*%
D34*
%TO.C,MCU1*%
X257489948Y-123054200D03*
D35*
X257489946Y-125594198D03*
X257489946Y-128134200D03*
X257489946Y-130674200D03*
X257489946Y-133214200D03*
X257489946Y-135754200D03*
X257489946Y-138294200D03*
X257489946Y-140834200D03*
X257489946Y-143374200D03*
X257489946Y-145914200D03*
X257489946Y-148454201D03*
X257489947Y-150994200D03*
X272729945Y-123054200D03*
X272729946Y-125594199D03*
X272729946Y-128134200D03*
X272729946Y-130674200D03*
X272729946Y-133214200D03*
X272729946Y-135754200D03*
X272729946Y-138294200D03*
X272729946Y-140834200D03*
X272729946Y-143374200D03*
X272729946Y-145914200D03*
X272729946Y-148454202D03*
X272729944Y-150994200D03*
%TD*%
M02*
