0
SECTION
2
HEADER
9
$INSUNITS
70
4
9
$ACADVER
1
AC1014
9
$HANDSEED
5
FFFF
0
ENDSEC
0
SECTION
2
TABLES
0
TABLE
2
VPORT
5
8
100
AcDbSymbolTable
0
ENDTAB
0
TABLE
2
LTYPE
5
5
100
AcDbSymbolTable
0
LTYPE
5
14
100
AcDbSymbolTableRecord
100
AcDbLinetypeTableRecord
2
BYBLOCK
70
0
0
LTYPE
5
15
100
AcDbSymbolTableRecord
100
AcDbLinetypeTableRecord
2
BYLAYER
70
0
0
ENDTAB
0
TABLE
2
LAYER
5
2
100
AcDbSymbolTable
70
2
0
LAYER
5
50
100
AcDbSymbolTableRecord
100
AcDbLayerTableRecord
2
0
70
0
6
CONTINUOUS
0
ENDTAB
0
TABLE
2
STYLE
5
3
100
AcDbSymbolTable
70
1
0
STYLE
5
11
100
AcDbSymbolTableRecord
100
AcDbTextStyleTableRecord
2
STANDARD
70
0
0
ENDTAB
0
TABLE
2
VIEW
5
6
100
AcDbSymbolTable
70
0
0
ENDTAB
0
TABLE
2
UCS
5
7
100
AcDbSymbolTable
70
0
0
ENDTAB
0
TABLE
2
APPID
5
9
100
AcDbSymbolTable
70
2
0
APPID
5
12
100
AcDbSymbolTableRecord
100
AcDbRegAppTableRecord
2
ACAD
70
0
0
ENDTAB
0
TABLE
2
DIMSTYLE
5
A
100
AcDbSymbolTable
70
1
0
ENDTAB
0
TABLE
2
BLOCK_RECORD
5
1
100
AcDbSymbolTable
70
1
0
BLOCK_RECORD
5
1F
100
AcDbSymbolTableRecord
100
AcDbBlockTableRecord
2
*MODEL_SPACE
0
BLOCK_RECORD
5
1B
100
AcDbSymbolTableRecord
100
AcDbBlockTableRecord
2
*PAPER_SPACE
0
ENDTAB
0
ENDSEC
0
SECTION
2
BLOCKS
0
BLOCK
5
20
100
AcDbEntity
100
AcDbBlockBegin
2
*MODEL_SPACE
0
ENDBLK
5
21
100
AcDbEntity
100
AcDbBlockEnd
0
BLOCK
5
1C
100
AcDbEntity
100
AcDbBlockBegin
2
*PAPER_SPACE
0
ENDBLK
5
1D
100
AcDbEntity
100
AcDbBlockEnd
0
ENDSEC
0
SECTION
2
ENTITIES
0
LWPOLYLINE
5
100
100
AcDbEntity
8
0
100
AcDbPolyline
90
19
70
1
43
0.0
10
84.438100000000006
20
15.3142
10
77.686999999999998
20
15.3142
10
77.686999999999998
20
12.082600000000001
10
76.862899999999996
20
12.082600000000001
10
76.862899999999996
20
9.2838399999999996
10
77.686999999999998
20
9.2838399999999996
10
77.686999999999998
20
3.0137700000000001
10
79.411999999999992
20
3.0137700000000001
10
79.411999999999992
20
1.8148799999999998
10
82.712599999999995
20
1.8148799999999998
10
82.712599999999995
20
3.0137700000000001
10
84.438100000000006
20
3.0137700000000001
10
84.438100000000006
20
7.4841100000000003
10
124.06200000000001
20
7.4841100000000003
10
124.06200000000001
20
2.7836400000000001
10
138.06299999999999
20
2.7836400000000006
10
124.06200000000001
20
16.784500000000001
10
124.06200000000001
20
12.082600000000001
10
84.438100000000006
20
12.082600000000001
0
LINE
5
101
100
AcDbEntity
8
0
100
AcDbLine
10
177.68700000000001
20
3.0137700000000001
30
0
11
179.41200000000003
21
3.0137700000000001
31
0
0
LINE
5
102
100
AcDbEntity
8
0
100
AcDbLine
10
182.71299999999999
20
1.8148799999999998
30
0
11
182.71299999999999
21
3.0137700000000001
31
0
0
LWPOLYLINE
5
103
100
AcDbEntity
8
0
100
AcDbPolyline
90
4
70
1
43
0.0
10
66.62530000000001
20
16.784500000000001
10
66.62530000000001
20
2.7836400000000006
10
52.626000000000005
20
2.7836400000000001
10
52.626000000000005
20
16.784500000000001
0
LWPOLYLINE
5
104
100
AcDbEntity
8
0
100
AcDbPolyline
90
4
70
1
43
0.0
10
42.81280000000001
20
16.784500000000001
10
42.81280000000001
20
2.7836400000000006
10
28.811999999999998
20
2.7836400000000001
10
28.811999999999998
20
16.784500000000001
0
LWPOLYLINE
5
105
100
AcDbEntity
8
0
100
AcDbPolyline
90
4
70
1
43
0.0
10
193.12
20
16.784500000000001
10
207.11900000000003
20
16.784500000000001
10
207.11900000000003
20
2.7836400000000001
10
193.12
20
2.7836400000000001
0
LWPOLYLINE
5
106
100
AcDbEntity
8
0
100
AcDbPolyline
90
4
70
1
43
0.0
10
231.22
20
16.784500000000001
10
245.21900000000002
20
16.784500000000001
10
245.21900000000002
20
2.7836400000000006
10
231.22
20
2.7836400000000001
0
LWPOLYLINE
5
107
100
AcDbEntity
8
0
100
AcDbPolyline
90
4
70
1
43
0.0
10
0.095084600000000019
20
0.25769300000000001
10
0.095084600000000019
20
114.55799999999999
10
304.89499999999998
20
114.55799999999999
10
304.89499999999998
20
0.25769300000000328
0
LINE
5
108
100
AcDbEntity
8
0
100
AcDbLine
10
184.43799999999999
20
15.3142
30
0
11
177.68700000000001
21
15.3142
31
0
0
LINE
5
109
100
AcDbEntity
8
0
100
AcDbLine
10
138.06299999999999
20
7.4841100000000003
30
0
11
177.68700000000001
21
7.4841100000000003
31
0
0
LWPOLYLINE
5
110
100
AcDbEntity
8
0
100
AcDbPolyline
90
19
70
1
43
0.0
10
30.050899999999999
20
31.132600000000004
10
28.525400000000005
20
31.132600000000004
10
28.525400000000005
20
35.832999999999998
10
14.5259
20
35.832999999999998
10
28.525400000000005
20
21.833600000000001
10
28.525400000000005
20
26.534100000000002
10
30.050899999999999
20
26.534100000000002
10
30.050899999999999
20
22.063800000000001
10
31.774799999999999
20
22.063800000000001
10
31.774799999999999
20
20.863499999999998
10
35.075200000000002
20
20.863499999999998
10
35.075200000000002
20
22.063800000000001
10
36.800400000000003
20
22.063800000000001
10
36.800400000000003
20
28.3338
10
37.625900000000001
20
28.3338
10
37.625900000000001
20
31.132600000000004
10
36.800400000000003
20
31.132600000000004
10
36.800400000000003
20
34.3628
10
30.050899999999999
20
34.3628
0
LINE
5
111
100
AcDbEntity
8
0
100
AcDbLine
10
5.4253300000000007
20
31.132600000000004
30
0
11
5.4253300000000007
21
28.3338
31
0
0
LINE
5
112
100
AcDbEntity
8
0
100
AcDbLine
10
184.43799999999999
20
3.0137700000000001
30
0
11
184.43799999999999
21
9.2838399999999996
31
0
0
LINE
5
113
100
AcDbEntity
8
0
100
AcDbLine
10
6.2508000000000008
20
28.3338
30
0
11
6.2508000000000008
21
22.063800000000001
31
0
0
LINE
5
114
100
AcDbEntity
8
0
100
AcDbLine
10
11.2751
20
20.863499999999998
30
0
11
11.2751
21
22.063800000000001
31
0
0
LWPOLYLINE
5
115
100
AcDbEntity
8
0
100
AcDbPolyline
90
4
70
1
43
0.0
10
226.16900000000001
20
2.7836400000000001
10
212.16999999999999
20
2.7836400000000001
10
212.16999999999999
20
16.784500000000001
10
226.16900000000001
20
16.784500000000001
0
LINE
5
116
100
AcDbEntity
8
0
100
AcDbLine
10
185.262
20
9.2838399999999996
30
0
11
185.262
21
12.082600000000001
31
0
0
LWPOLYLINE
5
117
100
AcDbEntity
8
0
100
AcDbPolyline
90
4
70
1
43
0.0
10
5.0009100000000011
20
2.7836400000000001
10
5.0009100000000011
20
16.784500000000001
10
19.000399999999999
20
16.784500000000001
10
19.000399999999999
20
2.7836400000000006
0
LINE
5
118
100
AcDbEntity
8
0
100
AcDbLine
10
177.68700000000001
20
15.3142
30
0
11
177.68700000000001
21
12.082600000000001
31
0
0
LINE
5
119
100
AcDbEntity
8
0
100
AcDbLine
10
138.06299999999999
20
12.082600000000001
30
0
11
138.06299999999999
21
16.784500000000001
31
0
0
LINE
5
120
100
AcDbEntity
8
0
100
AcDbLine
10
7.9760900000000001
20
20.863499999999998
30
0
11
11.2751
21
20.863499999999998
31
0
0
LINE
5
121
100
AcDbEntity
8
0
100
AcDbLine
10
184.43799999999999
20
9.2838399999999996
30
0
11
185.262
21
9.2838399999999996
31
0
0
LINE
5
122
100
AcDbEntity
8
0
100
AcDbLine
10
138.06299999999999
20
2.7836400000000001
30
0
11
138.06299999999999
21
7.4841100000000003
31
0
0
LINE
5
123
100
AcDbEntity
8
0
100
AcDbLine
10
184.43799999999999
20
12.082600000000001
30
0
11
184.43799999999999
21
15.3142
31
0
0
LINE
5
124
100
AcDbEntity
8
0
100
AcDbLine
10
182.71299999999999
20
3.0137700000000001
30
0
11
184.43799999999999
21
3.0137700000000001
31
0
0
LINE
5
125
100
AcDbEntity
8
0
100
AcDbLine
10
179.41200000000003
20
3.0137700000000001
30
0
11
179.41200000000003
21
1.8148799999999998
31
0
0
LINE
5
126
100
AcDbEntity
8
0
100
AcDbLine
10
179.41200000000003
20
1.8148799999999998
30
0
11
182.71299999999999
21
1.8148799999999998
31
0
0
LINE
5
127
100
AcDbEntity
8
0
100
AcDbLine
10
177.68700000000001
20
12.082600000000001
30
0
11
138.06299999999999
21
12.082600000000001
31
0
0
LINE
5
128
100
AcDbEntity
8
0
100
AcDbLine
10
185.262
20
12.082600000000001
30
0
11
184.43799999999999
21
12.082600000000001
31
0
0
LINE
5
129
100
AcDbEntity
8
0
100
AcDbLine
10
177.68700000000001
20
7.4841100000000003
30
0
11
177.68700000000001
21
3.0137700000000001
31
0
0
LINE
5
130
100
AcDbEntity
8
0
100
AcDbLine
10
138.06299999999999
20
16.784500000000001
30
0
11
124.06200000000001
21
16.784500000000001
31
0
0
LWPOLYLINE
5
131
100
AcDbEntity
8
0
100
AcDbPolyline
90
4
70
1
43
0.0
10
59.481499999999997
20
21.833600000000001
10
45.482199999999999
20
21.833600000000001
10
45.482199999999999
20
35.832999999999998
10
59.481499999999997
20
35.832999999999998
0
LWPOLYLINE
5
132
100
AcDbEntity
8
0
100
AcDbPolyline
90
4
70
1
43
0.0
10
269.32000000000005
20
2.7836400000000001
10
269.32000000000005
20
16.784500000000001
10
283.31900000000007
20
16.784500000000001
10
283.31900000000007
20
2.7836400000000001
0
LINE
5
133
100
AcDbEntity
8
0
100
AcDbLine
10
14.5259
20
35.832999999999998
30
0
11
14.5259
21
31.132600000000004
31
0
0
LINE
5
134
100
AcDbEntity
8
0
100
AcDbLine
10
13.000400000000001
20
26.534100000000002
30
0
11
14.5259
21
26.534100000000002
31
0
0
LWPOLYLINE
5
135
100
AcDbEntity
8
0
100
AcDbPolyline
90
4
70
1
43
0.0
10
64.532200000000003
20
21.833600000000001
10
64.532200000000003
20
35.832999999999998
10
78.531499999999994
20
35.832999999999998
10
78.531499999999994
20
21.833600000000001
0
LWPOLYLINE
5
136
100
AcDbEntity
8
0
100
AcDbPolyline
90
4
70
1
43
0.0
10
302.36900000000003
20
2.7836400000000001
10
288.37
20
2.7836400000000001
10
288.37
20
16.784500000000001
10
302.36900000000003
20
16.784500000000001
0
LWPOLYLINE
5
137
100
AcDbEntity
8
0
100
AcDbPolyline
90
4
70
1
43
0.0
10
250.27000000000001
20
16.784500000000001
10
264.26900000000001
20
16.784500000000001
10
264.26900000000001
20
2.7836400000000006
10
250.27000000000001
20
2.7836400000000001
0
LINE
5
138
100
AcDbEntity
8
0
100
AcDbLine
10
14.5259
20
31.132600000000004
30
0
11
13.000400000000001
21
31.132600000000004
31
0
0
LINE
5
139
100
AcDbEntity
8
0
100
AcDbLine
10
14.5259
20
21.833600000000001
30
0
11
28.525400000000005
21
21.833600000000001
31
0
0
LWPOLYLINE
5
140
100
AcDbEntity
8
0
100
AcDbPolyline
90
4
70
1
43
0.0
10
83.582200000000014
20
35.832999999999998
10
97.581500000000005
20
35.832999999999998
10
97.581500000000005
20
21.833600000000001
10
83.582200000000014
20
21.833600000000001
0
LINE
5
141
100
AcDbEntity
8
0
100
AcDbLine
10
13.000400000000001
20
31.132600000000004
30
0
11
13.000400000000001
21
34.3628
31
0
0
LINE
5
142
100
AcDbEntity
8
0
100
AcDbLine
10
6.2508000000000008
20
34.3628
30
0
11
6.2508000000000008
21
31.132600000000004
31
0
0
LINE
5
143
100
AcDbEntity
8
0
100
AcDbLine
10
14.5259
20
26.534100000000002
30
0
11
14.5259
21
21.833600000000001
31
0
0
LINE
5
144
100
AcDbEntity
8
0
100
AcDbLine
10
11.2751
20
22.063800000000001
30
0
11
13.000400000000001
21
22.063800000000001
31
0
0
LWPOLYLINE
5
145
100
AcDbEntity
8
0
100
AcDbPolyline
90
4
70
1
43
0.0
10
102.63200000000001
20
35.832999999999998
10
116.63200000000002
20
35.832999999999998
10
116.63200000000002
20
21.833600000000001
10
102.63200000000001
20
21.833600000000001
0
LINE
5
146
100
AcDbEntity
8
0
100
AcDbLine
10
6.2508000000000008
20
22.063800000000001
30
0
11
7.9760900000000001
21
22.063800000000001
31
0
0
LINE
5
147
100
AcDbEntity
8
0
100
AcDbLine
10
13.000400000000001
20
34.3628
30
0
11
6.2508000000000008
21
34.3628
31
0
0
LWPOLYLINE
5
148
100
AcDbEntity
8
0
100
AcDbPolyline
90
19
70
1
43
0.0
10
249.13700000000003
20
47.383699999999997
10
249.13700000000003
20
41.113799999999998
10
250.86200000000002
20
41.113799999999998
10
250.86200000000002
20
39.913600000000002
10
254.161
20
39.913600000000002
10
254.161
20
41.113799999999998
10
255.88800000000003
20
41.113799999999998
10
255.88800000000003
20
45.582799999999999
10
257.41200000000003
20
45.582799999999999
10
257.41200000000003
20
40.883800000000001
10
271.41300000000001
20
40.883800000000001
10
257.41200000000003
20
54.883099999999999
10
257.41200000000003
20
50.182600000000008
10
255.88800000000003
20
50.182600000000008
10
255.88800000000003
20
53.412700000000008
10
249.13700000000003
20
53.412700000000008
10
249.13700000000003
20
50.182600000000008
10
248.31299999999999
20
50.182600000000008
10
248.31299999999999
20
47.383699999999997
0
LINE
5
149
100
AcDbEntity
8
0
100
AcDbLine
10
6.2508000000000008
20
31.132600000000004
30
0
11
5.4253300000000007
21
31.132600000000004
31
0
0
LINE
5
150
100
AcDbEntity
8
0
100
AcDbLine
10
5.4253300000000007
20
28.3338
30
0
11
6.2508000000000008
21
28.3338
31
0
0
LINE
5
151
100
AcDbEntity
8
0
100
AcDbLine
10
7.9760900000000001
20
22.063800000000001
30
0
11
7.9760900000000001
21
20.863499999999998
31
0
0
LINE
5
152
100
AcDbEntity
8
0
100
AcDbLine
10
13.000400000000001
20
22.063800000000001
30
0
11
13.000400000000001
21
26.534100000000002
31
0
0
LWPOLYLINE
5
153
100
AcDbEntity
8
0
100
AcDbPolyline
90
4
70
1
43
0.0
10
288.37
20
21.833600000000001
10
288.37
20
35.832999999999998
10
302.36900000000003
20
35.832999999999998
10
302.36900000000003
20
21.833600000000001
0
LINE
5
154
100
AcDbEntity
8
0
100
AcDbLine
10
274.66200000000003
20
41.113799999999998
30
0
11
274.66200000000003
21
39.913600000000002
31
0
0
LWPOLYLINE
5
155
100
AcDbEntity
8
0
100
AcDbPolyline
90
4
70
1
43
0.0
10
178.83199999999999
20
21.833600000000001
10
178.83199999999999
20
35.832999999999998
10
192.83199999999999
20
35.832999999999998
10
192.83199999999999
20
21.833600000000001
0
LWPOLYLINE
5
156
100
AcDbEntity
8
0
100
AcDbPolyline
90
4
70
1
43
0.0
10
121.682
20
35.832999999999998
10
135.68200000000002
20
35.832999999999998
10
135.68200000000002
20
21.833600000000001
10
121.682
20
21.833600000000001
0
LWPOLYLINE
5
157
100
AcDbEntity
8
0
100
AcDbPolyline
90
4
70
1
43
0.0
10
269.32000000000005
20
21.833600000000001
10
269.32000000000005
20
35.832999999999998
10
283.31900000000007
20
35.832999999999998
10
283.31900000000007
20
21.833600000000001
0
LWPOLYLINE
5
158
100
AcDbEntity
8
0
100
AcDbPolyline
90
4
70
1
43
0.0
10
140.732
20
35.832999999999998
10
154.732
20
35.832999999999998
10
154.732
20
21.833600000000001
10
140.732
20
21.833600000000001
0
LWPOLYLINE
5
159
100
AcDbEntity
8
0
100
AcDbPolyline
90
4
70
1
43
0.0
10
197.88200000000003
20
35.832999999999998
10
211.88200000000001
20
35.832999999999998
10
211.88200000000001
20
21.833600000000001
10
197.88200000000003
20
21.833600000000001
0
LWPOLYLINE
5
160
100
AcDbEntity
8
0
100
AcDbPolyline
90
4
70
1
43
0.0
10
159.78200000000001
20
21.833600000000001
10
159.78200000000001
20
35.832999999999998
10
173.78200000000004
20
35.832999999999998
10
173.78200000000004
20
21.833600000000001
0
LWPOLYLINE
5
161
100
AcDbEntity
8
0
100
AcDbPolyline
90
4
70
1
43
0.0
10
243.126
20
21.833600000000001
10
243.126
20
35.832999999999998
10
257.125
20
35.832999999999998
10
257.125
20
21.833600000000001
0
LWPOLYLINE
5
162
100
AcDbEntity
8
0
100
AcDbPolyline
90
4
70
1
43
0.0
10
216.93200000000004
20
21.833600000000001
10
216.93200000000004
20
35.832999999999998
10
230.93200000000002
20
35.832999999999998
10
230.93200000000002
20
21.833600000000001
0
LINE
5
163
100
AcDbEntity
8
0
100
AcDbLine
10
271.41300000000001
20
45.582799999999999
30
0
11
272.93700000000001
21
45.582799999999999
31
0
0
LINE
5
164
100
AcDbEntity
8
0
100
AcDbLine
10
272.93700000000001
20
45.582799999999999
30
0
11
272.93700000000001
21
41.113799999999998
31
0
0
LINE
5
165
100
AcDbEntity
8
0
100
AcDbLine
10
274.66200000000003
20
39.913600000000002
30
0
11
277.96299999999997
21
39.913600000000002
31
0
0
LINE
5
166
100
AcDbEntity
8
0
100
AcDbLine
10
271.41300000000001
20
40.883800000000001
30
0
11
271.41300000000001
21
45.582799999999999
31
0
0
LINE
5
167
100
AcDbEntity
8
0
100
AcDbLine
10
277.96299999999997
20
39.913600000000002
30
0
11
277.96299999999997
21
41.113799999999998
31
0
0
LINE
5
168
100
AcDbEntity
8
0
100
AcDbLine
10
272.93700000000001
20
41.113799999999998
30
0
11
274.66200000000003
21
41.113799999999998
31
0
0
LINE
5
169
100
AcDbEntity
8
0
100
AcDbLine
10
279.68799999999999
20
47.383699999999997
30
0
11
280.512
21
47.383699999999997
31
0
0
LWPOLYLINE
5
170
100
AcDbEntity
8
0
100
AcDbPolyline
90
4
70
1
43
0.0
10
183.30700000000004
20
54.883099999999999
10
183.30700000000004
20
40.883800000000001
10
169.30700000000002
20
40.883800000000001
10
169.30700000000002
20
54.883099999999999
0
LWPOLYLINE
5
171
100
AcDbEntity
8
0
100
AcDbPolyline
90
4
70
1
43
0.0
10
112.15700000000001
20
40.883800000000001
10
112.15700000000001
20
54.883099999999999
10
126.15700000000002
20
54.883099999999999
10
126.15700000000002
20
40.883800000000001
0
LINE
5
172
100
AcDbEntity
8
0
100
AcDbLine
10
271.41300000000001
20
54.883099999999999
30
0
11
257.41200000000003
21
54.883099999999999
31
0
0
LWPOLYLINE
5
173
100
AcDbEntity
8
0
100
AcDbPolyline
90
4
70
1
43
0.0
10
207.40700000000004
20
54.883099999999999
10
221.40700000000004
20
54.883099999999999
10
221.40700000000004
20
40.883800000000001
10
207.40700000000004
20
40.883800000000001
0
LWPOLYLINE
5
174
100
AcDbEntity
8
0
100
AcDbPolyline
90
4
70
1
43
0.0
10
164.25700000000003
20
40.883800000000001
10
150.25700000000001
20
40.883800000000001
10
150.25700000000001
20
54.883099999999999
10
164.25700000000003
20
54.883099999999999
0
LWPOLYLINE
5
175
100
AcDbEntity
8
0
100
AcDbPolyline
90
4
70
1
43
0.0
10
226.45700000000002
20
54.883099999999999
10
240.45699999999999
20
54.883099999999999
10
240.45699999999999
20
40.883800000000001
10
226.45700000000002
20
40.883800000000001
0
LWPOLYLINE
5
176
100
AcDbEntity
8
0
100
AcDbPolyline
90
4
70
1
43
0.0
10
55.007200000000005
20
40.883800000000001
10
55.007200000000005
20
54.883099999999999
10
69.006500000000003
20
54.883099999999999
10
69.006500000000003
20
40.883800000000001
0
LWPOLYLINE
5
177
100
AcDbEntity
8
0
100
AcDbPolyline
90
4
70
1
43
0.0
10
9.7620300000000011
20
40.883800000000001
10
9.7620300000000011
20
54.883099999999999
10
23.762900000000002
20
54.883099999999999
10
23.762900000000002
20
40.883800000000001
0
LINE
5
178
100
AcDbEntity
8
0
100
AcDbLine
10
280.512
20
47.383699999999997
30
0
11
280.512
21
50.182600000000008
31
0
0
LWPOLYLINE
5
179
100
AcDbEntity
8
0
100
AcDbPolyline
90
4
70
1
43
0.0
10
302.36900000000003
20
54.883099999999999
10
302.36900000000003
20
40.883800000000001
10
288.37
20
40.883800000000001
10
288.37
20
54.883099999999999
0
LWPOLYLINE
5
180
100
AcDbEntity
8
0
100
AcDbPolyline
90
4
70
1
43
0.0
10
49.956500000000005
20
54.883099999999999
10
49.956500000000005
20
40.883800000000001
10
35.9572
20
40.883800000000001
10
35.9572
20
54.883099999999999
0
LWPOLYLINE
5
181
100
AcDbEntity
8
0
100
AcDbPolyline
90
4
70
1
43
0.0
10
88.0565
20
54.883099999999999
10
88.0565
20
40.883800000000001
10
74.057199999999995
20
40.883800000000001
10
74.057199999999995
20
54.883099999999999
0
LWPOLYLINE
5
182
100
AcDbEntity
8
0
100
AcDbPolyline
90
4
70
1
43
0.0
10
202.35700000000003
20
54.883099999999999
10
202.35700000000003
20
40.883800000000001
10
188.357
20
40.883800000000001
10
188.357
20
54.883099999999999
0
LWPOLYLINE
5
183
100
AcDbEntity
8
0
100
AcDbPolyline
90
4
70
1
43
0.0
10
7.3821600000000007
20
73.933099999999996
10
21.381700000000002
20
73.933099999999996
10
21.381700000000002
20
59.933800000000005
10
7.3821600000000007
20
59.933800000000005
0
LWPOLYLINE
5
184
100
AcDbEntity
8
0
100
AcDbPolyline
90
4
70
1
43
0.0
10
107.395
20
73.933099999999996
10
121.39400000000001
20
73.933099999999996
10
121.39400000000001
20
59.933800000000005
10
107.395
20
59.933800000000005
0
LINE
5
185
100
AcDbEntity
8
0
100
AcDbLine
10
279.68799999999999
20
50.182600000000008
30
0
11
279.68799999999999
21
53.412700000000008
31
0
0
LWPOLYLINE
5
186
100
AcDbEntity
8
0
100
AcDbPolyline
90
4
70
1
43
0.0
10
93.10720000000002
20
54.883099999999999
10
107.10700000000003
20
54.883099999999999
10
107.10700000000003
20
40.883800000000001
10
93.10720000000002
20
40.883800000000001
0
LINE
5
187
100
AcDbEntity
8
0
100
AcDbLine
10
279.68799999999999
20
53.412700000000008
30
0
11
272.93700000000001
21
53.412700000000008
31
0
0
LWPOLYLINE
5
188
100
AcDbEntity
8
0
100
AcDbPolyline
90
4
70
1
43
0.0
10
145.20699999999999
20
54.883099999999999
10
145.20699999999999
20
40.883800000000001
10
131.20699999999999
20
40.883800000000001
10
131.20699999999999
20
54.883099999999999
0
LINE
5
189
100
AcDbEntity
8
0
100
AcDbLine
10
280.512
20
50.182600000000008
30
0
11
279.68799999999999
21
50.182600000000008
31
0
0
LINE
5
190
100
AcDbEntity
8
0
100
AcDbLine
10
279.68799999999999
20
41.113799999999998
30
0
11
279.68799999999999
21
47.383699999999997
31
0
0
LINE
5
191
100
AcDbEntity
8
0
100
AcDbLine
10
272.93700000000001
20
53.412700000000008
30
0
11
272.93700000000001
21
50.182600000000008
31
0
0
LINE
5
192
100
AcDbEntity
8
0
100
AcDbLine
10
272.93700000000001
20
50.182600000000008
30
0
11
271.41300000000001
21
50.182600000000008
31
0
0
LINE
5
193
100
AcDbEntity
8
0
100
AcDbLine
10
277.96299999999997
20
41.113799999999998
30
0
11
279.68799999999999
21
41.113799999999998
31
0
0
LINE
5
194
100
AcDbEntity
8
0
100
AcDbLine
10
271.41300000000001
20
50.182600000000008
30
0
11
271.41300000000001
21
54.883099999999999
31
0
0
LWPOLYLINE
5
195
100
AcDbEntity
8
0
100
AcDbPolyline
90
4
70
1
43
0.0
10
45.194000000000003
20
73.933099999999996
10
45.194000000000003
20
59.933800000000005
10
31.194700000000001
20
59.933800000000005
10
31.194700000000001
20
73.933099999999996
0
LWPOLYLINE
5
196
100
AcDbEntity
8
0
100
AcDbPolyline
90
4
70
1
43
0.0
10
183.595
20
59.933800000000005
10
183.595
20
73.933099999999996
10
197.59400000000002
20
73.933099999999996
10
197.59400000000002
20
59.933800000000005
0
LWPOLYLINE
5
197
100
AcDbEntity
8
0
100
AcDbPolyline
90
4
70
1
43
0.0
10
264.55700000000002
20
73.933099999999996
10
278.55700000000002
20
73.933099999999996
10
278.55700000000002
20
59.933800000000005
10
264.55700000000002
20
59.933800000000005
0
LWPOLYLINE
5
198
100
AcDbEntity
8
0
100
AcDbPolyline
90
4
70
1
43
0.0
10
202.64500000000001
20
59.933800000000005
10
202.64500000000001
20
73.933099999999996
10
216.64400000000001
20
73.933099999999996
10
216.64400000000001
20
59.933800000000005
0
LWPOLYLINE
5
199
100
AcDbEntity
8
0
100
AcDbPolyline
90
4
70
1
43
0.0
10
126.44500000000001
20
73.933099999999996
10
140.44399999999999
20
73.933099999999996
10
140.44399999999999
20
59.933800000000005
10
126.44500000000001
20
59.933800000000005
0
LWPOLYLINE
5
200
100
AcDbEntity
8
0
100
AcDbPolyline
90
4
70
1
43
0.0
10
50.244700000000009
20
73.933099999999996
10
64.244
20
73.933099999999996
10
64.244
20
59.933800000000005
10
50.244700000000009
20
59.933800000000005
0
LWPOLYLINE
5
201
100
AcDbEntity
8
0
100
AcDbPolyline
90
4
70
1
43
0.0
10
69.294700000000006
20
73.933099999999996
10
83.293999999999997
20
73.933099999999996
10
83.293999999999997
20
59.933800000000005
10
69.294700000000006
20
59.933800000000005
0
LWPOLYLINE
5
202
100
AcDbEntity
8
0
100
AcDbPolyline
90
4
70
1
43
0.0
10
221.69499999999999
20
73.933099999999996
10
235.69400000000002
20
73.933099999999996
10
235.69400000000002
20
59.933800000000005
10
221.69499999999999
20
59.933800000000005
0
LWPOLYLINE
5
203
100
AcDbEntity
8
0
100
AcDbPolyline
90
19
70
1
43
0.0
10
258.26900000000001
20
91.512699999999995
10
251.52000000000001
20
91.512699999999995
10
251.52000000000001
20
88.282600000000002
10
250.69400000000002
20
88.282600000000002
10
250.69400000000002
20
85.483699999999999
10
251.52000000000001
20
85.483699999999999
10
251.52000000000001
20
79.213800000000006
10
253.24299999999999
20
79.213800000000006
10
253.24299999999999
20
78.013599999999997
10
256.54400000000004
20
78.013599999999997
10
256.54400000000004
20
79.213800000000006
10
258.26900000000001
20
79.213800000000006
10
258.26900000000001
20
83.6828
10
259.79500000000002
20
83.6828
10
259.79500000000002
20
78.983800000000002
10
273.79400000000004
20
78.983800000000002
10
259.79500000000002
20
92.983099999999993
10
259.79500000000002
20
88.282600000000002
10
258.26900000000001
20
88.282600000000002
0
LWPOLYLINE
5
204
100
AcDbEntity
8
0
100
AcDbPolyline
90
4
70
1
43
0.0
10
254.74400000000003
20
59.933800000000005
10
240.745
20
59.933800000000005
10
240.745
20
73.933099999999996
10
254.74400000000003
20
73.933099999999996
0
LWPOLYLINE
5
205
100
AcDbEntity
8
0
100
AcDbPolyline
90
4
70
1
43
0.0
10
164.54499999999999
20
59.933800000000005
10
164.54499999999999
20
73.933099999999996
10
178.54400000000001
20
73.933099999999996
10
178.54400000000001
20
59.933800000000005
0
LWPOLYLINE
5
206
100
AcDbEntity
8
0
100
AcDbPolyline
90
4
70
1
43
0.0
10
88.344700000000017
20
59.933800000000005
10
88.344700000000017
20
73.933099999999996
10
102.34400000000001
20
73.933099999999996
10
102.34400000000001
20
59.933800000000005
0
LWPOLYLINE
5
207
100
AcDbEntity
8
0
100
AcDbPolyline
90
4
70
1
43
0.0
10
145.495
20
59.933800000000005
10
145.495
20
73.933099999999996
10
159.494
20
73.933099999999996
10
159.494
20
59.933800000000005
0
LWPOLYLINE
5
208
100
AcDbEntity
8
0
100
AcDbPolyline
90
4
70
1
43
0.0
10
302.36900000000003
20
73.933099999999996
10
302.36900000000003
20
59.933800000000005
10
288.37
20
59.933800000000005
10
288.37
20
73.933099999999996
0
LWPOLYLINE
5
209
100
AcDbEntity
8
0
100
AcDbPolyline
90
4
70
1
43
0.0
10
78.819699999999997
20
78.983800000000002
10
78.819699999999997
20
92.983099999999993
10
92.819000000000003
20
92.983099999999993
10
92.819000000000003
20
78.983800000000002
0
LINE
5
210
100
AcDbEntity
8
0
100
AcDbLine
10
280.34399999999999
20
78.013599999999997
30
0
11
280.34399999999999
21
79.213800000000006
31
0
0
LINE
5
211
100
AcDbEntity
8
0
100
AcDbLine
10
282.89499999999998
20
88.282600000000002
30
0
11
282.06900000000007
21
88.282600000000002
31
0
0
LINE
5
212
100
AcDbEntity
8
0
100
AcDbLine
10
273.79400000000004
20
88.282600000000002
30
0
11
273.79400000000004
21
92.983099999999993
31
0
0
LWPOLYLINE
5
213
100
AcDbEntity
8
0
100
AcDbPolyline
90
4
70
1
43
0.0
10
111.86900000000001
20
78.983800000000002
10
97.868300000000019
20
78.983800000000002
10
97.868300000000019
20
92.983099999999993
10
111.86900000000001
20
92.983099999999993
0
LWPOLYLINE
5
214
100
AcDbEntity
8
0
100
AcDbPolyline
90
4
70
1
43
0.0
10
116.91800000000001
20
92.983099999999993
10
130.91899999999998
20
92.983099999999993
10
130.91899999999998
20
78.983800000000002
10
116.91800000000001
20
78.983800000000002
0
LWPOLYLINE
5
215
100
AcDbEntity
8
0
100
AcDbPolyline
90
4
70
1
43
0.0
10
149.96899999999999
20
92.983099999999993
10
149.96899999999999
20
78.983800000000002
10
135.97000000000003
20
78.983800000000002
10
135.97000000000003
20
92.983099999999993
0
LWPOLYLINE
5
216
100
AcDbEntity
8
0
100
AcDbPolyline
90
4
70
1
43
0.0
10
155.02000000000004
20
92.983099999999993
10
169.01900000000001
20
92.983099999999993
10
169.01900000000001
20
78.983800000000002
10
155.02000000000004
20
78.983800000000002
0
LWPOLYLINE
5
217
100
AcDbEntity
8
0
100
AcDbPolyline
90
4
70
1
43
0.0
10
35.669000000000004
20
92.983099999999993
10
35.669000000000004
20
78.983800000000002
10
21.669699999999999
20
78.983800000000002
10
21.669699999999999
20
92.983099999999993
0
LINE
5
218
100
AcDbEntity
8
0
100
AcDbLine
10
273.79400000000004
20
92.983099999999993
30
0
11
259.79500000000002
21
92.983099999999993
31
0
0
LINE
5
219
100
AcDbEntity
8
0
100
AcDbLine
10
282.06900000000007
20
88.282600000000002
30
0
11
282.06900000000007
21
91.512699999999995
31
0
0
LINE
5
220
100
AcDbEntity
8
0
100
AcDbLine
10
275.31999999999999
20
91.512699999999995
30
0
11
275.31999999999999
21
88.282600000000002
31
0
0
LWPOLYLINE
5
221
100
AcDbEntity
8
0
100
AcDbPolyline
90
4
70
1
43
0.0
10
54.718999999999994
20
78.983800000000002
10
40.719700000000003
20
78.983800000000002
10
40.719700000000003
20
92.983099999999993
10
54.718999999999994
20
92.983099999999993
0
LWPOLYLINE
5
222
100
AcDbEntity
8
0
100
AcDbPolyline
90
4
70
1
43
0.0
10
2.61965
20
78.983800000000002
10
2.61965
20
92.983099999999993
10
16.619199999999999
20
92.983099999999993
10
16.619199999999999
20
78.983800000000002
0
LINE
5
223
100
AcDbEntity
8
0
100
AcDbLine
10
275.31999999999999
20
79.213800000000006
30
0
11
277.04500000000002
21
79.213800000000006
31
0
0
LWPOLYLINE
5
224
100
AcDbEntity
8
0
100
AcDbPolyline
90
4
70
1
43
0.0
10
73.768999999999991
20
92.983099999999993
10
73.768999999999991
20
78.983800000000002
10
59.769700000000007
20
78.983800000000002
10
59.769700000000007
20
92.983099999999993
0
LINE
5
225
100
AcDbEntity
8
0
100
AcDbLine
10
282.06900000000007
20
85.483699999999999
30
0
11
282.89499999999998
21
85.483699999999999
31
0
0
LINE
5
226
100
AcDbEntity
8
0
100
AcDbLine
10
273.79400000000004
20
83.6828
30
0
11
275.31999999999999
21
83.6828
31
0
0
LINE
5
227
100
AcDbEntity
8
0
100
AcDbLine
10
282.06900000000007
20
79.213800000000006
30
0
11
282.06900000000007
21
85.483699999999999
31
0
0
LINE
5
228
100
AcDbEntity
8
0
100
AcDbLine
10
282.06900000000007
20
91.512699999999995
30
0
11
275.31999999999999
21
91.512699999999995
31
0
0
LINE
5
229
100
AcDbEntity
8
0
100
AcDbLine
10
275.31999999999999
20
83.6828
30
0
11
275.31999999999999
21
79.213800000000006
31
0
0
LINE
5
230
100
AcDbEntity
8
0
100
AcDbLine
10
273.79400000000004
20
78.983800000000002
30
0
11
273.79400000000004
21
83.6828
31
0
0
LINE
5
231
100
AcDbEntity
8
0
100
AcDbLine
10
277.04500000000002
20
78.013599999999997
30
0
11
280.34399999999999
21
78.013599999999997
31
0
0
LINE
5
232
100
AcDbEntity
8
0
100
AcDbLine
10
282.89499999999998
20
85.483699999999999
30
0
11
282.89499999999998
21
88.282600000000002
31
0
0
LINE
5
233
100
AcDbEntity
8
0
100
AcDbLine
10
280.34399999999999
20
79.213800000000006
30
0
11
282.06900000000007
21
79.213800000000006
31
0
0
LINE
5
234
100
AcDbEntity
8
0
100
AcDbLine
10
277.04500000000002
20
79.213800000000006
30
0
11
277.04500000000002
21
78.013599999999997
31
0
0
LWPOLYLINE
5
235
100
AcDbEntity
8
0
100
AcDbPolyline
90
4
70
1
43
0.0
10
188.06900000000002
20
92.983099999999993
10
188.06900000000002
20
78.983800000000002
10
174.06999999999999
20
78.983800000000002
10
174.06999999999999
20
92.983099999999993
0
LWPOLYLINE
5
236
100
AcDbEntity
8
0
100
AcDbPolyline
90
4
70
1
43
0.0
10
207.11900000000003
20
78.983800000000002
10
193.12
20
78.983800000000002
10
193.12
20
92.983099999999993
10
207.11900000000003
20
92.983099999999993
0
LWPOLYLINE
5
237
100
AcDbEntity
8
0
100
AcDbPolyline
90
4
70
1
43
0.0
10
21.669699999999999
20
98.033800000000014
10
21.669699999999999
20
112.03299999999999
10
35.669000000000004
20
112.03299999999999
10
35.669000000000004
20
98.033800000000014
0
LWPOLYLINE
5
238
100
AcDbEntity
8
0
100
AcDbPolyline
90
4
70
1
43
0.0
10
73.768999999999991
20
112.03299999999999
10
73.768999999999991
20
98.033800000000014
10
59.769700000000007
20
98.033800000000014
10
59.769700000000007
20
112.03299999999999
0
LWPOLYLINE
5
239
100
AcDbEntity
8
0
100
AcDbPolyline
90
4
70
1
43
0.0
10
16.619199999999999
20
98.033800000000014
10
2.61965
20
98.033800000000014
10
2.61965
20
112.03299999999999
10
16.619199999999999
20
112.03299999999999
0
LWPOLYLINE
5
240
100
AcDbEntity
8
0
100
AcDbPolyline
90
4
70
1
43
0.0
10
155.02000000000004
20
112.03299999999999
10
169.01900000000001
20
112.03299999999999
10
169.01900000000001
20
98.033800000000014
10
155.02000000000004
20
98.033800000000014
0
LWPOLYLINE
5
241
100
AcDbEntity
8
0
100
AcDbPolyline
90
4
70
1
43
0.0
10
231.22
20
78.983800000000002
10
231.22
20
92.983099999999993
10
245.21900000000002
20
92.983099999999993
10
245.21900000000002
20
78.983800000000002
0
LWPOLYLINE
5
242
100
AcDbEntity
8
0
100
AcDbPolyline
90
4
70
1
43
0.0
10
78.819699999999997
20
112.03299999999999
10
92.819000000000003
20
112.03299999999999
10
92.819000000000003
20
98.033800000000014
10
78.819699999999997
20
98.033800000000014
0
LWPOLYLINE
5
243
100
AcDbEntity
8
0
100
AcDbPolyline
90
4
70
1
43
0.0
10
226.16900000000001
20
92.983099999999993
10
226.16900000000001
20
78.983800000000002
10
212.16999999999999
20
78.983800000000002
10
212.16999999999999
20
92.983099999999993
0
LWPOLYLINE
5
244
100
AcDbEntity
8
0
100
AcDbPolyline
90
4
70
1
43
0.0
10
288.37
20
78.983800000000002
10
288.37
20
92.983099999999993
10
302.36900000000003
20
92.983099999999993
10
302.36900000000003
20
78.983800000000002
0
LWPOLYLINE
5
245
100
AcDbEntity
8
0
100
AcDbPolyline
90
4
70
1
43
0.0
10
130.91899999999998
20
98.033800000000014
10
116.91800000000001
20
98.033800000000014
10
116.91800000000001
20
112.03299999999999
10
130.91899999999998
20
112.03299999999999
0
LWPOLYLINE
5
246
100
AcDbEntity
8
0
100
AcDbPolyline
90
4
70
1
43
0.0
10
40.719700000000003
20
98.033800000000014
10
40.719700000000003
20
112.03299999999999
10
54.718999999999994
20
112.03299999999999
10
54.718999999999994
20
98.033800000000014
0
LWPOLYLINE
5
247
100
AcDbEntity
8
0
100
AcDbPolyline
90
4
70
1
43
0.0
10
111.86900000000001
20
98.033800000000014
10
97.868300000000019
20
98.033800000000014
10
97.868300000000019
20
112.03299999999999
10
111.86900000000001
20
112.03299999999999
0
LWPOLYLINE
5
248
100
AcDbEntity
8
0
100
AcDbPolyline
90
4
70
1
43
0.0
10
135.97000000000003
20
98.033800000000014
10
135.97000000000003
20
112.03299999999999
10
149.96899999999999
20
112.03299999999999
10
149.96899999999999
20
98.033800000000014
0
LWPOLYLINE
5
249
100
AcDbEntity
8
0
100
AcDbPolyline
90
4
70
1
43
0.0
10
174.06999999999999
20
98.033800000000014
10
174.06999999999999
20
112.03299999999999
10
188.06900000000002
20
112.03299999999999
10
188.06900000000002
20
98.033800000000014
0
LWPOLYLINE
5
250
100
AcDbEntity
8
0
100
AcDbPolyline
90
4
70
1
43
0.0
10
193.12
20
112.03299999999999
10
207.11900000000003
20
112.03299999999999
10
207.11900000000003
20
98.033800000000014
10
193.12
20
98.033800000000014
0
LINE
5
251
100
AcDbEntity
8
0
100
AcDbLine
10
275.31999999999999
20
88.282600000000002
30
0
11
273.79400000000004
21
88.282600000000002
31
0
0
LWPOLYLINE
5
252
100
AcDbEntity
8
0
100
AcDbPolyline
90
4
70
1
43
0.0
10
250.27000000000001
20
98.033800000000014
10
250.27000000000001
20
112.03299999999999
10
264.26900000000001
20
112.03299999999999
10
264.26900000000001
20
98.033800000000014
0
LWPOLYLINE
5
253
100
AcDbEntity
8
0
100
AcDbPolyline
90
4
70
1
43
0.0
10
245.21900000000002
20
112.03299999999999
10
245.21900000000002
20
98.033800000000014
10
231.22
20
98.033800000000014
10
231.22
20
112.03299999999999
0
LWPOLYLINE
5
254
100
AcDbEntity
8
0
100
AcDbPolyline
90
4
70
1
43
0.0
10
226.16900000000001
20
98.033800000000014
10
212.16999999999999
20
98.033800000000014
10
212.16999999999999
20
112.03299999999999
10
226.16900000000001
20
112.03299999999999
0
LWPOLYLINE
5
255
100
AcDbEntity
8
0
100
AcDbPolyline
90
4
70
1
43
0.0
10
302.36900000000003
20
98.033800000000014
10
288.37
20
98.033800000000014
10
288.37
20
112.03299999999999
10
302.36900000000003
20
112.03299999999999
0
LWPOLYLINE
5
256
100
AcDbEntity
8
0
100
AcDbPolyline
90
4
70
1
43
0.0
10
283.31900000000007
20
98.033800000000014
10
269.32000000000005
20
98.033800000000014
10
269.32000000000005
20
112.03299999999999
10
283.31900000000007
20
112.03299999999999
0
LWPOLYLINE
5
257
100
AcDbEntity
8
0
100
AcDbPolyline
90
8
70
1
43
0.0
10
309.89499999999998
20
-9.7423069999999932
10
-4.904915399999993
20
-9.7423069999999949
42
-0.41421356237309476
10
-9.9049154000000108
20
-4.7423069999999834
10
-9.9049154000000073
20
119.55799999999998
42
-0.41421356237309503
10
-4.9049153999999895
20
124.55799999999999
10
309.89499999999998
20
124.55799999999999
42
-0.41421356237309398
10
314.89500000000004
20
119.55799999999998
10
314.89499999999998
20
-4.7423069999999736
42
-0.41421356237309503
0
LWPOLYLINE
5
258
100
AcDbEntity
8
0
100
AcDbPolyline
90
4
70
1
43
0.0
10
188.56250000000003
20
-1.2159300000000037
10
73.562500000000043
20
-1.2159300000000037
10
73.562500000000043
20
20.78407
10
188.56250000000003
20
20.78407
0
LINE
5
259
100
AcDbEntity
8
0
100
AcDbLine
10
188.56250000000003
20
-1.2159300000000037
30
0
11
73.562500000000043
21
20.78407
31
0
0
LINE
5
260
100
AcDbEntity
8
0
100
AcDbLine
10
73.562500000000043
20
-1.2159300000000037
30
0
11
188.56250000000003
21
20.78407
31
0
0
LWPOLYLINE
5
261
100
AcDbEntity
8
0
100
AcDbPolyline
90
4
70
1
43
0.0
10
42.525650000000006
20
17.833299999999998
10
0.52565000000000639
20
17.833299999999998
10
0.52565000000000395
20
39.833299999999994
10
42.525650000000006
20
39.833300000000001
0
LINE
5
262
100
AcDbEntity
8
0
100
AcDbLine
10
42.525650000000006
20
17.833299999999998
30
0
11
0.52565000000000395
21
39.833299999999994
31
0
0
LINE
5
263
100
AcDbEntity
8
0
100
AcDbLine
10
0.52565000000000639
20
17.833299999999998
30
0
11
42.525650000000006
21
39.833300000000001
31
0
0
LWPOLYLINE
5
264
100
AcDbEntity
8
0
100
AcDbPolyline
90
4
70
1
43
0.0
10
285.41250000000002
20
36.883449999999996
10
243.41250000000005
20
36.883449999999996
10
243.41250000000005
20
58.883450000000003
10
285.41250000000002
20
58.883450000000003
0
LINE
5
265
100
AcDbEntity
8
0
100
AcDbLine
10
285.41250000000002
20
36.883449999999996
30
0
11
243.41250000000005
21
58.883450000000003
31
0
0
LINE
5
266
100
AcDbEntity
8
0
100
AcDbLine
10
243.41250000000005
20
36.883449999999996
30
0
11
285.41250000000002
21
58.883450000000003
31
0
0
LWPOLYLINE
5
267
100
AcDbEntity
8
0
100
AcDbPolyline
90
4
70
1
43
0.0
10
287.79450000000008
20
74.983449999999991
10
245.79450000000008
20
74.983449999999991
10
245.79450000000008
20
96.983450000000005
10
287.79450000000008
20
96.983450000000005
0
LINE
5
268
100
AcDbEntity
8
0
100
AcDbLine
10
287.79450000000008
20
74.983449999999991
30
0
11
245.79450000000008
21
96.983450000000005
31
0
0
LINE
5
269
100
AcDbEntity
8
0
100
AcDbLine
10
245.79450000000008
20
74.983449999999991
30
0
11
287.79450000000008
21
96.983450000000005
31
0
0
LINE
5
270
100
AcDbEntity
8
0
100
AcDbLine
10
0.095084600000000019
20
0.25769300000000001
30
0
11
-8.4404493059327415
21
-8.2778409059327291
31
0
0
LINE
5
271
100
AcDbEntity
8
0
100
AcDbLine
10
0.095084600000000019
20
114.55799999999999
30
0
11
-8.4404493059327397
21
123.09353390593273
31
0
0
LINE
5
272
100
AcDbEntity
8
0
100
AcDbLine
10
0.095084600000000019
20
114.55799999999999
30
0
11
0.095084600000000019
21
124.55799999999999
31
0
0
LINE
5
273
100
AcDbEntity
8
0
100
AcDbLine
10
0.095084600000000019
20
114.55799999999999
30
0
11
-9.9049154000000037
21
114.55799999999999
31
0
0
LINE
5
274
100
AcDbEntity
8
0
100
AcDbLine
10
152.49504230000002
20
124.55799999999999
30
0
11
152.49504229999999
21
-9.7423069999999932
31
0
0
LINE
5
275
100
AcDbEntity
8
0
100
AcDbLine
10
314.89500000000004
20
57.407846500000005
30
0
11
-9.9049154000000073
21
57.407846500000005
31
0
0
LINE
5
276
100
AcDbEntity
8
0
100
AcDbLine
10
0.095084600000000019
20
119.55799999999999
30
0
11
152.49504230000002
21
119.55799999999998
31
0
0
LINE
5
277
100
AcDbEntity
8
0
100
AcDbLine
10
76.295063450000015
20
124.55799999999999
30
0
11
76.295063450000015
21
-9.7423069999999932
31
0
0
CIRCLE
5
278
100
AcDbEntity
8
0
100
AcDbCircle
10
-4.9049153999999895
20
119.55799999999998
30
0
40
1.6500000000000001
210
0
220
0
230
1
0
CIRCLE
5
279
100
AcDbEntity
8
0
100
AcDbCircle
10
72.295063450000015
20
119.55799999999999
30
0
40
1.6500000000000001
210
0
220
0
230
1
0
CIRCLE
5
280
100
AcDbEntity
8
0
100
AcDbCircle
10
80.295063450000015
20
119.55799999999998
30
0
40
1.6500000000000001
210
0
220
0
230
1
0
CIRCLE
5
281
100
AcDbEntity
8
0
100
AcDbCircle
10
148.49504230000002
20
119.55799999999998
30
0
40
1.6500000000000001
210
0
220
0
230
1
0
CIRCLE
5
282
100
AcDbEntity
8
0
100
AcDbCircle
10
-4.9049153999999717
20
-4.742306999999979
30
0
40
1.6500000000000001
210
0
220
0
230
1
0
CIRCLE
5
283
100
AcDbEntity
8
0
100
AcDbCircle
10
72.295063450000015
20
-4.7423069999999967
30
0
40
1.6500000000000001
210
0
220
0
230
1
0
CIRCLE
5
284
100
AcDbEntity
8
0
100
AcDbCircle
10
80.295063450000015
20
-4.742306999999979
30
0
40
1.6500000000000001
210
0
220
0
230
1
0
CIRCLE
5
285
100
AcDbEntity
8
0
100
AcDbCircle
10
148.49504230000002
20
-4.742306999999979
30
0
40
1.6500000000000001
210
0
220
0
230
1
0
CIRCLE
5
286
100
AcDbEntity
8
0
100
AcDbCircle
10
309.89499999999998
20
119.55799999999995
30
0
40
1.6500000000000001
210
0
220
0
230
1
0
CIRCLE
5
287
100
AcDbEntity
8
0
100
AcDbCircle
10
309.89499999999998
20
-4.7423070000000145
30
0
40
1.6500000000000001
210
0
220
0
230
1
0
CIRCLE
5
288
100
AcDbEntity
8
0
100
AcDbCircle
10
232.69502114999997
20
-4.7423070000000145
30
0
40
1.6500000000000001
210
0
220
0
230
1
0
CIRCLE
5
289
100
AcDbEntity
8
0
100
AcDbCircle
10
224.69502114999997
20
-4.7423069999999967
30
0
40
1.6500000000000001
210
0
220
0
230
1
0
CIRCLE
5
290
100
AcDbEntity
8
0
100
AcDbCircle
10
156.49504229999997
20
-4.742306999999979
30
0
40
1.6500000000000001
210
0
220
0
230
1
0
CIRCLE
5
291
100
AcDbEntity
8
0
100
AcDbCircle
10
232.69502115
20
119.55799999999998
30
0
40
1.6500000000000001
210
0
220
0
230
1
0
CIRCLE
5
292
100
AcDbEntity
8
0
100
AcDbCircle
10
224.69502115
20
119.55799999999996
30
0
40
1.6500000000000001
210
0
220
0
230
1
0
CIRCLE
5
293
100
AcDbEntity
8
0
100
AcDbCircle
10
156.49504230000002
20
119.55799999999998
30
0
40
1.6500000000000001
210
0
220
0
230
1
0
LINE
5
294
100
AcDbEntity
8
0
100
AcDbLine
10
221.29500000000002
20
66.933449999999993
30
0
11
217.04399999999995
21
66.933450000000008
31
0
0
LINE
5
295
100
AcDbEntity
8
0
100
AcDbLine
10
217.04399999999995
20
66.933450000000008
30
0
11
217.04399999999995
21
78.583799999999997
31
0
0
LINE
5
296
100
AcDbEntity
8
0
100
AcDbLine
10
221.29500000000002
20
74.333100000000002
30
0
11
221.29500000000002
21
66.933449999999993
31
0
0
LINE
5
297
100
AcDbEntity
8
0
100
AcDbLine
10
236.09399999999994
20
74.333100000000002
30
0
11
221.29500000000002
21
74.333100000000002
31
0
0
LINE
5
298
100
AcDbEntity
8
0
100
AcDbLine
10
217.04399999999995
20
78.583799999999997
30
0
11
240.34500000000003
21
78.583799999999997
31
0
0
CIRCLE
5
299
100
AcDbEntity
8
0
100
AcDbCircle
10
219.1695
20
76.458449999999999
30
0
40
2.3999999999999999
210
0
220
-0
230
1
0
LINE
5
300
100
AcDbEntity
8
0
100
AcDbLine
10
240.34500000000003
20
78.583799999999997
30
0
11
240.34500000000003
21
66.933450000000008
31
0
0
CIRCLE
5
301
100
AcDbEntity
8
0
100
AcDbCircle
10
238.21949999999998
20
76.458449999999999
30
0
40
2.3999999999999999
210
0
220
-0
230
1
0
LINE
5
302
100
AcDbEntity
8
0
100
AcDbLine
10
236.09399999999994
20
66.933450000000008
30
0
11
236.09399999999994
21
74.333100000000002
31
0
0
LINE
5
303
100
AcDbEntity
8
0
100
AcDbLine
10
240.34500000000003
20
66.933450000000008
30
0
11
236.09399999999994
21
66.933450000000008
31
0
0
LINE
5
304
100
AcDbEntity
8
0
100
AcDbLine
10
78.9315
20
28.833299999999994
30
0
11
83.182199999999995
21
28.833299999999994
31
0
0
LINE
5
305
100
AcDbEntity
8
0
100
AcDbLine
10
78.9315
20
36.232999999999997
30
0
11
78.9315
21
28.833299999999994
31
0
0
LINE
5
306
100
AcDbEntity
8
0
100
AcDbLine
10
83.182199999999995
20
28.833299999999994
30
0
11
83.182199999999995
21
40.483800000000002
31
0
0
CIRCLE
5
307
100
AcDbEntity
8
0
100
AcDbCircle
10
81.056849999999997
20
38.358399999999996
30
0
40
2.3999999999999999
210
0
220
-0
230
1
0
LINE
5
308
100
AcDbEntity
8
0
100
AcDbLine
10
83.182199999999995
20
40.483800000000002
30
0
11
59.881500000000003
21
40.483800000000016
31
0
0
LINE
5
309
100
AcDbEntity
8
0
100
AcDbLine
10
59.881500000000003
20
40.483800000000016
30
0
11
59.881500000000003
21
28.833300000000001
31
0
0
CIRCLE
5
310
100
AcDbEntity
8
0
100
AcDbCircle
10
62.00685
20
38.35840000000001
30
0
40
2.3999999999999999
210
0
220
-0
230
1
0
LINE
5
311
100
AcDbEntity
8
0
100
AcDbLine
10
59.881500000000003
20
28.833300000000001
30
0
11
64.132200000000012
21
28.833300000000001
31
0
0
LINE
5
312
100
AcDbEntity
8
0
100
AcDbLine
10
64.132200000000012
20
28.833300000000001
30
0
11
64.132200000000012
21
36.232999999999997
31
0
0
LINE
5
313
100
AcDbEntity
8
0
100
AcDbLine
10
64.132200000000012
20
36.232999999999997
30
0
11
78.9315
21
36.232999999999997
31
0
0
LINE
5
314
100
AcDbEntity
8
0
100
AcDbLine
10
224.69502114999997
20
-4.7423069999999967
30
0
11
232.69502114999997
21
-4.7423070000000145
31
0
0
LINE
5
315
100
AcDbEntity
8
0
100
AcDbLine
10
228.69450000000001
20
-9.7423069999999932
30
0
11
228.69450000000001
21
19.309050000000003
31
0
0
LINE
5
316
100
AcDbEntity
8
0
100
AcDbLine
10
228.69450000000001
20
19.309050000000003
30
0
11
195.35700000000003
21
19.309049999999996
31
0
0
LINE
5
317
100
AcDbEntity
8
0
100
AcDbLine
10
195.35700000000003
20
19.309049999999996
30
0
11
195.35700000000003
21
38.358400000000003
31
0
0
LINE
5
318
100
AcDbEntity
8
0
100
AcDbLine
10
195.35700000000003
20
38.358400000000003
30
0
11
166.78200000000004
21
38.358400000000003
31
0
0
LINE
5
319
100
AcDbEntity
8
0
100
AcDbLine
10
166.78200000000004
20
38.358400000000003
30
0
11
166.78200000000001
21
57.407846500000005
31
0
0
LINE
5
320
100
AcDbEntity
8
0
100
AcDbLine
10
166.78200000000001
20
57.407846500000005
30
0
11
104.86949999999999
21
57.407846500000005
31
0
0
LINE
5
321
100
AcDbEntity
8
0
100
AcDbLine
10
104.86949999999999
20
57.407846500000005
30
0
11
104.8695
21
76.458449999999999
31
0
0
LINE
5
322
100
AcDbEntity
8
0
100
AcDbLine
10
104.8695
20
76.458449999999999
30
0
11
95.343650000000011
21
76.458449999999999
31
0
0
LINE
5
323
100
AcDbEntity
8
0
100
AcDbLine
10
95.343650000000011
20
76.458449999999999
30
0
11
95.343650000000011
21
95.508449999999982
31
0
0
LINE
5
324
100
AcDbEntity
8
0
100
AcDbLine
10
95.343650000000011
20
95.508449999999982
30
0
11
76.295063450000015
21
95.508449999999982
31
0
0
LINE
5
325
100
AcDbEntity
8
0
100
AcDbLine
10
76.295063450000015
20
95.508449999999982
30
0
11
76.295063450000015
21
124.55799999999999
31
0
0
LINE
5
326
100
AcDbEntity
8
0
100
AcDbLine
10
73.768999999999991
20
101.68730731342447
30
0
11
78.819699999999997
21
101.68730731342447
31
0
0
LINE
5
327
100
AcDbEntity
8
0
100
AcDbLine
10
85.81935672500002
20
92.983099999999993
30
0
11
85.81935672500002
21
98.033800000000014
31
0
0
LINE
5
328
100
AcDbEntity
8
0
100
AcDbLine
10
92.819000000000003
20
85.983450000000005
30
0
11
97.868300000000019
21
85.983450000000005
31
0
0
LINE
5
329
100
AcDbEntity
8
0
100
AcDbLine
10
100.10657500000001
20
73.933099999999996
30
0
11
100.10657500000001
21
78.983800000000002
31
0
0
LINE
5
330
100
AcDbEntity
8
0
100
AcDbLine
10
102.34400000000001
20
66.933148250000002
30
0
11
107.395
21
66.933148250000002
31
0
0
LINE
5
331
100
AcDbEntity
8
0
100
AcDbLine
10
116.98885972110821
20
54.883099999999999
30
0
11
116.98885972110821
21
59.933800000000005
31
0
0
LINE
5
332
100
AcDbEntity
8
0
100
AcDbLine
10
164.25700000000003
20
47.883123249999997
30
0
11
169.30700000000002
21
47.883123249999997
31
0
0
LINE
5
333
100
AcDbEntity
8
0
100
AcDbLine
10
181.06950000000001
20
35.832999999999998
30
0
11
181.06950000000001
21
40.883800000000001
31
0
0
LINE
5
334
100
AcDbEntity
8
0
100
AcDbLine
10
192.83199999999999
20
28.833724999999998
30
0
11
197.88200000000003
21
28.833724999999998
31
0
0
LINE
5
335
100
AcDbEntity
8
0
100
AcDbLine
10
212.02575000000002
20
16.784500000000001
30
0
11
212.02575000000002
21
21.833600000000001
31
0
0
LINE
5
336
100
AcDbEntity
8
0
100
AcDbLine
10
226.16900000000001
20
4.7833715000000083
30
0
11
231.22
21
4.7833715000000083
31
0
0
CIRCLE
5
337
100
AcDbEntity
8
0
100
AcDbCircle
10
-4.9049153999999895
20
57.407846500000005
30
0
40
1.6500000000000001
210
0
220
0
230
1
0
CIRCLE
5
338
100
AcDbEntity
8
0
100
AcDbCircle
10
309.89499999999998
20
57.407846499999955
30
0
40
1.6500000000000001
210
0
220
0
230
1
0
LINE
5
339
100
AcDbEntity
8
0
100
AcDbLine
10
126.44500000000001
20
73.933099999999996
30
0
11
121.39400000000001
21
73.933099999999996
31
0
0
LINE
5
340
100
AcDbEntity
8
0
100
AcDbLine
10
123.91950000000001
20
73.933099999999996
30
0
11
123.91849999999999
21
78.983800000000002
31
0
0
LWPOLYLINE
5
341
100
AcDbEntity
8
0
100
AcDbPolyline
90
4
70
1
43
0.0
10
130.91949999999946
20
74.53310000000009
10
116.91849999999948
20
74.533100000000047
10
116.91849999999948
20
78.383800000000008
10
130.91949999999946
20
78.383800000000008
0
LINE
5
342
100
AcDbEntity
8
0
100
AcDbLine
10
130.91949999999946
20
74.53310000000009
30
0
11
116.91849999999948
21
78.383800000000008
31
0
0
LINE
5
343
100
AcDbEntity
8
0
100
AcDbLine
10
116.91849999999948
20
74.533100000000047
30
0
11
130.91949999999946
21
78.383800000000008
31
0
0
LWPOLYLINE
5
344
100
AcDbEntity
8
0
100
AcDbPolyline
90
4
70
1
43
0.0
10
92.819000000000017
20
74.53309999999999
10
78.819700000000012
20
74.533099999999976
10
78.819700000000012
20
78.383800000000008
10
92.819000000000017
20
78.383800000000008
0
LINE
5
345
100
AcDbEntity
8
0
100
AcDbLine
10
92.819000000000017
20
74.53309999999999
30
0
11
78.819700000000012
21
78.383800000000008
31
0
0
LINE
5
346
100
AcDbEntity
8
0
100
AcDbLine
10
78.819700000000012
20
74.533099999999976
30
0
11
92.819000000000017
21
78.383800000000008
31
0
0
LINE
5
347
100
AcDbEntity
8
0
100
AcDbLine
10
85.819350000000014
20
78.383800000000008
30
0
11
85.81935
21
78.983800000000002
31
0
0
LINE
5
348
100
AcDbEntity
8
0
100
AcDbLine
10
157.25700000000001
20
40.283800000000014
30
0
11
157.25700000000001
21
40.883800000000001
31
0
0
LWPOLYLINE
5
349
100
AcDbEntity
8
0
100
AcDbPolyline
90
4
70
1
43
0.0
10
104.13688612320455
20
14.350617029667612
10
90.185553224856605
20
14.350617029667603
10
90.185553224856605
20
18.18844761679027
10
104.13688612320455
20
18.188447616790281
0
LINE
5
350
100
AcDbEntity
8
0
100
AcDbLine
10
104.13688612320455
20
14.350617029667612
30
0
11
90.185553224856605
21
18.18844761679027
31
0
0
LINE
5
351
100
AcDbEntity
8
0
100
AcDbLine
10
90.185553224856605
20
14.350617029667603
30
0
11
104.13688612320455
21
18.188447616790281
31
0
0
LWPOLYLINE
5
352
100
AcDbEntity
8
0
100
AcDbPolyline
90
4
70
1
43
0.0
10
171.93944677514344
20
14.350617029667617
10
157.98811387679552
20
14.350617029667617
10
157.98811387679552
20
18.188447616790281
10
171.93944677514344
20
18.188447616790274
0
LINE
5
353
100
AcDbEntity
8
0
100
AcDbLine
10
171.93944677514344
20
14.350617029667617
30
0
11
157.98811387679552
21
18.188447616790281
31
0
0
LINE
5
354
100
AcDbEntity
8
0
100
AcDbLine
10
157.98811387679552
20
14.350617029667617
30
0
11
171.93944677514344
21
18.188447616790274
31
0
0
CIRCLE
5
355
100
AcDbEntity
8
0
100
AcDbCircle
10
85.819350000000099
20
76.458449999999999
30
0
40
2.3999999999999999
210
0
220
0
230
1
0
CIRCLE
5
356
100
AcDbEntity
8
0
100
AcDbCircle
10
123.919
20
76.458449999999999
30
0
40
2.3999999999999999
210
0
220
0
230
1
0
CIRCLE
5
357
100
AcDbEntity
8
0
100
AcDbCircle
10
164.96378032596951
20
16.26953232322894
30
0
40
2.4064966041814739
210
0
220
0
230
1
0
CIRCLE
5
358
100
AcDbEntity
8
0
100
AcDbCircle
10
97.161219674030562
20
16.26953232322894
30
0
40
2.4064966041814739
210
0
220
0
230
1
0
LINE
5
359
100
AcDbEntity
8
0
100
AcDbLine
10
145.20699999999999
20
47.883449999999996
30
0
11
150.25700000000001
21
47.883449999999996
31
0
0
LWPOLYLINE
5
360
100
AcDbEntity
8
0
100
AcDbPolyline
90
4
70
1
43
0.0
10
149.65734999999992
20
40.882950000000015
10
145.80665000000002
20
40.882950000000015
10
145.80665000000002
20
54.88394999999997
10
149.65734999999992
20
54.88394999999997
0
LINE
5
361
100
AcDbEntity
8
0
100
AcDbLine
10
149.65734999999992
20
40.882950000000015
30
0
11
145.80665000000002
21
54.88394999999997
31
0
0
LINE
5
362
100
AcDbEntity
8
0
100
AcDbLine
10
145.80665000000002
20
40.882950000000015
30
0
11
149.65734999999992
21
54.88394999999997
31
0
0
CIRCLE
5
363
100
AcDbEntity
8
0
100
AcDbCircle
10
147.732
20
47.883449999999996
30
0
40
2.3999999999999999
210
0
220
0
230
1
0
LWPOLYLINE
5
364
100
AcDbEntity
8
0
100
AcDbPolyline
90
8
70
1
43
0.0
10
82.982200000000006
20
29.033299999999997
10
82.982200000000006
20
40.283799999999999
10
60.081499999999998
20
40.283800000000021
10
60.081499999999998
20
29.033300000000001
10
63.932200000000009
20
29.033300000000001
10
63.932200000000009
20
36.433
10
79.131499999999988
20
36.432999999999993
10
79.131499999999988
20
29.033299999999997
0
LWPOLYLINE
5
365
100
AcDbEntity
8
0
100
AcDbPolyline
90
8
70
1
43
0.0
10
236.29399999999993
20
67.133450000000011
10
236.29399999999993
20
74.53309999999999
10
221.095
20
74.53309999999999
10
221.095
20
67.133449999999982
10
217.24399999999997
20
67.133450000000011
10
217.24399999999997
20
78.383800000000008
10
240.14500000000001
20
78.383800000000008
10
240.14500000000001
20
67.133450000000011
0
CIRCLE
5
366
100
AcDbEntity
8
0
100
AcDbCircle
10
9.6256000000000004
20
35.8628
30
0
40
1.0499999999999956
210
0
220
-0
230
1
0
CIRCLE
5
367
100
AcDbEntity
8
0
100
AcDbCircle
10
33.425650000000005
20
35.8628
30
0
40
1.0499999999999956
210
0
220
-0
230
1
0
CIRCLE
5
368
100
AcDbEntity
8
0
100
AcDbCircle
10
81.062550000000016
20
16.8142
30
0
40
1.0499999999999956
210
0
220
-0
230
1
0
CIRCLE
5
369
100
AcDbEntity
8
0
100
AcDbCircle
10
181.06250000000003
20
16.8142
30
0
40
1.0499999999999956
210
0
220
-0
230
1
0
CIRCLE
5
370
100
AcDbEntity
8
0
100
AcDbCircle
10
252.51250000000002
20
54.912700000000008
30
0
40
1.0499999999999956
210
0
220
-0
230
1
0
CIRCLE
5
371
100
AcDbEntity
8
0
100
AcDbCircle
10
276.3125
20
54.912700000000008
30
0
40
1.0499999999999956
210
0
220
-0
230
1
0
CIRCLE
5
372
100
AcDbEntity
8
0
100
AcDbCircle
10
254.89450000000002
20
93.012700000000009
30
0
40
1.0499999999999956
210
0
220
-0
230
1
0
CIRCLE
5
373
100
AcDbEntity
8
0
100
AcDbCircle
10
278.69450000000001
20
93.012700000000009
30
0
40
1.0499999999999956
210
0
220
-0
230
1
0
CIRCLE
5
374
100
AcDbEntity
8
0
100
AcDbCircle
10
80.862550000000013
20
16.8142
30
0
40
1.0499999999999956
210
0
220
0
230
1
0
CIRCLE
5
375
100
AcDbEntity
8
0
100
AcDbCircle
10
181.26250000000002
20
16.8142
30
0
40
1.0499999999999956
210
0
220
0
230
1
0
ENDSEC
0
SECTION
2
OBJECTS
0
DICTIONARY
5
C
100
AcDbDictionary
3
ACAD_GROUP
350
D
3
ACAD_MLINESTYLE
350
17
0
DICTIONARY
5
D
100
AcDbDictionary
0
DICTIONARY
5
1A
330
C
100
AcDbDictionary
0
DICTIONARY
5
17
100
AcDbDictionary
0
ENDSEC
0
EOF
