0
SECTION
2
HEADER
9
$INSUNITS
70
4
9
$ACADVER
1
AC1014
9
$HANDSEED
5
FFFF
0
ENDSEC
0
SECTION
2
TABLES
0
TABLE
2
VPORT
5
8
100
AcDbSymbolTable
0
ENDTAB
0
TABLE
2
LTYPE
5
5
100
AcDbSymbolTable
0
LTYPE
5
14
100
AcDbSymbolTableRecord
100
AcDbLinetypeTableRecord
2
BYBLOCK
70
0
0
LTYPE
5
15
100
AcDbSymbolTableRecord
100
AcDbLinetypeTableRecord
2
BYLAYER
70
0
0
ENDTAB
0
TABLE
2
LAYER
5
2
100
AcDbSymbolTable
70
2
0
LAYER
5
50
100
AcDbSymbolTableRecord
100
AcDbLayerTableRecord
2
0
70
0
6
CONTINUOUS
0
ENDTAB
0
TABLE
2
STYLE
5
3
100
AcDbSymbolTable
70
1
0
STYLE
5
11
100
AcDbSymbolTableRecord
100
AcDbTextStyleTableRecord
2
STANDARD
70
0
0
ENDTAB
0
TABLE
2
VIEW
5
6
100
AcDbSymbolTable
70
0
0
ENDTAB
0
TABLE
2
UCS
5
7
100
AcDbSymbolTable
70
0
0
ENDTAB
0
TABLE
2
APPID
5
9
100
AcDbSymbolTable
70
2
0
APPID
5
12
100
AcDbSymbolTableRecord
100
AcDbRegAppTableRecord
2
ACAD
70
0
0
ENDTAB
0
TABLE
2
DIMSTYLE
5
A
100
AcDbSymbolTable
70
1
0
ENDTAB
0
TABLE
2
BLOCK_RECORD
5
1
100
AcDbSymbolTable
70
1
0
BLOCK_RECORD
5
1F
100
AcDbSymbolTableRecord
100
AcDbBlockTableRecord
2
*MODEL_SPACE
0
BLOCK_RECORD
5
1B
100
AcDbSymbolTableRecord
100
AcDbBlockTableRecord
2
*PAPER_SPACE
0
ENDTAB
0
ENDSEC
0
SECTION
2
BLOCKS
0
BLOCK
5
20
100
AcDbEntity
100
AcDbBlockBegin
2
*MODEL_SPACE
0
ENDBLK
5
21
100
AcDbEntity
100
AcDbBlockEnd
0
BLOCK
5
1C
100
AcDbEntity
100
AcDbBlockBegin
2
*PAPER_SPACE
0
ENDBLK
5
1D
100
AcDbEntity
100
AcDbBlockEnd
0
ENDSEC
0
SECTION
2
ENTITIES
0
LWPOLYLINE
5
100
100
AcDbEntity
8
0
100
AcDbPolyline
90
36
70
1
43
0.0
10
28.525400000000008
20
21.833600000000001
10
28.525400000000008
20
26.534100000000002
10
30.050899999999999
20
26.534100000000002
10
30.050899999999999
20
22.063800000000001
10
31.774799999999999
20
22.063800000000001
10
31.774799999999999
20
20.863499999999998
10
35.075200000000002
20
20.863499999999998
10
35.075200000000002
20
22.063800000000001
10
36.800400000000003
20
22.063800000000001
10
36.800400000000003
20
28.3338
10
37.625900000000001
20
28.3338
10
37.625900000000001
20
31.132600000000004
10
36.800400000000003
20
31.132600000000004
10
36.800400000000003
20
34.3628
10
30.050899999999999
20
34.3628
10
30.050899999999999
20
31.132600000000004
10
28.525400000000008
20
31.132600000000004
10
28.525400000000008
20
35.832999999999998
10
14.5259
20
35.832999999999998
10
14.5259
20
31.132600000000004
10
13.000400000000001
20
31.132600000000004
10
13.000400000000001
20
34.3628
10
6.2508000000000008
20
34.3628
10
6.2508000000000008
20
31.132600000000004
10
5.4253300000000007
20
31.132600000000004
10
5.4253300000000007
20
28.3338
10
6.2508000000000008
20
28.3338
10
6.2508000000000008
20
22.063800000000001
10
7.9760900000000001
20
22.063800000000001
10
7.9760900000000001
20
20.863499999999998
10
11.2751
20
20.863499999999998
10
11.2751
20
22.063800000000001
10
13.000400000000001
20
22.063800000000001
10
13.000400000000001
20
26.534100000000002
10
14.5259
20
26.534100000000002
10
14.5259
20
21.833600000000001
0
LWPOLYLINE
5
101
100
AcDbEntity
8
0
100
AcDbPolyline
90
36
70
1
43
0.0
10
84.438100000000006
20
12.082600000000001
10
84.438100000000006
20
15.3142
10
77.686999999999998
20
15.3142
10
77.686999999999998
20
12.082600000000001
10
76.862899999999982
20
12.082600000000001
10
76.862899999999982
20
9.2838399999999996
10
77.686999999999998
20
9.2838399999999996
10
77.686999999999998
20
3.0137700000000001
10
79.411999999999978
20
3.0137700000000001
10
79.411999999999978
20
1.81488
10
82.712599999999981
20
1.81488
10
82.712599999999981
20
3.0137700000000001
10
84.438100000000006
20
3.0137700000000001
10
84.438100000000006
20
7.4841100000000003
10
124.062
20
7.4841100000000003
10
124.062
20
2.7836400000000001
10
138.06299999999999
20
2.783640000000001
10
138.06299999999999
20
7.4841100000000003
10
177.68700000000001
20
7.4841100000000003
10
177.68700000000001
20
3.0137700000000001
10
179.41200000000006
20
3.0137700000000001
10
179.41200000000006
20
1.81488
10
182.71299999999999
20
1.81488
10
182.71299999999999
20
3.0137700000000001
10
184.43799999999999
20
3.0137700000000001
10
184.43799999999999
20
9.2838399999999996
10
185.262
20
9.2838399999999996
10
185.262
20
12.082600000000001
10
184.43799999999999
20
12.082600000000001
10
184.43799999999999
20
15.3142
10
177.68700000000001
20
15.3142
10
177.68700000000001
20
12.082600000000001
10
138.06299999999999
20
12.082600000000001
10
138.06299999999999
20
16.784500000000001
10
124.062
20
16.784500000000001
10
124.062
20
12.082600000000001
0
LWPOLYLINE
5
102
100
AcDbEntity
8
0
100
AcDbPolyline
90
4
70
1
43
0.0
10
193.12
20
2.7836400000000001
10
193.12
20
16.784500000000001
10
207.11900000000003
20
16.784500000000001
10
207.11900000000003
20
2.7836400000000001
0
LWPOLYLINE
5
103
100
AcDbEntity
8
0
100
AcDbPolyline
90
4
70
1
43
0.0
10
245.21900000000002
20
2.783640000000001
10
231.22
20
2.7836400000000001
10
231.22
20
16.784500000000001
10
245.21900000000002
20
16.784500000000001
0
LWPOLYLINE
5
104
100
AcDbEntity
8
0
100
AcDbPolyline
90
4
70
1
43
0.0
10
0.095084600000000033
20
0.25769300000000001
10
0.095084600000000033
20
114.55800000000002
10
304.89499999999998
20
114.55800000000002
10
304.89499999999998
20
0.25769300000000328
0
LWPOLYLINE
5
105
100
AcDbEntity
8
0
100
AcDbPolyline
90
4
70
1
43
0.0
10
66.62530000000001
20
16.784500000000001
10
66.62530000000001
20
2.7836400000000006
10
52.626000000000019
20
2.7836400000000001
10
52.626000000000019
20
16.784500000000001
0
LWPOLYLINE
5
106
100
AcDbEntity
8
0
100
AcDbPolyline
90
4
70
1
43
0.0
10
28.812000000000001
20
2.7836400000000001
10
28.812000000000001
20
16.784500000000001
10
42.812800000000017
20
16.784500000000001
10
42.812800000000017
20
2.783640000000001
0
LWPOLYLINE
5
107
100
AcDbEntity
8
0
100
AcDbPolyline
90
4
70
1
43
0.0
10
19.000399999999999
20
16.784500000000001
10
19.000399999999999
20
2.7836400000000006
10
5.000910000000002
20
2.7836400000000001
10
5.000910000000002
20
16.784500000000001
0
LWPOLYLINE
5
108
100
AcDbEntity
8
0
100
AcDbPolyline
90
4
70
1
43
0.0
10
264.26900000000001
20
16.784500000000001
10
264.26900000000001
20
2.7836400000000006
10
250.27000000000001
20
2.7836400000000001
10
250.27000000000001
20
16.784500000000001
0
LWPOLYLINE
5
109
100
AcDbEntity
8
0
100
AcDbPolyline
90
4
70
1
43
0.0
10
288.37
20
2.7836400000000001
10
288.37
20
16.784500000000001
10
302.36900000000009
20
16.784500000000001
10
302.36900000000009
20
2.7836400000000001
0
LWPOLYLINE
5
110
100
AcDbEntity
8
0
100
AcDbPolyline
90
4
70
1
43
0.0
10
78.53149999999998
20
35.832999999999998
10
78.53149999999998
20
21.833600000000001
10
64.532200000000003
20
21.833600000000001
10
64.532200000000003
20
35.832999999999998
0
LWPOLYLINE
5
111
100
AcDbEntity
8
0
100
AcDbPolyline
90
4
70
1
43
0.0
10
83.582200000000014
20
35.832999999999998
10
97.581500000000005
20
35.832999999999998
10
97.581500000000005
20
21.833600000000001
10
83.582200000000014
20
21.833600000000001
0
LWPOLYLINE
5
112
100
AcDbEntity
8
0
100
AcDbPolyline
90
4
70
1
43
0.0
10
59.481499999999997
20
35.832999999999998
10
59.481499999999997
20
21.833600000000001
10
45.482199999999999
20
21.833600000000001
10
45.482199999999999
20
35.832999999999998
0
LWPOLYLINE
5
113
100
AcDbEntity
8
0
100
AcDbPolyline
90
4
70
1
43
0.0
10
226.16900000000001
20
2.7836400000000001
10
212.16999999999999
20
2.7836400000000001
10
212.16999999999999
20
16.784500000000001
10
226.16900000000001
20
16.784500000000001
0
LWPOLYLINE
5
114
100
AcDbEntity
8
0
100
AcDbPolyline
90
4
70
1
43
0.0
10
283.31900000000007
20
2.7836400000000001
10
269.32000000000005
20
2.7836400000000001
10
269.32000000000005
20
16.784500000000001
10
283.31900000000007
20
16.784500000000001
0
LWPOLYLINE
5
115
100
AcDbEntity
8
0
100
AcDbPolyline
90
4
70
1
43
0.0
10
288.37
20
21.833600000000001
10
288.37
20
35.832999999999998
10
302.36900000000009
20
35.832999999999998
10
302.36900000000009
20
21.833600000000001
0
LWPOLYLINE
5
116
100
AcDbEntity
8
0
100
AcDbPolyline
90
4
70
1
43
0.0
10
283.31900000000007
20
35.832999999999998
10
283.31900000000007
20
21.833600000000001
10
269.32000000000005
20
21.833600000000001
10
269.32000000000005
20
35.832999999999998
0
LWPOLYLINE
5
117
100
AcDbEntity
8
0
100
AcDbPolyline
90
4
70
1
43
0.0
10
197.88200000000003
20
21.833600000000001
10
197.88200000000003
20
35.832999999999998
10
211.88200000000001
20
35.832999999999998
10
211.88200000000001
20
21.833600000000001
0
LWPOLYLINE
5
118
100
AcDbEntity
8
0
100
AcDbPolyline
90
4
70
1
43
0.0
10
102.63200000000001
20
35.832999999999998
10
116.63200000000003
20
35.832999999999998
10
116.63200000000003
20
21.833600000000001
10
102.63200000000001
20
21.833600000000001
0
LWPOLYLINE
5
119
100
AcDbEntity
8
0
100
AcDbPolyline
90
36
70
1
43
0.0
10
248.31299999999999
20
50.182600000000015
10
248.31299999999999
20
47.383699999999997
10
249.13700000000006
20
47.383699999999997
10
249.13700000000006
20
41.113799999999998
10
250.86200000000002
20
41.113799999999998
10
250.86200000000002
20
39.913600000000002
10
254.161
20
39.913600000000002
10
254.161
20
41.113799999999998
10
255.88800000000006
20
41.113799999999998
10
255.88800000000006
20
45.582799999999999
10
257.41200000000003
20
45.582799999999999
10
257.41200000000003
20
40.883800000000001
10
271.41300000000001
20
40.883800000000001
10
271.41300000000001
20
45.582799999999999
10
272.93700000000001
20
45.582799999999999
10
272.93700000000001
20
41.113799999999998
10
274.66200000000003
20
41.113799999999998
10
274.66200000000003
20
39.913600000000002
10
277.96300000000002
20
39.913600000000002
10
277.96300000000002
20
41.113799999999998
10
279.68799999999999
20
41.113799999999998
10
279.68799999999999
20
47.383699999999997
10
280.512
20
47.383699999999997
10
280.512
20
50.182600000000015
10
279.68799999999999
20
50.182600000000015
10
279.68799999999999
20
53.412700000000015
10
272.93700000000001
20
53.412700000000015
10
272.93700000000001
20
50.182600000000015
10
271.41300000000001
20
50.182600000000015
10
271.41300000000001
20
54.883099999999999
10
257.41200000000003
20
54.883099999999999
10
257.41200000000003
20
50.182600000000015
10
255.88800000000006
20
50.182600000000015
10
255.88800000000006
20
53.412700000000015
10
249.13700000000006
20
53.412700000000015
10
249.13700000000006
20
50.182600000000015
0
LWPOLYLINE
5
120
100
AcDbEntity
8
0
100
AcDbPolyline
90
4
70
1
43
0.0
10
140.732
20
21.833600000000001
10
140.732
20
35.832999999999998
10
154.732
20
35.832999999999998
10
154.732
20
21.833600000000001
0
LWPOLYLINE
5
121
100
AcDbEntity
8
0
100
AcDbPolyline
90
4
70
1
43
0.0
10
173.78200000000004
20
35.832999999999998
10
173.78200000000004
20
21.833600000000001
10
159.78200000000001
20
21.833600000000001
10
159.78200000000001
20
35.832999999999998
0
LWPOLYLINE
5
122
100
AcDbEntity
8
0
100
AcDbPolyline
90
4
70
1
43
0.0
10
192.83199999999999
20
21.833600000000001
10
178.83199999999999
20
21.833600000000001
10
178.83199999999999
20
35.832999999999998
10
192.83199999999999
20
35.832999999999998
0
LWPOLYLINE
5
123
100
AcDbEntity
8
0
100
AcDbPolyline
90
4
70
1
43
0.0
10
121.682
20
35.832999999999998
10
135.68200000000002
20
35.832999999999998
10
135.68200000000002
20
21.833600000000001
10
121.682
20
21.833600000000001
0
LWPOLYLINE
5
124
100
AcDbEntity
8
0
100
AcDbPolyline
90
4
70
1
43
0.0
10
74.057199999999995
20
54.883099999999999
10
88.0565
20
54.883099999999999
10
88.0565
20
40.883800000000001
10
74.057199999999995
20
40.883800000000001
0
LWPOLYLINE
5
125
100
AcDbEntity
8
0
100
AcDbPolyline
90
4
70
1
43
0.0
10
150.25700000000001
20
40.883800000000001
10
150.25700000000001
20
54.883099999999999
10
164.25700000000003
20
54.883099999999999
10
164.25700000000003
20
40.883800000000001
0
LWPOLYLINE
5
126
100
AcDbEntity
8
0
100
AcDbPolyline
90
4
70
1
43
0.0
10
55.007200000000012
20
40.883800000000001
10
55.007200000000012
20
54.883099999999999
10
69.006500000000003
20
54.883099999999999
10
69.006500000000003
20
40.883800000000001
0
LWPOLYLINE
5
127
100
AcDbEntity
8
0
100
AcDbPolyline
90
4
70
1
43
0.0
10
243.126
20
21.833600000000001
10
243.126
20
35.832999999999998
10
257.125
20
35.832999999999998
10
257.125
20
21.833600000000001
0
LWPOLYLINE
5
128
100
AcDbEntity
8
0
100
AcDbPolyline
90
4
70
1
43
0.0
10
23.762900000000002
20
54.883099999999999
10
23.762900000000002
20
40.883800000000001
10
9.7620299999999993
20
40.883800000000001
10
9.7620299999999993
20
54.883099999999999
0
LWPOLYLINE
5
129
100
AcDbEntity
8
0
100
AcDbPolyline
90
4
70
1
43
0.0
10
288.37
20
54.883099999999999
10
302.36900000000009
20
54.883099999999999
10
302.36900000000009
20
40.883800000000001
10
288.37
20
40.883800000000001
0
LWPOLYLINE
5
130
100
AcDbEntity
8
0
100
AcDbPolyline
90
4
70
1
43
0.0
10
21.381700000000002
20
73.933099999999982
10
21.381700000000002
20
59.933800000000019
10
7.3821599999999998
20
59.933800000000019
10
7.3821599999999998
20
73.933099999999982
0
LWPOLYLINE
5
131
100
AcDbEntity
8
0
100
AcDbPolyline
90
4
70
1
43
0.0
10
216.93200000000004
20
35.832999999999998
10
230.93199999999999
20
35.832999999999998
10
230.93199999999999
20
21.833600000000001
10
216.93200000000004
20
21.833600000000001
0
LWPOLYLINE
5
132
100
AcDbEntity
8
0
100
AcDbPolyline
90
4
70
1
43
0.0
10
188.357
20
54.883099999999999
10
202.35700000000006
20
54.883099999999999
10
202.35700000000006
20
40.883800000000001
10
188.357
20
40.883800000000001
0
LWPOLYLINE
5
133
100
AcDbEntity
8
0
100
AcDbPolyline
90
4
70
1
43
0.0
10
207.40700000000004
20
40.883800000000001
10
207.40700000000004
20
54.883099999999999
10
221.40700000000007
20
54.883099999999999
10
221.40700000000007
20
40.883800000000001
0
LWPOLYLINE
5
134
100
AcDbEntity
8
0
100
AcDbPolyline
90
4
70
1
43
0.0
10
169.30700000000004
20
54.883099999999999
10
183.30700000000004
20
54.883099999999999
10
183.30700000000004
20
40.883800000000001
10
169.30700000000004
20
40.883800000000001
0
LWPOLYLINE
5
135
100
AcDbEntity
8
0
100
AcDbPolyline
90
4
70
1
43
0.0
10
240.45699999999999
20
54.883099999999999
10
240.45699999999999
20
40.883800000000001
10
226.45700000000002
20
40.883800000000001
10
226.45700000000002
20
54.883099999999999
0
LWPOLYLINE
5
136
100
AcDbEntity
8
0
100
AcDbPolyline
90
4
70
1
43
0.0
10
112.157
20
40.883800000000001
10
112.157
20
54.883099999999999
10
126.15700000000004
20
54.883099999999999
10
126.15700000000004
20
40.883800000000001
0
LWPOLYLINE
5
137
100
AcDbEntity
8
0
100
AcDbPolyline
90
4
70
1
43
0.0
10
35.9572
20
54.883099999999999
10
49.956500000000013
20
54.883099999999999
10
49.956500000000013
20
40.883800000000001
10
35.9572
20
40.883800000000001
0
LWPOLYLINE
5
138
100
AcDbEntity
8
0
100
AcDbPolyline
90
4
70
1
43
0.0
10
107.395
20
73.933099999999982
10
121.39400000000002
20
73.933099999999982
10
121.39400000000002
20
59.933800000000019
10
107.395
20
59.933800000000019
0
LWPOLYLINE
5
139
100
AcDbEntity
8
0
100
AcDbPolyline
90
36
70
1
43
0.0
10
253.24299999999999
20
78.013599999999997
10
256.54400000000004
20
78.013599999999997
10
256.54400000000004
20
79.213800000000006
10
258.26900000000001
20
79.213800000000006
10
258.26900000000001
20
83.6828
10
259.79500000000002
20
83.6828
10
259.79500000000002
20
78.983800000000002
10
273.79400000000004
20
78.983800000000002
10
273.79400000000004
20
83.6828
10
275.31999999999999
20
83.6828
10
275.31999999999999
20
79.213800000000006
10
277.04500000000002
20
79.213800000000006
10
277.04500000000002
20
78.013599999999997
10
280.34399999999999
20
78.013599999999997
10
280.34399999999999
20
79.213800000000006
10
282.06900000000007
20
79.213800000000006
10
282.06900000000007
20
85.483699999999999
10
282.89499999999998
20
85.483699999999999
10
282.89499999999998
20
88.282600000000002
10
282.06900000000007
20
88.282600000000002
10
282.06900000000007
20
91.512699999999995
10
275.31999999999999
20
91.512699999999995
10
275.31999999999999
20
88.282600000000002
10
273.79400000000004
20
88.282600000000002
10
273.79400000000004
20
92.983099999999993
10
259.79500000000002
20
92.983099999999993
10
259.79500000000002
20
88.282600000000002
10
258.26900000000001
20
88.282600000000002
10
258.26900000000001
20
91.512699999999995
10
251.52000000000001
20
91.512699999999995
10
251.52000000000001
20
88.282600000000002
10
250.69400000000002
20
88.282600000000002
10
250.69400000000002
20
85.483699999999999
10
251.52000000000001
20
85.483699999999999
10
251.52000000000001
20
79.213800000000006
10
253.24299999999999
20
79.213800000000006
0
LWPOLYLINE
5
140
100
AcDbEntity
8
0
100
AcDbPolyline
90
4
70
1
43
0.0
10
131.20699999999999
20
54.883099999999999
10
145.20699999999999
20
54.883099999999999
10
145.20699999999999
20
40.883800000000001
10
131.20699999999999
20
40.883800000000001
0
LWPOLYLINE
5
141
100
AcDbEntity
8
0
100
AcDbPolyline
90
4
70
1
43
0.0
10
216.64400000000001
20
59.933800000000019
10
202.64500000000001
20
59.933800000000019
10
202.64500000000001
20
73.933099999999982
10
216.64400000000001
20
73.933099999999982
0
LWPOLYLINE
5
142
100
AcDbEntity
8
0
100
AcDbPolyline
90
4
70
1
43
0.0
10
50.244700000000009
20
73.933099999999982
10
64.244
20
73.933099999999982
10
64.244
20
59.933800000000019
10
50.244700000000009
20
59.933800000000019
0
LWPOLYLINE
5
143
100
AcDbEntity
8
0
100
AcDbPolyline
90
4
70
1
43
0.0
10
69.294700000000006
20
73.933099999999982
10
83.293999999999983
20
73.933099999999982
10
83.293999999999983
20
59.933800000000019
10
69.294700000000006
20
59.933800000000019
0
LWPOLYLINE
5
144
100
AcDbEntity
8
0
100
AcDbPolyline
90
4
70
1
43
0.0
10
197.59399999999999
20
73.933099999999982
10
197.59399999999999
20
59.933800000000019
10
183.595
20
59.933800000000019
10
183.595
20
73.933099999999982
0
LWPOLYLINE
5
145
100
AcDbEntity
8
0
100
AcDbPolyline
90
4
70
1
43
0.0
10
93.10720000000002
20
54.883099999999999
10
107.10700000000004
20
54.883099999999999
10
107.10700000000004
20
40.883800000000001
10
93.10720000000002
20
40.883800000000001
0
LWPOLYLINE
5
146
100
AcDbEntity
8
0
100
AcDbPolyline
90
4
70
1
43
0.0
10
31.194700000000001
20
73.933099999999982
10
45.194000000000003
20
73.933099999999982
10
45.194000000000003
20
59.933800000000019
10
31.194700000000001
20
59.933800000000019
0
LWPOLYLINE
5
147
100
AcDbEntity
8
0
100
AcDbPolyline
90
4
70
1
43
0.0
10
235.69400000000002
20
73.933099999999982
10
235.69400000000002
20
59.933800000000019
10
221.69499999999999
20
59.933800000000019
10
221.69499999999999
20
73.933099999999982
0
LWPOLYLINE
5
148
100
AcDbEntity
8
0
100
AcDbPolyline
90
4
70
1
43
0.0
10
126.44500000000001
20
73.933099999999982
10
140.44399999999999
20
73.933099999999982
10
140.44399999999999
20
59.933800000000019
10
126.44500000000001
20
59.933800000000019
0
LWPOLYLINE
5
149
100
AcDbEntity
8
0
100
AcDbPolyline
90
4
70
1
43
0.0
10
278.55700000000002
20
73.933099999999982
10
278.55700000000002
20
59.933800000000019
10
264.55700000000002
20
59.933800000000019
10
264.55700000000002
20
73.933099999999982
0
LWPOLYLINE
5
150
100
AcDbEntity
8
0
100
AcDbPolyline
90
4
70
1
43
0.0
10
111.86900000000001
20
78.983800000000002
10
97.868300000000019
20
78.983800000000002
10
97.868300000000019
20
92.983099999999993
10
111.86900000000001
20
92.983099999999993
0
LWPOLYLINE
5
151
100
AcDbEntity
8
0
100
AcDbPolyline
90
4
70
1
43
0.0
10
40.719700000000003
20
78.983800000000002
10
40.719700000000003
20
92.983099999999993
10
54.719000000000008
20
92.983099999999993
10
54.719000000000008
20
78.983800000000002
0
LWPOLYLINE
5
152
100
AcDbEntity
8
0
100
AcDbPolyline
90
4
70
1
43
0.0
10
159.494
20
73.933099999999982
10
159.494
20
59.933800000000019
10
145.495
20
59.933800000000019
10
145.495
20
73.933099999999982
0
LWPOLYLINE
5
153
100
AcDbEntity
8
0
100
AcDbPolyline
90
4
70
1
43
0.0
10
35.669000000000011
20
92.983099999999993
10
35.669000000000011
20
78.983800000000002
10
21.669699999999999
20
78.983800000000002
10
21.669699999999999
20
92.983099999999993
0
LWPOLYLINE
5
154
100
AcDbEntity
8
0
100
AcDbPolyline
90
4
70
1
43
0.0
10
92.819000000000003
20
78.983800000000002
10
78.819699999999983
20
78.983800000000002
10
78.819699999999983
20
92.983099999999993
10
92.819000000000003
20
92.983099999999993
0
LWPOLYLINE
5
155
100
AcDbEntity
8
0
100
AcDbPolyline
90
4
70
1
43
0.0
10
130.91899999999998
20
78.983800000000002
10
116.91800000000001
20
78.983800000000002
10
116.91800000000001
20
92.983099999999993
10
130.91899999999998
20
92.983099999999993
0
LWPOLYLINE
5
156
100
AcDbEntity
8
0
100
AcDbPolyline
90
4
70
1
43
0.0
10
169.01900000000001
20
92.983099999999993
10
169.01900000000001
20
78.983800000000002
10
155.02000000000004
20
78.983800000000002
10
155.02000000000004
20
92.983099999999993
0
LWPOLYLINE
5
157
100
AcDbEntity
8
0
100
AcDbPolyline
90
4
70
1
43
0.0
10
88.344700000000017
20
59.933800000000019
10
88.344700000000017
20
73.933099999999982
10
102.34400000000001
20
73.933099999999982
10
102.34400000000001
20
59.933800000000019
0
LWPOLYLINE
5
158
100
AcDbEntity
8
0
100
AcDbPolyline
90
4
70
1
43
0.0
10
135.97000000000003
20
78.983800000000002
10
135.97000000000003
20
92.983099999999993
10
149.96899999999999
20
92.983099999999993
10
149.96899999999999
20
78.983800000000002
0
LWPOLYLINE
5
159
100
AcDbEntity
8
0
100
AcDbPolyline
90
4
70
1
43
0.0
10
254.74400000000003
20
73.933099999999982
10
254.74400000000003
20
59.933800000000019
10
240.745
20
59.933800000000019
10
240.745
20
73.933099999999982
0
LWPOLYLINE
5
160
100
AcDbEntity
8
0
100
AcDbPolyline
90
4
70
1
43
0.0
10
302.36900000000009
20
73.933099999999982
10
302.36900000000009
20
59.933800000000019
10
288.37
20
59.933800000000019
10
288.37
20
73.933099999999982
0
LWPOLYLINE
5
161
100
AcDbEntity
8
0
100
AcDbPolyline
90
4
70
1
43
0.0
10
178.54400000000001
20
59.933800000000019
10
164.54499999999999
20
59.933800000000019
10
164.54499999999999
20
73.933099999999982
10
178.54400000000001
20
73.933099999999982
0
LWPOLYLINE
5
162
100
AcDbEntity
8
0
100
AcDbPolyline
90
4
70
1
43
0.0
10
2.61965
20
78.983800000000002
10
2.61965
20
92.983099999999993
10
16.619199999999999
20
92.983099999999993
10
16.619199999999999
20
78.983800000000002
0
LWPOLYLINE
5
163
100
AcDbEntity
8
0
100
AcDbPolyline
90
4
70
1
43
0.0
10
169.01900000000001
20
98.033800000000014
10
155.02000000000004
20
98.033800000000014
10
155.02000000000004
20
112.033
10
169.01900000000001
20
112.033
0
LWPOLYLINE
5
164
100
AcDbEntity
8
0
100
AcDbPolyline
90
4
70
1
43
0.0
10
59.769700000000014
20
112.033
10
73.768999999999977
20
112.033
10
73.768999999999977
20
98.033800000000014
10
59.769700000000014
20
98.033800000000014
0
LWPOLYLINE
5
165
100
AcDbEntity
8
0
100
AcDbPolyline
90
4
70
1
43
0.0
10
174.06999999999999
20
92.983099999999993
10
188.06899999999999
20
92.983099999999993
10
188.06899999999999
20
78.983800000000002
10
174.06999999999999
20
78.983800000000002
0
LWPOLYLINE
5
166
100
AcDbEntity
8
0
100
AcDbPolyline
90
4
70
1
43
0.0
10
207.11900000000003
20
78.983800000000002
10
193.12
20
78.983800000000002
10
193.12
20
92.983099999999993
10
207.11900000000003
20
92.983099999999993
0
LWPOLYLINE
5
167
100
AcDbEntity
8
0
100
AcDbPolyline
90
4
70
1
43
0.0
10
35.669000000000011
20
98.033800000000014
10
21.669699999999999
20
98.033800000000014
10
21.669699999999999
20
112.033
10
35.669000000000011
20
112.033
0
LWPOLYLINE
5
168
100
AcDbEntity
8
0
100
AcDbPolyline
90
4
70
1
43
0.0
10
78.819699999999983
20
98.033800000000014
10
78.819699999999983
20
112.033
10
92.819000000000003
20
112.033
10
92.819000000000003
20
98.033800000000014
0
LWPOLYLINE
5
169
100
AcDbEntity
8
0
100
AcDbPolyline
90
4
70
1
43
0.0
10
302.36900000000009
20
92.983099999999993
10
302.36900000000009
20
78.983800000000002
10
288.37
20
78.983800000000002
10
288.37
20
92.983099999999993
0
LWPOLYLINE
5
170
100
AcDbEntity
8
0
100
AcDbPolyline
90
4
70
1
43
0.0
10
245.21900000000002
20
78.983800000000002
10
231.22
20
78.983800000000002
10
231.22
20
92.983099999999993
10
245.21900000000002
20
92.983099999999993
0
LWPOLYLINE
5
171
100
AcDbEntity
8
0
100
AcDbPolyline
90
4
70
1
43
0.0
10
16.619199999999999
20
98.033800000000014
10
2.61965
20
98.033800000000014
10
2.61965
20
112.033
10
16.619199999999999
20
112.033
0
LWPOLYLINE
5
172
100
AcDbEntity
8
0
100
AcDbPolyline
90
4
70
1
43
0.0
10
212.16999999999999
20
92.983099999999993
10
226.16900000000001
20
92.983099999999993
10
226.16900000000001
20
78.983800000000002
10
212.16999999999999
20
78.983800000000002
0
LWPOLYLINE
5
173
100
AcDbEntity
8
0
100
AcDbPolyline
90
4
70
1
43
0.0
10
73.768999999999977
20
92.983099999999993
10
73.768999999999977
20
78.983800000000002
10
59.769700000000014
20
78.983800000000002
10
59.769700000000014
20
92.983099999999993
0
LWPOLYLINE
5
174
100
AcDbEntity
8
0
100
AcDbPolyline
90
4
70
1
43
0.0
10
130.91899999999998
20
112.033
10
130.91899999999998
20
98.033800000000014
10
116.91800000000001
20
98.033800000000014
10
116.91800000000001
20
112.033
0
LWPOLYLINE
5
175
100
AcDbEntity
8
0
100
AcDbPolyline
90
4
70
1
43
0.0
10
40.719700000000003
20
98.033800000000014
10
40.719700000000003
20
112.033
10
54.719000000000008
20
112.033
10
54.719000000000008
20
98.033800000000014
0
LWPOLYLINE
5
176
100
AcDbEntity
8
0
100
AcDbPolyline
90
4
70
1
43
0.0
10
288.37
20
98.033800000000014
10
288.37
20
112.033
10
302.36900000000009
20
112.033
10
302.36900000000009
20
98.033800000000014
0
LWPOLYLINE
5
177
100
AcDbEntity
8
0
100
AcDbPolyline
90
4
70
1
43
0.0
10
193.12
20
112.033
10
207.11900000000003
20
112.033
10
207.11900000000003
20
98.033800000000014
10
193.12
20
98.033800000000014
0
LWPOLYLINE
5
178
100
AcDbEntity
8
0
100
AcDbPolyline
90
4
70
1
43
0.0
10
264.26900000000001
20
98.033800000000014
10
250.27000000000001
20
98.033800000000014
10
250.27000000000001
20
112.033
10
264.26900000000001
20
112.033
0
LWPOLYLINE
5
179
100
AcDbEntity
8
0
100
AcDbPolyline
90
4
70
1
43
0.0
10
188.06899999999999
20
98.033800000000014
10
174.06999999999999
20
98.033800000000014
10
174.06999999999999
20
112.033
10
188.06899999999999
20
112.033
0
LWPOLYLINE
5
180
100
AcDbEntity
8
0
100
AcDbPolyline
90
4
70
1
43
0.0
10
97.868300000000019
20
98.033800000000014
10
97.868300000000019
20
112.033
10
111.86900000000001
20
112.033
10
111.86900000000001
20
98.033800000000014
0
LWPOLYLINE
5
181
100
AcDbEntity
8
0
100
AcDbPolyline
90
8
70
1
43
0.0
10
-9.9049154000000073
20
119.55799999999998
42
-0.41421356237309659
10
-4.9049153999999904
20
124.55799999999999
10
309.89499999999998
20
124.55800000000002
42
-0.41421356237309609
10
314.8950000000001
20
119.55799999999998
10
314.89499999999998
20
-4.7423069999999736
42
-0.41421356237309431
10
309.89499999999998
20
-9.7423069999999932
10
-4.9049154000000073
20
-9.7423069999999949
42
-0.41421356237309431
10
-9.904915400000009
20
-4.7423069999999843
0
LWPOLYLINE
5
182
100
AcDbEntity
8
0
100
AcDbPolyline
90
4
70
1
43
0.0
10
269.32000000000005
20
98.033800000000014
10
269.32000000000005
20
112.033
10
283.31900000000007
20
112.033
10
283.31900000000007
20
98.033800000000014
0
LWPOLYLINE
5
183
100
AcDbEntity
8
0
100
AcDbPolyline
90
4
70
1
43
0.0
10
245.21900000000002
20
98.033800000000014
10
231.22
20
98.033800000000014
10
231.22
20
112.033
10
245.21900000000002
20
112.033
0
LWPOLYLINE
5
184
100
AcDbEntity
8
0
100
AcDbPolyline
90
4
70
1
43
0.0
10
149.96899999999999
20
98.033800000000014
10
135.97000000000003
20
98.033800000000014
10
135.97000000000003
20
112.033
10
149.96899999999999
20
112.033
0
LWPOLYLINE
5
185
100
AcDbEntity
8
0
100
AcDbPolyline
90
4
70
1
43
0.0
10
226.16900000000001
20
98.033800000000014
10
212.16999999999999
20
98.033800000000014
10
212.16999999999999
20
112.033
10
226.16900000000001
20
112.033
0
CIRCLE
5
186
100
AcDbEntity
8
0
100
AcDbCircle
10
156.49504229999997
20
-4.742306999999979
30
0
40
1.6500000000000001
210
0
220
0
230
1
0
CIRCLE
5
187
100
AcDbEntity
8
0
100
AcDbCircle
10
80.295063450000015
20
-4.742306999999979
30
0
40
1.6500000000000001
210
0
220
0
230
1
0
CIRCLE
5
188
100
AcDbEntity
8
0
100
AcDbCircle
10
232.69502115
20
119.55799999999998
30
0
40
1.6500000000000001
210
0
220
0
230
1
0
CIRCLE
5
189
100
AcDbEntity
8
0
100
AcDbCircle
10
-4.9049153999999895
20
119.55799999999998
30
0
40
1.6500000000000001
210
0
220
0
230
1
0
CIRCLE
5
190
100
AcDbEntity
8
0
100
AcDbCircle
10
156.49504230000005
20
119.55799999999998
30
0
40
1.6500000000000001
210
0
220
0
230
1
0
CIRCLE
5
191
100
AcDbEntity
8
0
100
AcDbCircle
10
72.295063450000015
20
-4.7423069999999967
30
0
40
1.6500000000000001
210
0
220
0
230
1
0
CIRCLE
5
192
100
AcDbEntity
8
0
100
AcDbCircle
10
148.49504230000005
20
119.55799999999998
30
0
40
1.6500000000000001
210
0
220
0
230
1
0
CIRCLE
5
193
100
AcDbEntity
8
0
100
AcDbCircle
10
232.69502115
20
-4.7423070000000154
30
0
40
1.6500000000000001
210
0
220
0
230
1
0
CIRCLE
5
194
100
AcDbEntity
8
0
100
AcDbCircle
10
-4.9049153999999717
20
-4.742306999999979
30
0
40
1.6500000000000001
210
0
220
0
230
1
0
CIRCLE
5
195
100
AcDbEntity
8
0
100
AcDbCircle
10
224.69502115
20
-4.7423069999999967
30
0
40
1.6500000000000001
210
0
220
0
230
1
0
CIRCLE
5
196
100
AcDbEntity
8
0
100
AcDbCircle
10
309.89499999999998
20
-4.7423070000000154
30
0
40
1.6500000000000001
210
0
220
0
230
1
0
CIRCLE
5
197
100
AcDbEntity
8
0
100
AcDbCircle
10
148.49504230000005
20
-4.742306999999979
30
0
40
1.6500000000000001
210
0
220
0
230
1
0
CIRCLE
5
198
100
AcDbEntity
8
0
100
AcDbCircle
10
224.69502115
20
119.55799999999996
30
0
40
1.6500000000000001
210
0
220
0
230
1
0
CIRCLE
5
199
100
AcDbEntity
8
0
100
AcDbCircle
10
309.89499999999998
20
119.55799999999996
30
0
40
1.6500000000000001
210
0
220
0
230
1
0
CIRCLE
5
200
100
AcDbEntity
8
0
100
AcDbCircle
10
80.295063450000015
20
119.55799999999998
30
0
40
1.6500000000000001
210
0
220
0
230
1
0
CIRCLE
5
201
100
AcDbEntity
8
0
100
AcDbCircle
10
72.295063450000015
20
119.55800000000002
30
0
40
1.6500000000000001
210
0
220
0
230
1
0
CIRCLE
5
202
100
AcDbEntity
8
0
100
AcDbCircle
10
309.89499999999998
20
57.407846499999962
30
0
40
1.6500000000000001
210
0
220
0
230
1
0
CIRCLE
5
203
100
AcDbEntity
8
0
100
AcDbCircle
10
181.06250000000003
20
16.8142
30
0
40
1.0499999999999956
210
0
220
0
230
1
0
CIRCLE
5
204
100
AcDbEntity
8
0
100
AcDbCircle
10
-4.9049153999999895
20
57.407846500000019
30
0
40
1.6500000000000001
210
0
220
0
230
1
0
CIRCLE
5
205
100
AcDbEntity
8
0
100
AcDbCircle
10
81.06255000000003
20
16.8142
30
0
40
1.0499999999999956
210
0
220
0
230
1
0
CIRCLE
5
206
100
AcDbEntity
8
0
100
AcDbCircle
10
9.6256000000000004
20
35.862800000000007
30
0
40
1.0499999999999956
210
0
220
0
230
1
0
CIRCLE
5
207
100
AcDbEntity
8
0
100
AcDbCircle
10
278.69450000000001
20
93.012700000000024
30
0
40
1.0499999999999956
210
0
220
0
230
1
0
CIRCLE
5
208
100
AcDbEntity
8
0
100
AcDbCircle
10
33.425650000000005
20
35.862800000000007
30
0
40
1.0499999999999956
210
0
220
0
230
1
0
CIRCLE
5
209
100
AcDbEntity
8
0
100
AcDbCircle
10
254.89450000000002
20
93.012700000000024
30
0
40
1.0499999999999956
210
0
220
0
230
1
0
CIRCLE
5
210
100
AcDbEntity
8
0
100
AcDbCircle
10
80.862550000000013
20
16.8142
30
0
40
1.0499999999999956
210
0
220
0
230
1
0
CIRCLE
5
211
100
AcDbEntity
8
0
100
AcDbCircle
10
181.26249999999999
20
16.8142
30
0
40
1.0499999999999956
210
0
220
0
230
1
0
CIRCLE
5
212
100
AcDbEntity
8
0
100
AcDbCircle
10
276.3125
20
54.912700000000008
30
0
40
1.0499999999999956
210
0
220
0
230
1
0
CIRCLE
5
213
100
AcDbEntity
8
0
100
AcDbCircle
10
252.51249999999999
20
54.912700000000008
30
0
40
1.0499999999999956
210
0
220
0
230
1
0
ENDSEC
0
SECTION
2
OBJECTS
0
DICTIONARY
5
C
100
AcDbDictionary
3
ACAD_GROUP
350
D
3
ACAD_MLINESTYLE
350
17
0
DICTIONARY
5
D
100
AcDbDictionary
0
DICTIONARY
5
1A
330
C
100
AcDbDictionary
0
DICTIONARY
5
17
100
AcDbDictionary
0
ENDSEC
0
EOF
