%TF.GenerationSoftware,KiCad,Pcbnew,8.0.0*%
%TF.CreationDate,2024-03-07T20:20:43+01:00*%
%TF.ProjectId,splitty_boy_routed,73706c69-7474-4795-9f62-6f795f726f75,v1.0.0*%
%TF.SameCoordinates,Original*%
%TF.FileFunction,Paste,Bot*%
%TF.FilePolarity,Positive*%
%FSLAX46Y46*%
G04 Gerber Fmt 4.6, Leading zero omitted, Abs format (unit mm)*
G04 Created by KiCad (PCBNEW 8.0.0) date 2024-03-07 20:20:43*
%MOMM*%
%LPD*%
G01*
G04 APERTURE LIST*
G04 Aperture macros list*
%AMRotRect*
0 Rectangle, with rotation*
0 The origin of the aperture is its center*
0 $1 length*
0 $2 width*
0 $3 Rotation angle, in degrees counterclockwise*
0 Add horizontal line*
21,1,$1,$2,0,0,$3*%
G04 Aperture macros list end*
%ADD10R,2.550000X2.500000*%
%ADD11RotRect,2.550000X2.500000X352.000000*%
%ADD12RotRect,2.550000X2.500000X344.000000*%
%ADD13RotRect,2.550000X2.500000X332.000000*%
%ADD14R,0.900000X1.200000*%
%ADD15RotRect,0.900000X1.200000X352.000000*%
%ADD16RotRect,0.900000X1.200000X344.000000*%
%ADD17RotRect,0.900000X1.200000X332.000000*%
%ADD18RotRect,0.900000X1.250000X281.500000*%
%ADD19RotRect,0.900000X0.900000X281.500000*%
%ADD20R,2.000000X2.000000*%
G04 APERTURE END LIST*
D10*
%TO.C,S1*%
X141819943Y-161344700D03*
X154746943Y-158804700D03*
%TD*%
%TO.C,S2*%
X141819950Y-142294701D03*
X154746950Y-139754701D03*
%TD*%
%TO.C,S3*%
X141819948Y-123244701D03*
X154746948Y-120704701D03*
%TD*%
%TO.C,S4*%
X160869947Y-157534696D03*
X173796947Y-154994696D03*
%TD*%
%TO.C,S5*%
X160869949Y-138484702D03*
X173796949Y-135944702D03*
%TD*%
%TO.C,S6*%
X160869937Y-119434699D03*
X173796937Y-116894699D03*
%TD*%
%TO.C,S7*%
X160869950Y-100384700D03*
X173796950Y-97844700D03*
%TD*%
%TO.C,S8*%
X179919944Y-144961702D03*
X192846944Y-142421702D03*
%TD*%
%TO.C,S9*%
X179919949Y-125911704D03*
X192846949Y-123371704D03*
%TD*%
%TO.C,S10*%
X179919953Y-106861705D03*
X192846953Y-104321705D03*
%TD*%
%TO.C,S11*%
X179919952Y-87811697D03*
X192846952Y-85271697D03*
%TD*%
%TO.C,S12*%
X198969950Y-140199199D03*
X211896950Y-137659199D03*
%TD*%
%TO.C,S13*%
X198969943Y-121149203D03*
X211896943Y-118609203D03*
%TD*%
%TO.C,S14*%
X198969950Y-102099202D03*
X211896950Y-99559202D03*
%TD*%
%TO.C,S15*%
X198969945Y-83049203D03*
X211896945Y-80509203D03*
%TD*%
%TO.C,S16*%
X218019950Y-144961702D03*
X230946950Y-142421702D03*
%TD*%
%TO.C,S17*%
X218019947Y-125911701D03*
X230946947Y-123371701D03*
%TD*%
%TO.C,S18*%
X218019950Y-106861704D03*
X230946950Y-104321704D03*
%TD*%
%TO.C,S19*%
X218019946Y-87811705D03*
X230946946Y-85271705D03*
%TD*%
%TO.C,S20*%
X237069957Y-147819194D03*
X249996957Y-145279194D03*
%TD*%
%TO.C,S21*%
X237069943Y-128769195D03*
X249996943Y-126229195D03*
%TD*%
%TO.C,S22*%
X237069948Y-109719201D03*
X249996948Y-107179201D03*
%TD*%
%TO.C,S23*%
X237069947Y-90669194D03*
X249996947Y-88129194D03*
%TD*%
D11*
%TO.C,S24*%
X218442403Y-168765375D03*
X231597096Y-168049183D03*
%TD*%
D12*
%TO.C,S25*%
X238882677Y-172099563D03*
X252009025Y-173221117D03*
%TD*%
D13*
%TO.C,S26*%
X259342231Y-178768266D03*
X271948552Y-182594438D03*
%TD*%
D14*
%TO.C,D1*%
X150554945Y-168884698D03*
X147254945Y-168884698D03*
%TD*%
%TO.C,D2*%
X150554950Y-149834703D03*
X147254950Y-149834703D03*
%TD*%
%TO.C,D3*%
X150554949Y-130784698D03*
X147254949Y-130784698D03*
%TD*%
%TO.C,D4*%
X169604943Y-165074700D03*
X166304943Y-165074700D03*
%TD*%
%TO.C,D5*%
X169604952Y-146024700D03*
X166304952Y-146024700D03*
%TD*%
%TO.C,D6*%
X169604943Y-126974700D03*
X166304943Y-126974700D03*
%TD*%
%TO.C,D7*%
X169604945Y-107924702D03*
X166304945Y-107924702D03*
%TD*%
%TO.C,D8*%
X188654946Y-152501699D03*
X185354946Y-152501699D03*
%TD*%
%TO.C,D9*%
X188654944Y-133451702D03*
X185354944Y-133451702D03*
%TD*%
%TO.C,D10*%
X188654950Y-114401706D03*
X185354950Y-114401706D03*
%TD*%
%TO.C,D11*%
X188654947Y-95351700D03*
X185354947Y-95351700D03*
%TD*%
%TO.C,D12*%
X207704951Y-147739198D03*
X204404951Y-147739198D03*
%TD*%
%TO.C,D13*%
X207704947Y-128689213D03*
X204404947Y-128689213D03*
%TD*%
%TO.C,D14*%
X207704948Y-109639201D03*
X204404948Y-109639201D03*
%TD*%
%TO.C,D15*%
X207704948Y-90589200D03*
X204404948Y-90589200D03*
%TD*%
%TO.C,D16*%
X226754950Y-152501696D03*
X223454950Y-152501696D03*
%TD*%
%TO.C,D17*%
X226754948Y-133451695D03*
X223454948Y-133451695D03*
%TD*%
%TO.C,D18*%
X226754942Y-114401696D03*
X223454942Y-114401696D03*
%TD*%
%TO.C,D19*%
X226754953Y-95351695D03*
X223454953Y-95351695D03*
%TD*%
%TO.C,D20*%
X245804944Y-155359199D03*
X242504944Y-155359199D03*
%TD*%
%TO.C,D21*%
X245804950Y-136309196D03*
X242504950Y-136309196D03*
%TD*%
%TO.C,D22*%
X245804947Y-117259201D03*
X242504947Y-117259201D03*
%TD*%
%TO.C,D23*%
X245804949Y-98209200D03*
X242504949Y-98209200D03*
%TD*%
D15*
%TO.C,D24*%
X226043026Y-177447678D03*
X222775142Y-176988406D03*
%TD*%
D16*
%TO.C,D25*%
X245200987Y-181755164D03*
X242028821Y-180845560D03*
%TD*%
D17*
%TO.C,D26*%
X263514961Y-189526530D03*
X260601233Y-187977276D03*
%TD*%
D18*
%TO.C,T1*%
X273022872Y-168061380D03*
X273620976Y-171001155D03*
X273920025Y-172471042D03*
D19*
X277320373Y-173258943D03*
X275164538Y-173697548D03*
X273689215Y-166446101D03*
X275845050Y-166007496D03*
%TD*%
D20*
%TO.C,PAD1*%
X274654947Y-155884198D03*
%TD*%
%TO.C,PAD2*%
X274654943Y-161884196D03*
%TD*%
M02*
