M48
; DRILL file {KiCad 8.0.0} date 2024-03-07T20:20:40+0100
; FORMAT={-:-/ absolute / inch / decimal}
; #@! TF.CreationDate,2024-03-07T20:20:40+01:00
; #@! TF.GenerationSoftware,Kicad,Pcbnew,8.0.0
; #@! TF.FileFunction,NonPlated,1,2,NPTH
FMAT,2
INCH
; #@! TA.AperFunction,NonPlated,NPTH,ComponentDrill
T1C0.0354
; #@! TA.AperFunction,NonPlated,NPTH,ComponentDrill
T2C0.0670
; #@! TA.AperFunction,NonPlated,NPTH,ComponentDrill
T3C0.1181
; #@! TA.AperFunction,NonPlated,NPTH,ComponentDrill
T4C0.1570
%
G90
G05
T1
X10.8349Y-6.6292
X10.8349Y-6.6292
X10.8584Y-6.745
X10.8584Y-6.745
T2
X5.6624Y-6.4522
X5.6624Y-4.9522
X5.6624Y-5.7022
X6.0624Y-6.4522
X6.0624Y-4.9522
X6.0624Y-5.7022
X6.4124Y-4.8022
X6.4124Y-6.3022
X6.4124Y-5.5522
X6.4124Y-4.0522
X6.8124Y-4.8022
X6.8124Y-6.3022
X6.8124Y-5.5522
X6.8124Y-4.0522
X7.1624Y-5.8072
X7.1624Y-5.0572
X7.1624Y-3.5572
X7.1624Y-4.3072
X7.5624Y-5.8072
X7.5624Y-5.0572
X7.5624Y-3.5572
X7.5624Y-4.3072
X7.9124Y-4.8697
X7.9124Y-3.3697
X7.9124Y-4.1197
X7.9124Y-5.6197
X8.3124Y-4.8697
X8.3124Y-3.3697
X8.3124Y-4.1197
X8.3124Y-5.6197
X8.6624Y-3.5572
X8.6624Y-5.0572
X8.6624Y-4.3072
X8.6624Y-5.8072
X8.6643Y-6.7543
X9.0605Y-6.81
X9.0624Y-3.5572
X9.0624Y-5.0572
X9.0624Y-4.3072
X9.0624Y-5.8072
X9.4124Y-5.1697
X9.4124Y-3.6697
X9.4124Y-4.4197
X9.4124Y-5.9197
X9.4531Y-6.8935
X9.8124Y-5.1697
X9.8124Y-3.6697
X9.8124Y-4.4197
X9.8124Y-5.9197
X9.8376Y-7.0037
X10.2331Y-7.1635
X10.5863Y-7.3513
T3
X5.7124Y-6.3522
X5.7124Y-4.8522
X5.7124Y-5.6022
X5.7624Y-6.2522
X5.7624Y-4.7522
X5.7624Y-5.5022
X5.9624Y-6.2522
X5.9624Y-4.7522
X5.9624Y-5.5022
X6.0124Y-6.3522
X6.0124Y-4.8522
X6.0124Y-5.6022
X6.4624Y-4.7022
X6.4624Y-6.2022
X6.4624Y-5.4522
X6.4624Y-3.9522
X6.5124Y-4.6022
X6.5124Y-6.1022
X6.5124Y-5.3522
X6.5124Y-3.8522
X6.7124Y-4.6022
X6.7124Y-6.1022
X6.7124Y-5.3522
X6.7124Y-3.8522
X6.7624Y-4.7022
X6.7624Y-6.2022
X6.7624Y-5.4522
X6.7624Y-3.9522
X7.2124Y-5.7072
X7.2124Y-4.9572
X7.2124Y-3.4572
X7.2124Y-4.2072
X7.2624Y-5.6072
X7.2624Y-4.8572
X7.2624Y-3.3572
X7.2624Y-4.1072
X7.4624Y-5.6072
X7.4624Y-4.8572
X7.4624Y-3.3572
X7.4624Y-4.1072
X7.5124Y-5.7072
X7.5124Y-4.9572
X7.5124Y-3.4572
X7.5124Y-4.2072
X7.9624Y-4.7697
X7.9624Y-3.2697
X7.9624Y-4.0197
X7.9624Y-5.5197
X8.0124Y-4.6697
X8.0124Y-3.1697
X8.0124Y-3.9197
X8.0124Y-5.4197
X8.2124Y-4.6697
X8.2124Y-3.1697
X8.2124Y-3.9197
X8.2124Y-5.4197
X8.2624Y-4.7697
X8.2624Y-3.2697
X8.2624Y-4.0197
X8.2624Y-5.5197
X8.7124Y-3.4572
X8.7124Y-4.9572
X8.7124Y-4.2072
X8.7124Y-5.7072
X8.7278Y-6.6623
X8.7624Y-3.3572
X8.7624Y-4.8572
X8.7624Y-4.1072
X8.7624Y-5.6072
X8.7912Y-6.5702
X8.9624Y-3.3572
X8.9624Y-4.8572
X8.9624Y-4.1072
X8.9624Y-5.6072
X8.9893Y-6.598
X9.0124Y-3.4572
X9.0124Y-4.9572
X9.0124Y-4.2072
X9.0124Y-5.7072
X9.0249Y-6.704
X9.4624Y-5.0697
X9.4624Y-3.5697
X9.4624Y-4.3197
X9.4624Y-5.8197
X9.5124Y-4.9697
X9.5124Y-3.4697
X9.5124Y-4.2197
X9.5124Y-5.7197
X9.5288Y-6.8111
X9.6044Y-6.7288
X9.7124Y-4.9697
X9.7124Y-3.4697
X9.7124Y-4.2197
X9.7124Y-5.7197
X9.7624Y-5.0697
X9.7624Y-3.5697
X9.7624Y-4.3197
X9.7624Y-5.8197
X9.7967Y-6.7839
X9.8172Y-6.8938
X10.3242Y-7.0987
X10.4153Y-7.0338
X10.5891Y-7.2395
X10.5919Y-7.1277
T4
X5.8624Y-6.4522
X5.8624Y-4.9522
X5.8624Y-5.7022
X6.6124Y-4.8022
X6.6124Y-6.3022
X6.6124Y-5.5522
X6.6124Y-4.0522
X7.3624Y-5.8072
X7.3624Y-5.0572
X7.3624Y-3.5572
X7.3624Y-4.3072
X8.1124Y-4.8697
X8.1124Y-3.3697
X8.1124Y-4.1197
X8.1124Y-5.6197
X8.8624Y-3.5572
X8.8624Y-5.0572
X8.8624Y-4.3072
X8.8624Y-5.8072
X8.8624Y-6.7822
X9.6124Y-5.1697
X9.6124Y-3.6697
X9.6124Y-4.4197
X9.6124Y-5.9197
X9.6454Y-6.9486
X10.4097Y-7.2574
M30
