%TF.GenerationSoftware,KiCad,Pcbnew,(6.0.11)*%
%TF.CreationDate,2023-03-31T01:03:26+02:00*%
%TF.ProjectId,half-swept,68616c66-2d73-4776-9570-742e6b696361,rev?*%
%TF.SameCoordinates,Original*%
%TF.FileFunction,Profile,NP*%
%FSLAX46Y46*%
G04 Gerber Fmt 4.6, Leading zero omitted, Abs format (unit mm)*
G04 Created by KiCad (PCBNEW (6.0.11)) date 2023-03-31 01:03:26*
%MOMM*%
%LPD*%
G01*
G04 APERTURE LIST*
%TA.AperFunction,Profile*%
%ADD10C,0.050000*%
%TD*%
G04 APERTURE END LIST*
D10*
X107222063Y-27137419D02*
G75*
G03*
X106500000Y-26400000I-737563J19D01*
G01*
X110938000Y-104748000D02*
G75*
G03*
X89409134Y-95561946I-44316000J-74040000D01*
G01*
X107222002Y-42683999D02*
G75*
G03*
X109257002Y-44614917I1999998J69999D01*
G01*
X110938000Y-104748000D02*
G75*
G03*
X113670000Y-104149265I1070000J1650000D01*
G01*
X89409134Y-95561946D02*
G75*
G03*
X20768000Y-88081119I-69219164J-316475414D01*
G01*
X18730240Y-86300001D02*
G75*
G03*
X20768000Y-88081119I1977860J206601D01*
G01*
X127635000Y-45300000D02*
X127635000Y-62484000D01*
X107222001Y-42683999D02*
X107222045Y-27137419D01*
X109257002Y-44614917D02*
X126960000Y-44612000D01*
X125888304Y-83312000D02*
X113670000Y-104149265D01*
X125888307Y-83312002D02*
G75*
G03*
X127635000Y-75987850I-15027207J7454102D01*
G01*
X127635000Y-62484000D02*
X127647000Y-69850000D01*
X127647000Y-69850000D02*
X127635000Y-75987850D01*
X55300000Y-18800000D02*
G75*
G03*
X54300000Y-19800000I0J-1000000D01*
G01*
X55300000Y-18800000D02*
X89634315Y-18800000D01*
X90434300Y-19600000D02*
G75*
G03*
X89634315Y-18800000I-800000J0D01*
G01*
X90434315Y-19600000D02*
X90500000Y-20450001D01*
X52710000Y-25799969D02*
G75*
G03*
X54300000Y-24200000I-10000J1599969D01*
G01*
X54300000Y-24200000D02*
X54300000Y-19800000D01*
X91000000Y-21050000D02*
X99868224Y-23350000D01*
X90500013Y-20449999D02*
G75*
G03*
X91000000Y-21050000I734687J103899D01*
G01*
X34900000Y-37800000D02*
G75*
G03*
X36300000Y-36400000I0J1400000D01*
G01*
X127635035Y-45300001D02*
G75*
G03*
X126960000Y-44612000I-672735J15101D01*
G01*
X20000000Y-37790055D02*
X34900000Y-37800000D01*
X20000000Y-37790047D02*
G75*
G03*
X18690055Y-39110000I0J-1309983D01*
G01*
X18730254Y-86300000D02*
X18690055Y-39110000D01*
X37400000Y-25800000D02*
X52710000Y-25800000D01*
X100268224Y-23950000D02*
X100300000Y-25800000D01*
X100900000Y-26400000D02*
X106500000Y-26400000D01*
X100300000Y-25800000D02*
G75*
G03*
X100900000Y-26400000I552600J-47400D01*
G01*
X100268276Y-23950004D02*
G75*
G03*
X99868224Y-23350000I-587576J41604D01*
G01*
X36300000Y-36400000D02*
X36300000Y-26900000D01*
X37400000Y-25800000D02*
G75*
G03*
X36300000Y-26900000I0J-1100000D01*
G01*
M02*
