M48
; DRILL file {KiCad (6.0.11)} date Fri Mar 31 01:03:19 2023
; FORMAT={-:-/ absolute / inch / decimal}
; #@! TF.CreationDate,2023-03-31T01:03:19+02:00
; #@! TF.GenerationSoftware,Kicad,Pcbnew,(6.0.11)
; #@! TF.FileFunction,Plated,1,2,PTH
FMAT,2
INCH
; #@! TA.AperFunction,Plated,PTH,ViaDrill
T1C0.0157
; #@! TA.AperFunction,Plated,PTH,ComponentDrill
T2C0.0157
; #@! TA.AperFunction,Plated,PTH,ComponentDrill
T3C0.0320
; #@! TA.AperFunction,Plated,PTH,ComponentDrill
T4C0.0354
; #@! TA.AperFunction,Plated,PTH,ComponentDrill
T5C0.0433
; #@! TA.AperFunction,Plated,PTH,ComponentDrill
T6C0.0591
; #@! TA.AperFunction,Plated,PTH,ComponentDrill
T7C0.0866
%
G90
G05
T1
X3.438Y-0.876
X3.518Y-0.884
X3.692Y-1.092
X3.714Y-0.996
X3.736Y-0.962
X4.174Y-2.756
X4.274Y-2.418
X4.274Y-2.658
X4.276Y-2.836
X4.306Y-1.798
X4.336Y-2.186
X4.49Y-1.884
X4.534Y-2.058
X4.536Y-1.8532
T2
X4.65Y-1.93
X4.65Y-2.03
X4.65Y-2.13
X4.65Y-2.23
X4.65Y-2.33
X4.65Y-2.43
X4.65Y-2.53
X4.65Y-2.63
X4.65Y-2.73
X4.65Y-2.83
X4.65Y-2.93
X4.65Y-3.03
X4.71Y-1.93
X4.71Y-2.03
X4.71Y-2.13
X4.71Y-2.23
X4.71Y-2.33
X4.71Y-2.43
X4.71Y-2.53
X4.71Y-2.63
X4.71Y-2.73
X4.71Y-2.83
X4.71Y-2.93
X4.71Y-3.03
T3
X4.38Y-1.81
X4.98Y-1.81
T5
X4.38Y-1.93
X4.38Y-1.93
X4.38Y-2.03
X4.38Y-2.13
X4.38Y-2.23
X4.38Y-2.33
X4.38Y-2.43
X4.38Y-2.53
X4.38Y-2.63
X4.38Y-2.73
X4.38Y-2.83
X4.38Y-2.93
X4.38Y-3.03
X4.98Y-1.93
X4.98Y-1.93
X4.98Y-2.03
X4.98Y-2.13
X4.98Y-2.23
X4.98Y-2.33
X4.98Y-2.43
X4.98Y-2.53
X4.98Y-2.63
X4.98Y-2.73
X4.98Y-2.83
X4.98Y-2.93
X4.98Y-3.03
T6
X0.8693Y-1.9638
X0.8693Y-2.6331
X0.8693Y-3.3024
X1.0661Y-2.0465
X1.0661Y-2.7157
X1.0661Y-3.385
X1.263Y-1.9638
X1.263Y-2.6331
X1.263Y-3.3024
X1.578Y-1.4913
X1.578Y-2.1596
X1.578Y-2.8296
X1.7748Y-1.574
X1.7748Y-2.2423
X1.7748Y-2.9123
X1.9717Y-1.4913
X1.9717Y-2.1596
X1.9717Y-2.8296
X2.2866Y-1.2157
X2.2866Y-1.8896
X2.2866Y-2.5596
X2.4835Y-1.2984
X2.4835Y-1.9723
X2.4835Y-2.6423
X2.6803Y-1.2157
X2.6803Y-1.8896
X2.6803Y-2.5596
X2.9953Y-1.4323
X2.9953Y-2.0996
X2.9953Y-2.7696
X3.1921Y-1.515
X3.1921Y-2.1823
X3.1921Y-2.8523
X3.389Y-1.4323
X3.389Y-2.0996
X3.389Y-2.7696
X3.4232Y-3.2309
X3.6348Y-3.202
X3.7031Y-2.1996
X3.7031Y-2.8696
X3.7039Y-1.5307
X3.8035Y-3.3328
X3.9Y-2.2823
X3.9Y-2.9523
X3.9008Y-1.6134
X4.0969Y-2.1996
X4.0969Y-2.8696
X4.0976Y-1.5307
X4.2097Y-3.5035
X4.4215Y-3.5303
X4.5506Y-3.7004
T7
X2.1075Y-1.6921
X2.8575Y-0.9421
X2.8575Y-2.4421
X3.6075Y-1.6921
T4
G00X4.4165Y-3.3472
M15
G01X4.4322Y-3.3472
M16
G05
G00X4.433Y-3.1673
M15
G01X4.4172Y-3.1673
M16
G05
G00X4.4598Y-3.1661
M15
G01X4.4755Y-3.1661
M16
G05
G00X4.4763Y-3.3484
M15
G01X4.4606Y-3.3484
M16
G05
G00X4.6172Y-3.1661
M15
G01X4.633Y-3.1661
M16
G05
G00X4.6338Y-3.3484
M15
G01X4.618Y-3.3484
M16
G05
G00X4.7354Y-3.1661
M15
G01X4.7511Y-3.1661
M16
G05
G00X4.7519Y-3.3484
M15
G01X4.7361Y-3.3484
M16
G05
T0
M30
